SplineFontDB: 3.0
FontName: NovaSlim
FullName: Nova Slim
FamilyName: Nova Slim
Weight: Book
Copyright: Copyright (c) 2011, wmk69 (wmk69@o2.pl)\nwith Reserved Font Names 'NovaSlim' and 'Nova Slim'.\n\nThis Font Software is licensed under the SIL Open Font License, Version 1.1.\nThis license is available with a FAQ at:\nhttp://scripts.sil.org/OFL
Version: 2.000
ItalicAngle: 0
UnderlinePosition: -81
UnderlineWidth: 122
Ascent: 1638
Descent: 410
LayerCount: 2
Layer: 0 1 "Warstwa t+AUIA-a"  1
Layer: 1 1 "Plan pierwszy"  0
XUID: [1021 783 23647091 8360855]
FSType: 0
OS2Version: 3
OS2_WeightWidthSlopeOnly: 0
OS2_UseTypoMetrics: 1
CreationTime: 1260698820
ModificationTime: 1313417705
PfmFamily: 33
TTFWeight: 400
TTFWidth: 5
LineGap: 0
VLineGap: 0
Panose: 2 12 5 4 2 4 4 6 2 4
OS2TypoAscent: 1966
OS2TypoAOffset: 0
OS2TypoDescent: -506
OS2TypoDOffset: 0
OS2TypoLinegap: 0
OS2WinAscent: 1966
OS2WinAOffset: 0
OS2WinDescent: 506
OS2WinDOffset: 0
HheadAscent: 1966
HheadAOffset: 0
HheadDescent: -506
HheadDOffset: 0
OS2SubXSize: 1434
OS2SubYSize: 1331
OS2SubXOff: 0
OS2SubYOff: 287
OS2SupXSize: 1434
OS2SupYSize: 1331
OS2SupXOff: 0
OS2SupYOff: 977
OS2StrikeYSize: 102
OS2StrikeYPos: 512
OS2Vendor: '    '
OS2CodePages: 20000093.00000000
OS2UnicodeRanges: 8000002f.4000204b.00000000.00000000
Lookup: 258 0 0 "'kern' Kerning poziomy w tablicy 0"  {"Podtablica 'kern' Kerning poziomy w tablicy 0"  } ['kern' ('DFLT' <'dflt' > 'grek' <'dflt' > 'latn' <'dflt' > ) ]
DEI: 91125
KernClass2: 28 18 "Podtablica 'kern' Kerning poziomy w tablicy 0" 
 380 A C G M N O Q S Agrave Aacute Acircumflex Atilde Adieresis Aring Ccedilla Ntilde Ograve Oacute Ocircumflex Otilde Odieresis Oslash Amacron Abreve Aogonek Cacute Ccircumflex Cdotaccent Ccaron Gcircumflex Gbreve Gdotaccent Gcommaaccent Nacute Ncommaaccent Ncaron Eng Omacron Obreve Ohungarumlaut OE Sacute Scircumflex Scedilla Scaron uni01E4 Scommaaccent uni1E40 uni1E60 Oslashacute
 20 B germandbls uni1E02
 27 D Eth Dcaron Dcroat uni1E0A

StartChar: .notdef
Encoding: 65536 -1 0
Width: 894
Flags: W
HStem: 0 118<268 626> 1392 118<268 626>
VStem: 150 118<118 1392> 626 118<118 1392>
LayerCount: 2
Fore
SplineSet
150 0 m 1,0,-1
 150 1510 l 1,1,-1
 744 1510 l 1,2,-1
 744 0 l 1,3,-1
 150 0 l 1,0,-1
268 1392 m 1,4,-1
 268 118 l 1,5,-1
 626 118 l 1,6,-1
 626 1392 l 1,7,-1
 268 1392 l 1,4,-1
EndSplineSet
Validated: 3073
EndChar

StartChar: exclam
Encoding: 33 33 4
Width: 600
GlyphClass: 2
Flags: W
HStem: -20 245<216.097 383.903> 1530 20G<347.778 400>
VStem: 180 240<17.1285 187.871> 200 200<510 1460>
LayerCount: 2
Fore
SplineSet
180 102.5 m 128,-1,1
 180 153 180 153 215 189 c 128,-1,2
 250 225 250 225 300 225 c 128,-1,3
 350 225 350 225 385 189 c 128,-1,4
 420 153 420 153 420 102.5 c 128,-1,5
 420 52 420 52 385 16 c 128,-1,6
 350 -20 350 -20 300 -20 c 128,-1,7
 250 -20 250 -20 215 16 c 128,-1,0
 180 52 180 52 180 102.5 c 128,-1,1
390 1550 m 1,8,-1
 400 1550 l 1,9,-1
 400 510 l 1,10,-1
 210 420 l 1,11,-1
 200 420 l 1,12,-1
 200 1460 l 1,13,-1
 390 1550 l 1,8,-1
EndSplineSet
Validated: 1
EndChar

StartChar: quotedbl
Encoding: 34 34 5
Width: 747
GlyphClass: 2
Flags: W
HStem: 992 558
VStem: 150 166<1066 1476> 431 166<1066 1476>
LayerCount: 2
Fore
SplineSet
587 1550 m 1,0,-1
 597 1550 l 1,1,-1
 597 1066 l 1,2,-1
 441 992 l 1,3,-1
 431 992 l 1,4,-1
 431 1476 l 1,5,-1
 587 1550 l 1,0,-1
306 1550 m 1,6,-1
 316 1550 l 1,7,-1
 316 1066 l 1,8,-1
 160 992 l 1,9,-1
 150 992 l 1,10,-1
 150 1476 l 1,11,-1
 306 1550 l 1,6,-1
EndSplineSet
Validated: 3073
EndChar

StartChar: numbersign
Encoding: 35 35 6
Width: 1368
GlyphClass: 2
Flags: W
HStem: 520 182<231 448 630 738 920 1137> 810 182<231 448 630 738 920 1137>
VStem: 448 182<303 520 702 810 992 1209> 738 182<303 520 702 810 992 1209>
LayerCount: 2
Fore
SplineSet
458 222 m 1,0,-1
 448 222 l 1,1,-1
 448 520 l 1,2,-1
 150 520 l 1,3,-1
 150 530 l 1,4,-1
 231 702 l 1,5,-1
 448 702 l 1,6,-1
 448 810 l 1,7,-1
 150 810 l 1,8,-1
 150 820 l 1,9,-1
 231 992 l 1,10,-1
 448 992 l 1,11,-1
 448 1209 l 1,12,-1
 620 1290 l 1,13,-1
 630 1290 l 1,14,-1
 630 992 l 1,15,-1
 738 992 l 1,16,-1
 738 1209 l 1,17,-1
 910 1290 l 1,18,-1
 920 1290 l 1,19,-1
 920 992 l 1,20,-1
 1218 992 l 1,21,-1
 1218 982 l 1,22,-1
 1137 810 l 1,23,-1
 920 810 l 1,24,-1
 920 702 l 1,25,-1
 1218 702 l 1,26,-1
 1218 692 l 1,27,-1
 1137 520 l 1,28,-1
 920 520 l 1,29,-1
 920 303 l 1,30,-1
 748 222 l 1,31,-1
 738 222 l 1,32,-1
 738 520 l 1,33,-1
 630 520 l 1,34,-1
 630 303 l 1,35,-1
 458 222 l 1,0,-1
630 702 m 1,36,-1
 738 702 l 1,37,-1
 738 810 l 1,38,-1
 630 810 l 1,39,-1
 630 702 l 1,36,-1
EndSplineSet
Validated: 3073
EndChar

StartChar: dollar
Encoding: 36 36 7
Width: 1329
GlyphClass: 2
Flags: W
HStem: 748 181<723 855.385>
VStem: 160 200<259.504 460> 250 200<1000.85 1336.7> 607 116<-190 -12.9773 95 748 936 1413 1521.04 1700> 880 200<1157 1340.04> 969 200<257.281 638.234>
LayerCount: 2
Fore
SplineSet
607 -240 m 1,0,-1
 607 -18 l 1,1,2
 414 -1 414 -1 295 125 c 0,3,4
 160 268 160 268 160 460 c 1,5,-1
 350 550 l 1,6,-1
 360 550 l 1,7,-1
 360 398 l 2,8,9
 360 276 360 276 432 193 c 0,10,11
 502 112 502 112 607 95 c 1,12,-1
 607 754 l 1,13,14
 461 771 461 771 350 871 c 0,15,16
 250 961 250 961 250 1132 c 0,17,18
 250 1334 250 1334 374 1434 c 0,19,20
 472 1513 472 1513 607 1527 c 1,21,-1
 607 1700 l 1,22,-1
 713 1750 l 1,23,-1
 723 1750 l 1,24,-1
 723 1527 l 1,25,26
 858 1513 858 1513 956 1434 c 0,27,28
 1080 1334 1080 1334 1080 1157 c 1,29,-1
 890 1067 l 1,30,-1
 880 1067 l 1,31,-1
 880 1195 l 2,32,33
 880 1308 880 1308 815 1365 c 0,34,35
 774 1401 774 1401 723 1413 c 1,36,-1
 723 929 l 1,37,38
 923 917 923 917 1035 817 c 0,39,40
 1169 697 1169 697 1169 472 c 0,41,42
 1169 267 1169 267 1035 125 c 0,43,44
 916 -1 916 -1 723 -18 c 1,45,-1
 723 -190 l 1,46,-1
 617 -240 l 1,47,-1
 607 -240 l 1,0,-1
607 936 m 1,48,-1
 607 1414 l 1,49,50
 549 1401 549 1401 509 1359 c 0,51,52
 450 1297 450 1297 450 1147 c 0,53,54
 450 1048 450 1048 495 998 c 0,55,56
 538 950 538 950 607 936 c 1,48,-1
723 748 m 1,57,-1
 723 95 l 1,58,59
 827 112 827 112 898 193 c 128,-1,60
 969 274 969 274 969 470 c 0,61,62
 969 588 969 588 911 657 c 0,63,64
 846 734 846 734 723 748 c 1,57,-1
EndSplineSet
Validated: 1
EndChar

StartChar: percent
Encoding: 37 37 8
Width: 2144
GlyphClass: 2
Flags: W
HStem: -40 21G<746.529 807.317> -20 110<1438.31 1720.19> 670 110<1437.81 1719.69> 730 110<424.306 706.186> 1420 110<423.814 705.694> 1530 20G<1346.68 1407.47>
VStem: 150 200<948.467 1311.05> 780 200<948.95 1311.53> 1164 200<198.467 561.05> 1794 200<198.95 561.533>
DStem2: 647 28 798 -40 0.422266 0.906472<2.12205 1679.04>
LayerCount: 2
Fore
SplineSet
1794 380 m 128,-1,1
 1794 563 1794 563 1731.5 616.5 c 128,-1,2
 1669 670 1669 670 1579 670 c 128,-1,3
 1489 670 1489 670 1426.5 616.5 c 128,-1,4
 1364 563 1364 563 1364 380 c 128,-1,5
 1364 197 1364 197 1426.5 143.5 c 128,-1,6
 1489 90 1489 90 1579 90 c 128,-1,7
 1669 90 1669 90 1731.5 143.5 c 128,-1,0
 1794 197 1794 197 1794 380 c 128,-1,1
1164 380 m 0,8,9
 1164 545 1164 545 1288 667 c 0,10,11
 1404 780 1404 780 1579 780 c 0,12,13
 1752 780 1752 780 1870 667 c 0,14,15
 1994 547 1994 547 1994 380 c 0,16,17
 1994 215 1994 215 1870 93 c 0,18,19
 1754 -20 1754 -20 1579 -20 c 0,20,21
 1406 -20 1406 -20 1288 93 c 0,22,23
 1164 213 1164 213 1164 380 c 0,8,9
150 1130 m 0,24,25
 150 1295 150 1295 274 1417 c 0,26,27
 390 1530 390 1530 565 1530 c 0,28,29
 738 1530 738 1530 856 1417 c 0,30,31
 980 1297 980 1297 980 1130 c 0,32,33
 980 965 980 965 856 843 c 0,34,35
 740 730 740 730 565 730 c 0,36,37
 392 730 392 730 274 843 c 0,38,39
 150 963 150 963 150 1130 c 0,24,25
780 1130 m 128,-1,41
 780 1313 780 1313 717.5 1366.5 c 128,-1,42
 655 1420 655 1420 565 1420 c 128,-1,43
 475 1420 475 1420 412.5 1366.5 c 128,-1,44
 350 1313 350 1313 350 1130 c 128,-1,45
 350 947 350 947 412.5 893.5 c 128,-1,46
 475 840 475 840 565 840 c 128,-1,47
 655 840 655 840 717.5 893.5 c 128,-1,40
 780 947 780 947 780 1130 c 128,-1,41
788 -40 m 1,48,-1
 647 28 l 1,49,-1
 1356 1550 l 1,50,-1
 1366 1550 l 1,51,-1
 1507 1482 l 1,52,-1
 798 -40 l 1,53,-1
 788 -40 l 1,48,-1
EndSplineSet
Validated: 1
EndChar

StartChar: ampersand
Encoding: 38 38 9
Width: 1684
GlyphClass: 2
Flags: W
HStem: -40 188<493.023 669> 806 109<541.643 680> 1420 110<527.462 799.771>
VStem: 160 200<283.366 654.568> 250 200<1000.21 1336.88> 880 200<1137 1334.81>
DStem2: 834 915 680 806 0.641913 -0.766778<-37.2326 470.664 588.287 1081.99> 1136 554 1208 469 0.720802 0.693141<0 432.611>
LayerCount: 2
Fore
SplineSet
360 454 m 0,0,1
 360 330 360 330 432 243 c 0,2,3
 511 148 511 148 660 148 c 0,4,5
 765 148 765 148 994 428 c 1,6,-1
 680 806 l 1,7,8
 559 804 559 804 462 724 c 0,9,10
 360 640 360 640 360 454 c 0,0,1
669 -40 m 1,11,12
 425 -40 425 -40 277 122 c 24,13,14
 160 251 160 251 160 468 c 0,15,16
 160 665 160 665 308 801 c 0,17,18
 368 856 368 856 427 876 c 1,19,20
 250 962 250 962 250 1137 c 0,21,22
 250 1333 250 1333 374 1434 c 0,23,24
 492 1530 492 1530 665 1530 c 0,25,26
 842 1530 842 1530 956 1434 c 0,27,28
 1080 1330 1080 1330 1080 1137 c 1,29,-1
 890 1047 l 1,30,-1
 880 1047 l 9,31,-1
 880 1193 l 18,32,33
 880 1309 880 1309 815 1365 c 0,34,35
 753 1420 753 1420 665 1420 c 0,36,37
 567 1420 567 1420 509 1359 c 0,38,39
 450 1298 450 1298 450 1137 c 0,40,41
 450 1046 450 1046 495 998 c 0,42,43
 557 932 557 932 653 923.5 c 128,-1,44
 749 915 749 915 834 915 c 1,45,-1
 1136 554 l 1,46,-1
 1440 862 l 1,47,-1
 1450 862 l 1,48,-1
 1555 812 l 1,49,-1
 1208 469 l 1,50,-1
 1564 43 l 1,51,-1
 1390 -39 l 1,52,-1
 1380 -39 l 1,53,-1
 1066 342 l 1,54,-1
 669 -40 l 1,11,12
EndSplineSet
Validated: 1
EndChar

StartChar: quotesingle
Encoding: 39 39 10
Width: 466
GlyphClass: 2
Flags: W
HStem: 992 558
VStem: 150 166<1066 1476>
LayerCount: 2
Fore
SplineSet
306 1550 m 1,0,-1
 316 1550 l 1,1,-1
 316 1066 l 1,2,-1
 160 992 l 1,3,-1
 150 992 l 1,4,-1
 150 1476 l 1,5,-1
 306 1550 l 1,0,-1
EndSplineSet
Validated: 3073
EndChar

StartChar: parenleft
Encoding: 40 40 11
Width: 755
GlyphClass: 2
Flags: W
HStem: -240 110<539.998 705> 1640 110<539.998 705>
VStem: 200 200<40.8711 1469.13>
LayerCount: 2
Fore
SplineSet
705 -240 m 17,0,1
 477 -240 477 -240 335 -95 c 0,2,3
 200 43 200 43 200 260 c 2,4,-1
 200 1250 l 2,5,6
 200 1467 200 1467 335 1605 c 0,7,8
 477 1750 477 1750 705 1750 c 9,9,-1
 705 1640 l 17,10,11
 559 1639 559 1639 472 1537 c 0,12,13
 400 1452 400 1452 400 1320 c 2,14,-1
 400 190 l 2,15,16
 400 58 400 58 472 -27 c 0,17,18
 559 -129 559 -129 705 -130 c 9,19,-1
 705 -240 l 17,0,1
EndSplineSet
Validated: 1
EndChar

StartChar: parenright
Encoding: 41 41 12
Width: 755
GlyphClass: 2
Flags: W
HStem: -240 110<50 215.002> 1640 110<50 215.002>
VStem: 355 200<40.8711 1469.13>
LayerCount: 2
Fore
SplineSet
50 -240 m 9,0,-1
 50 -130 l 17,1,2
 196 -129 196 -129 283 -27 c 0,3,4
 355 58 355 58 355 190 c 2,5,-1
 355 1320 l 2,6,7
 355 1452 355 1452 283 1537 c 0,8,9
 196 1639 196 1639 50 1640 c 9,10,-1
 50 1750 l 17,11,12
 278 1750 278 1750 420 1605 c 0,13,14
 555 1467 555 1467 555 1250 c 2,15,-1
 555 260 l 2,16,17
 555 43 555 43 420 -95 c 0,18,19
 278 -240 278 -240 50 -240 c 9,0,-1
EndSplineSet
Validated: 1
EndChar

StartChar: asterisk
Encoding: 42 42 13
Width: 1183
GlyphClass: 2
Flags: W
HStem: 1530 20G<629.531 682>
VStem: 500 182<717 955 1231 1469>
LayerCount: 2
Fore
SplineSet
682 1550 m 1,0,-1
 682 1231 l 1,1,-1
 871 1360 l 1,2,-1
 1028 1251 l 1,3,-1
 1033 1243 l 1,4,-1
 753 1093 l 1,5,-1
 1033 943 l 1,6,-1
 1028 935 l 1,7,-1
 871 826 l 1,8,-1
 682 955 l 1,9,-1
 682 717 l 1,10,-1
 510 636 l 1,11,-1
 500 636 l 1,12,-1
 500 955 l 1,13,-1
 311 826 l 1,14,-1
 155 935 l 1,15,-1
 150 943 l 1,16,-1
 429 1093 l 1,17,-1
 150 1243 l 1,18,-1
 155 1251 l 1,19,-1
 311 1360 l 1,20,-1
 500 1231 l 1,21,-1
 500 1469 l 1,22,-1
 672 1550 l 1,23,-1
 682 1550 l 1,0,-1
EndSplineSet
Validated: 1
EndChar

StartChar: plus
Encoding: 43 43 14
Width: 1214
GlyphClass: 2
Flags: W
HStem: 664 182<231 516 698 983>
VStem: 516 182<379 664 846 1131>
LayerCount: 2
Fore
SplineSet
698 1212 m 1,0,-1
 698 846 l 1,1,-1
 1064 846 l 1,2,-1
 1064 836 l 1,3,-1
 983 664 l 1,4,-1
 698 664 l 1,5,-1
 698 379 l 1,6,-1
 526 298 l 1,7,-1
 516 298 l 1,8,-1
 516 664 l 1,9,-1
 150 664 l 1,10,-1
 150 674 l 1,11,-1
 231 846 l 1,12,-1
 516 846 l 1,13,-1
 516 1131 l 1,14,-1
 688 1212 l 1,15,-1
 698 1212 l 1,0,-1
EndSplineSet
Validated: 3073
EndChar

StartChar: comma
Encoding: 44 44 15
Width: 609
GlyphClass: 2
Flags: W
HStem: -286 564
VStem: 284 175<-116.943 108.616>
LayerCount: 2
Fore
SplineSet
340 278 m 1,0,-1
 350 278 l 1,1,2
 459 171 459 171 459 34 c 0,3,4
 459 -157 459 -157 214 -286 c 1,5,-1
 171 -236 l 1,6,7
 284 -121 284 -121 284 -20 c 0,8,9
 284 101 284 101 150 188 c 1,10,-1
 340 278 l 1,0,-1
EndSplineSet
Validated: 1
EndChar

StartChar: hyphen
Encoding: 45 45 16
Width: 1214
GlyphClass: 2
Flags: W
HStem: 664 182<231 983>
LayerCount: 2
Fore
SplineSet
150 664 m 1,0,-1
 150 674 l 1,1,-1
 231 846 l 1,2,-1
 1064 846 l 1,3,-1
 1064 836 l 1,4,-1
 983 664 l 1,5,-1
 150 664 l 1,0,-1
EndSplineSet
Validated: 3073
EndChar

StartChar: period
Encoding: 46 46 17
Width: 600
GlyphClass: 2
Flags: W
HStem: -20 245<216.097 383.903>
VStem: 180 240<17.1285 187.871>
LayerCount: 2
Fore
SplineSet
180 102.5 m 128,-1,1
 180 153 180 153 215 189 c 128,-1,2
 250 225 250 225 300 225 c 128,-1,3
 350 225 350 225 385 189 c 128,-1,4
 420 153 420 153 420 102.5 c 128,-1,5
 420 52 420 52 385 16 c 128,-1,6
 350 -20 350 -20 300 -20 c 128,-1,7
 250 -20 250 -20 215 16 c 128,-1,0
 180 52 180 52 180 102.5 c 128,-1,1
EndSplineSet
Validated: 1
EndChar

StartChar: slash
Encoding: 47 47 18
Width: 974
GlyphClass: 2
Flags: W
DStem2: 10 -72 161 -140 0.422626 0.906304<2.18787 1899.6>
LayerCount: 2
Fore
SplineSet
151 -140 m 1,0,-1
 10 -72 l 1,1,-1
 812 1650 l 1,2,-1
 822 1650 l 1,3,-1
 964 1582 l 1,4,-1
 161 -140 l 1,5,-1
 151 -140 l 1,0,-1
EndSplineSet
Validated: 3073
EndChar

StartChar: zero
Encoding: 48 48 19
Width: 1410
GlyphClass: 2
Flags: W
HStem: -20 110<539.842 870.158> 1420 110<539.842 870.158>
VStem: 200 200<260.871 1249.13> 1010 200<260.871 1249.62>
LayerCount: 2
Fore
SplineSet
400 410 m 2,0,1
 400 276 400 276 472 193 c 0,2,3
 561 90 561 90 705 90 c 128,-1,4
 849 90 849 90 938 193 c 0,5,6
 1010 276 1010 276 1010 410 c 2,7,-1
 1010 1100 l 2,8,9
 1010 1234 1010 1234 938 1317 c 0,10,11
 849 1420 849 1420 705 1420 c 128,-1,12
 561 1420 561 1420 472 1317 c 0,13,14
 400 1234 400 1234 400 1100 c 2,15,-1
 400 410 l 2,0,1
200 480 m 2,16,-1
 200 1030 l 2,17,18
 200 1247 200 1247 335 1385 c 0,19,20
 477 1530 477 1530 705 1530 c 128,-1,21
 933 1530 933 1530 1075 1385 c 0,22,23
 1210 1248 1210 1248 1210 1030 c 2,24,-1
 1210 480 l 2,25,26
 1210 263 1210 263 1075 125 c 0,27,28
 933 -20 933 -20 705 -20 c 128,-1,29
 477 -20 477 -20 335 125 c 0,30,31
 200 263 200 263 200 480 c 2,16,-1
EndSplineSet
Validated: 1
EndChar

StartChar: one
Encoding: 49 49 20
Width: 714
GlyphClass: 2
Flags: W
HStem: -40 21G<264 316.222> 1530 20G<412.068 464>
VStem: 264 200<50 1334>
LayerCount: 2
Fore
SplineSet
264 -40 m 1,0,-1
 264 1334 l 1,1,-1
 20 1200 l 1,2,-1
 20 1343 l 1,3,-1
 454 1550 l 1,4,-1
 464 1550 l 1,5,-1
 464 50 l 1,6,-1
 274 -40 l 1,7,-1
 264 -40 l 1,0,-1
EndSplineSet
Validated: 1
EndChar

StartChar: two
Encoding: 50 50 21
Width: 1333
GlyphClass: 2
Flags: W
HStem: 0 110<366 1126> 1420 110<501.944 832.25>
VStem: 160 203<896.83 1255.43> 965 204<878.36 1253.71>
LayerCount: 2
Fore
SplineSet
150 0 m 1,0,-1
 150 10 l 1,1,-1
 197 110 l 1,2,-1
 734 624 l 17,3,4
 965 858 965 858 965 1060 c 0,5,6
 965 1236 965 1236 898 1317 c 0,7,8
 813 1420 813 1420 665 1420 c 0,9,10
 522 1420 522 1420 432 1317 c 0,11,12
 363 1237 363 1237 363 1083 c 0,13,14
 363 975 363 975 399 914 c 1,15,-1
 231 833 l 1,16,-1
 221 833 l 1,17,18
 160 941 160 941 160 1070 c 0,19,20
 160 1242 160 1242 295 1385 c 0,21,22
 432 1530 432 1530 665 1530 c 128,-1,23
 898 1530 898 1530 1035 1385 c 0,24,25
 1169 1243 1169 1243 1169 1037 c 0,26,27
 1168 812 1168 812 899 564 c 9,28,-1
 366 110 l 1,29,-1
 1173 110 l 1,30,-1
 1173 100 l 1,31,-1
 1126 0 l 1,32,-1
 150 0 l 1,0,-1
EndSplineSet
Validated: 1
EndChar

StartChar: three
Encoding: 51 51 22
Width: 1329
GlyphClass: 2
Flags: W
HStem: -20 110<501.267 828.056> 806 104<739 848.255> 1400 110<296 814>
VStem: 160 200<263.332 480> 969 200<257.525 683.846>
LayerCount: 2
Fore
SplineSet
160 480 m 1,0,-1
 350 570 l 1,1,-1
 360 570 l 9,2,-1
 360 410 l 18,3,4
 360 279 360 279 432 193 c 0,5,6
 519 90 519 90 665 90 c 0,7,8
 808 90 808 90 898 193 c 0,9,10
 969 274 969 274 969 470 c 0,11,12
 969 644 969 644 911 712 c 0,13,14
 829 806 829 806 664 806 c 0,15,16
 514 806 514 806 463 741 c 1,17,-1
 814 1400 l 1,18,-1
 249 1400 l 1,19,-1
 249 1410 l 1,20,-1
 296 1510 l 1,21,-1
 1082 1510 l 1,22,-1
 739 910 l 1,23,24
 915 909 915 909 1033 805 c 0,25,26
 1169 685 1169 685 1169 472 c 0,27,28
 1169 268 1169 268 1035 125 c 0,29,30
 898 -20 898 -20 665 -20 c 128,-1,31
 432 -20 432 -20 295 125 c 0,32,33
 160 268 160 268 160 480 c 1,0,-1
EndSplineSet
Validated: 1
EndChar

StartChar: four
Encoding: 52 52 23
Width: 1188
GlyphClass: 2
Flags: W
HStem: -40 21G<738 790.222> 522 110<190 738 938 1031> 1530 20G<885.778 938>
VStem: 738 200<50 522 632 1307>
LayerCount: 2
Fore
SplineSet
738 -40 m 1,0,-1
 738 522 l 1,1,-1
 5 522 l 1,2,-1
 5 532 l 1,3,-1
 52 632 l 1,4,-1
 738 1460 l 1,5,-1
 928 1550 l 1,6,-1
 938 1550 l 1,7,-1
 938 632 l 1,8,-1
 1078 632 l 1,9,-1
 1078 622 l 1,10,-1
 1031 522 l 1,11,-1
 938 522 l 1,12,-1
 938 50 l 1,13,-1
 748 -40 l 1,14,-1
 738 -40 l 1,0,-1
738 632 m 1,15,-1
 738 1307 l 1,16,-1
 190 632 l 1,17,-1
 738 632 l 1,15,-1
EndSplineSet
Validated: 1
EndChar

StartChar: five
Encoding: 53 53 24
Width: 1329
GlyphClass: 2
Flags: W
HStem: -20 110<501.267 828.056> 826 110<496.148 826.109> 1400 110<559 1045>
VStem: 160 200<263.332 480> 969 200<257.525 682.084>
DStem2: 232 808 429 882 0.231433 0.972851<117.583 651.606>
LayerCount: 2
Fore
SplineSet
160 480 m 1,0,-1
 350 570 l 1,1,-1
 360 570 l 9,2,-1
 360 410 l 18,3,4
 360 279 360 279 432 193 c 0,5,6
 519 90 519 90 665 90 c 0,7,8
 808 90 808 90 898 193 c 0,9,10
 969 274 969 274 969 470 c 0,11,12
 969 645 969 645 896 723 c 0,13,14
 801 826 801 826 663 826 c 0,15,16
 516 826 516 826 430 723 c 1,17,-1
 232 808 l 1,18,-1
 399 1510 l 1,19,-1
 1092 1510 l 1,20,-1
 1092 1500 l 1,21,-1
 1045 1400 l 1,22,-1
 559 1400 l 1,23,-1
 429 882 l 1,24,25
 540 936 540 936 663 936 c 0,26,27
 890 936 890 936 1027 817 c 0,28,29
 1169 694 1169 694 1169 472 c 0,30,31
 1169 268 1169 268 1035 125 c 0,32,33
 898 -20 898 -20 665 -20 c 128,-1,34
 432 -20 432 -20 295 125 c 0,35,36
 160 268 160 268 160 480 c 1,0,-1
EndSplineSet
Validated: 1
EndChar

StartChar: six
Encoding: 54 54 25
Width: 1410
GlyphClass: 2
Flags: W
HStem: -20 110<541.493 867.605> 852 110<540.243 868.507> 1420 110<541.277 851.653>
VStem: 200 200<261.418 707.964 844 1246.67> 990 194<1118 1271.86> 1010 200<260.169 683.121>
LayerCount: 2
Fore
SplineSet
1184 1118 m 1,0,-1
 1000 1030 l 1,1,-1
 990 1030 l 1,2,3
 990 1232 990 1232 917 1317 c 0,4,5
 827 1420 827 1420 705 1420 c 0,6,7
 560 1420 560 1420 471 1317 c 0,8,9
 400 1236 400 1236 400 1100 c 2,10,-1
 400 844 l 1,11,12
 530 962 530 962 705 962 c 0,13,14
 938 962 938 962 1075 817 c 0,15,16
 1210 674 1210 674 1210 472 c 0,17,18
 1210 268 1210 268 1075 125 c 0,19,20
 938 -20 938 -20 705 -20 c 128,-1,21
 472 -20 472 -20 335 125 c 0,22,23
 200 268 200 268 200 470 c 2,24,-1
 200 1030 l 18,25,26
 200 1242 200 1242 335 1385 c 0,27,28
 472 1530 472 1530 705 1530 c 0,29,30
 926 1530 926 1530 1055 1395.5 c 128,-1,31
 1184 1261 1184 1261 1184 1118 c 1,0,-1
705 852 m 128,-1,33
 560 852 560 852 472 749 c 0,34,35
 400 668 400 668 400 470 c 0,36,37
 400 278 400 278 472 193 c 0,38,39
 560 90 560 90 705 90 c 0,40,41
 846 90 846 90 938 193 c 0,42,43
 1010 274 1010 274 1010 470 c 0,44,45
 1010 665 1010 665 938 749 c 0,46,32
 850 852 850 852 705 852 c 128,-1,33
EndSplineSet
Validated: 1
EndChar

StartChar: seven
Encoding: 55 55 26
Width: 1034
GlyphClass: 2
Flags: W
HStem: -40 21G<220 272.453> 1400 110<97 747>
DStem2: 220 -40 455 66 0.34368 0.939087<180.308 1533.4>
LayerCount: 2
Fore
SplineSet
220 -40 m 1,0,-1
 747 1400 l 1,1,-1
 50 1400 l 1,2,-1
 50 1410 l 1,3,-1
 97 1510 l 1,4,-1
 984 1510 l 1,5,-1
 984 1500 l 1,6,-1
 455 66 l 1,7,-1
 230 -40 l 1,8,-1
 220 -40 l 1,0,-1
EndSplineSet
Validated: 1
EndChar

StartChar: eight
Encoding: 56 56 27
Width: 1328
GlyphClass: 2
Flags: W
HStem: -20 110<500.709 827.056> 784 110<519.5 808.5> 1420 110<526.583 801.417>
VStem: 160 200<257.525 667.112> 249 200<969.475 1335.16> 879 200<969.475 1336.59> 968 200<257.525 667.112>
LayerCount: 2
Fore
SplineSet
160 472 m 0,0,1
 160 668 160 668 312 810 c 0,2,3
 344 840 344 840 388 863 c 1,4,5
 249 975 249 975 249 1132 c 0,6,7
 249 1332 249 1332 373 1434 c 0,8,9
 491 1530 491 1530 664 1530 c 128,-1,10
 837 1530 837 1530 955 1434 c 0,11,12
 1079 1333 1079 1333 1079 1132 c 0,13,14
 1079 975 1079 975 940 863 c 1,15,16
 984 840 984 840 1016 810 c 0,17,18
 1168 668 1168 668 1168 472 c 0,19,20
 1168 268 1168 268 1034 125 c 0,21,22
 897 -20 897 -20 664 -20 c 0,23,24
 430 -20 430 -20 294 125 c 0,25,26
 160 268 160 268 160 472 c 0,0,1
664 90 m 128,-1,28
 807 90 807 90 897 193 c 0,29,30
 968 274 968 274 968 470 c 0,31,32
 968 622 968 622 910 690 c 0,33,34
 830 784 830 784 664 784 c 128,-1,35
 498 784 498 784 418 690 c 0,36,37
 360 622 360 622 360 470 c 0,38,39
 360 274 360 274 431 193 c 0,40,27
 521 90 521 90 664 90 c 128,-1,28
664 1420 m 128,-1,42
 567 1420 567 1420 508 1359 c 128,-1,43
 449 1298 449 1298 449 1147 c 0,44,45
 449 1011 449 1011 494 961 c 0,46,47
 554 894 554 894 664 894 c 128,-1,48
 774 894 774 894 834 961 c 0,49,50
 879 1011 879 1011 879 1147 c 0,51,52
 879 1298 879 1298 820 1359 c 128,-1,41
 761 1420 761 1420 664 1420 c 128,-1,42
EndSplineSet
Validated: 1
EndChar

StartChar: nine
Encoding: 57 57 28
Width: 1410
GlyphClass: 2
Flags: W
HStem: -20 110<540.51 874.045> 548 110<541.493 870.306> 1420 110<542.169 868.507>
VStem: 200 200<238.912 392 826.879 1249.39> 1010 200<263.332 666 802.72 1248.58>
LayerCount: 2
Fore
SplineSet
206 392 m 1,0,-1
 390 480 l 1,1,-1
 400 480 l 1,2,3
 400 277 400 277 473 193 c 0,4,5
 563 90 563 90 705 90 c 0,6,7
 860 90 860 90 939 193 c 0,8,9
 1010 286 1010 286 1010 410 c 2,10,-1
 1010 666 l 1,11,12
 884 548 884 548 705 548 c 0,13,14
 472 548 472 548 335 693 c 0,15,16
 200 836 200 836 200 1038 c 0,17,18
 200 1242 200 1242 335 1385 c 0,19,20
 472 1530 472 1530 705 1530 c 128,-1,21
 938 1530 938 1530 1075 1385 c 0,22,23
 1210 1242 1210 1242 1210 1040 c 2,24,-1
 1210 480 l 18,25,26
 1210 268 1210 268 1075 125 c 0,27,28
 938 -20 938 -20 705 -20 c 0,29,30
 464 -20 464 -20 335 114.5 c 128,-1,31
 206 249 206 249 206 392 c 1,0,-1
705 658 m 0,32,33
 848 658 848 658 938 761 c 0,34,35
 1010 844 1010 844 1010 1040 c 0,36,37
 1010 1234 1010 1234 938 1317 c 0,38,39
 850 1420 850 1420 705 1420 c 0,40,41
 563 1420 563 1420 472 1317 c 0,42,43
 400 1234 400 1234 400 1040 c 0,44,45
 400 845 400 845 472 761 c 0,46,47
 560 658 560 658 705 658 c 0,32,33
EndSplineSet
Validated: 1
EndChar

StartChar: colon
Encoding: 58 58 29
Width: 600
GlyphClass: 2
Flags: W
HStem: -20 245<216.097 383.903> 631 245<216.097 383.903>
VStem: 180 240<17.1285 187.871 668.129 838.871>
LayerCount: 2
Fore
SplineSet
180 753.5 m 128,-1,1
 180 804 180 804 215 840 c 128,-1,2
 250 876 250 876 300 876 c 128,-1,3
 350 876 350 876 385 840 c 128,-1,4
 420 804 420 804 420 753.5 c 128,-1,5
 420 703 420 703 385 667 c 128,-1,6
 350 631 350 631 300 631 c 128,-1,7
 250 631 250 631 215 667 c 128,-1,0
 180 703 180 703 180 753.5 c 128,-1,1
180 102.5 m 128,-1,9
 180 153 180 153 215 189 c 128,-1,10
 250 225 250 225 300 225 c 128,-1,11
 350 225 350 225 385 189 c 128,-1,12
 420 153 420 153 420 102.5 c 128,-1,13
 420 52 420 52 385 16 c 128,-1,14
 350 -20 350 -20 300 -20 c 128,-1,15
 250 -20 250 -20 215 16 c 128,-1,8
 180 52 180 52 180 102.5 c 128,-1,9
EndSplineSet
Validated: 1
EndChar

StartChar: semicolon
Encoding: 59 59 30
Width: 600
GlyphClass: 2
Flags: W
HStem: 631 245<216.097 383.903>
VStem: 180 240<668.129 838.871> 275 175<-116.943 108.616>
LayerCount: 2
Fore
SplineSet
205 -286 m 1,0,1
 162 -236 l 1,2,3
 275 -121 275 -121 275 -20 c 0,4,5
 275 101 275 101 141 188 c 1,6,7
 331 278 l 1,8,-1
 341 278 l 1,9,10
 450 171 450 171 450 34 c 0,11,12
 450 -157 450 -157 205 -286 c 1,0,1
180 753.5 m 128,-1,14
 180 804 180 804 215 840 c 128,-1,15
 250 876 250 876 300 876 c 128,-1,16
 350 876 350 876 385 840 c 128,-1,17
 420 804 420 804 420 753.5 c 128,-1,18
 420 703 420 703 385 667 c 128,-1,19
 350 631 350 631 300 631 c 128,-1,20
 250 631 250 631 215 667 c 128,-1,13
 180 703 180 703 180 753.5 c 128,-1,14
EndSplineSet
Validated: 1
EndChar

StartChar: less
Encoding: 60 60 31
Width: 1338
GlyphClass: 2
Flags: W
DStem2: 369 787 150 664 0.919983 -0.391958<0 831.535>
LayerCount: 2
Fore
SplineSet
150 664 m 1,0,-1
 150 674 l 1,1,-1
 232 847 l 1,2,-1
 1089 1215 l 1,3,-1
 1138 1112 l 1,4,-1
 1138 1102 l 1,5,-1
 369 787 l 1,6,-1
 1138 461 l 1,7,-1
 1138 451 l 1,8,-1
 1056 278 l 1,9,-1
 150 664 l 1,0,-1
EndSplineSet
Validated: 1
EndChar

StartChar: equal
Encoding: 61 61 32
Width: 1214
GlyphClass: 2
Flags: W
HStem: 482 182<231 983> 846 182<231 983>
LayerCount: 2
Fore
SplineSet
150 846 m 1,0,-1
 150 856 l 1,1,-1
 231 1028 l 1,2,-1
 1064 1028 l 1,3,-1
 1064 1018 l 1,4,-1
 983 846 l 1,5,-1
 150 846 l 1,0,-1
150 482 m 1,6,-1
 150 492 l 1,7,-1
 231 664 l 1,8,-1
 1064 664 l 1,9,-1
 1064 654 l 1,10,-1
 983 482 l 1,11,-1
 150 482 l 1,6,-1
EndSplineSet
Validated: 3073
EndChar

StartChar: greater
Encoding: 62 62 33
Width: 1338
GlyphClass: 2
Flags: W
DStem2: 282 1215 200 1032 0.919983 -0.391958<0 831.535> 200 391 249 278 0.918868 0.394566<0.438527 830.897>
LayerCount: 2
Fore
SplineSet
1188 829 m 1,0,-1
 1188 819 l 1,1,-1
 1106 646 l 1,2,-1
 249 278 l 1,3,-1
 200 381 l 1,4,-1
 200 391 l 1,5,-1
 969 706 l 1,6,-1
 200 1032 l 1,7,-1
 200 1042 l 1,8,-1
 282 1215 l 1,9,-1
 1188 829 l 1,0,-1
EndSplineSet
Validated: 1
EndChar

StartChar: question
Encoding: 63 63 34
Width: 1300
GlyphClass: 2
Flags: W
HStem: -20 245<561.097 728.903> 1420 110<492.621 820.268>
VStem: 150 200<895.151 1255.04> 525 240<17.1285 187.871> 560 125<427 522.035> 952 198<868.498 1264.87>
LayerCount: 2
Fore
SplineSet
525 102.5 m 128,-1,1
 525 153 525 153 560 189 c 128,-1,2
 595 225 595 225 645 225 c 128,-1,3
 695 225 695 225 730 189 c 128,-1,4
 765 153 765 153 765 102.5 c 128,-1,5
 765 52 765 52 730 16 c 128,-1,6
 695 -20 695 -20 645 -20 c 128,-1,7
 595 -20 595 -20 560 16 c 128,-1,0
 525 52 525 52 525 102.5 c 128,-1,1
211 833 m 1,8,9
 150 941 150 941 150 1070 c 0,10,11
 150 1241 150 1241 285 1385 c 0,12,13
 422 1530 422 1530 655 1530 c 0,14,15
 891 1530 891 1530 1025 1385 c 0,16,17
 1150 1250 1150 1250 1150 1050 c 0,18,19
 1150 774 1150 774 821 591 c 24,20,21
 688 517 688 517 685 427 c 1,22,-1
 570 372 l 1,23,-1
 560 372 l 1,24,25
 561 566 561 566 704 657 c 0,26,27
 952 815 952 815 952 1051 c 0,28,29
 952 1248 952 1248 882 1325 c 0,30,31
 796 1420 796 1420 655 1420 c 0,32,33
 515 1420 515 1420 422 1317 c 0,34,35
 350 1237 350 1237 350 1047 c 0,36,37
 350 980 350 980 389 914 c 1,38,-1
 221 833 l 1,39,-1
 211 833 l 1,8,9
EndSplineSet
Validated: 1
EndChar

StartChar: at
Encoding: 64 64 35
Width: 1370
GlyphClass: 2
Flags: W
HStem: -430 110<519.998 685> -40 110<770.453 990> 559 110<771.047 990> 1010 110<519.842 845.756>
VStem: 180 200<-149.129 839.129> 489 200<148.541 481.572> 990 200<70 559 669 839.621>
LayerCount: 2
Fore
SplineSet
990 559 m 1,0,1
 817 558 817 558 753 503.5 c 128,-1,2
 689 449 689 449 689 317 c 0,3,4
 689 183 689 183 754 125 c 0,5,6
 816 70 816 70 990 70 c 1,7,-1
 990 559 l 1,0,1
1000 -40 m 1,8,-1
 904 -40 l 1,9,10
 707 -27 707 -27 611 50 c 0,11,12
 489 148 489 148 489 300 c 0,13,14
 489 475 489 475 613 573 c 0,15,16
 718 656 718 656 904 669 c 1,17,-1
 990 669 l 1,18,19
 990 828 990 828 918 907 c 0,20,21
 823 1010 823 1010 685 1010 c 0,22,23
 541 1010 541 1010 452 907 c 0,24,25
 380 825 380 825 380 690 c 2,26,-1
 380 0 l 2,27,28
 380 -135 380 -135 452 -217 c 0,29,30
 541 -320 541 -320 685 -320 c 1,31,-1
 685 -430 l 1,32,33
 457 -430 457 -430 315 -285 c 0,34,35
 180 -147 180 -147 180 70 c 2,36,-1
 180 620 l 2,37,38
 180 837 180 837 315 975 c 0,39,40
 457 1120 457 1120 685 1120 c 128,-1,41
 913 1120 913 1120 1055 975 c 0,42,43
 1190 838 1190 838 1190 620 c 2,44,-1
 1190 50 l 1,45,-1
 1000 -40 l 1,8,-1
EndSplineSet
Validated: 1
EndChar

StartChar: A
Encoding: 65 65 36
Width: 1410
GlyphClass: 2
Flags: W
HStem: -40 21G<200 252.222 1010 1062.22> 700 110<400 1010> 1420 110<539.842 868.98>
VStem: 200 200<50 700 810 1248.64> 1010 200<50 700 810 1251.1>
LayerCount: 2
Fore
SplineSet
200 -40 m 1,0,-1
 200 1030 l 2,1,2
 200 1246 200 1246 335 1385 c 0,3,4
 477 1530 477 1530 705 1530 c 0,5,6
 929 1530 929 1530 1075 1385 c 0,7,8
 1210 1251 1210 1251 1210 1030 c 2,9,-1
 1210 50 l 1,10,-1
 1020 -40 l 1,11,-1
 1010 -40 l 1,12,-1
 1010 700 l 1,13,-1
 400 700 l 1,14,-1
 400 50 l 1,15,-1
 210 -40 l 1,16,-1
 200 -40 l 1,0,-1
400 810 m 1,17,-1
 1010 810 l 1,18,-1
 1010 1100 l 2,19,20
 1010 1234 1010 1234 938 1317 c 0,21,22
 848 1420 848 1420 705 1420 c 0,23,24
 561 1420 561 1420 472 1317 c 0,25,26
 400 1233 400 1233 400 1100 c 2,27,-1
 400 810 l 1,17,-1
EndSplineSet
Validated: 1
EndChar

StartChar: B
Encoding: 66 66 37
Width: 1370
GlyphClass: 2
Flags: W
HStem: 0 110<400 863.001> 779 110<400 823.5> 1400 110<400 826.453>
VStem: 200 200<110 779 889 1400> 900 199<973.178 1315.35> 990 200<254.811 649.552>
LayerCount: 2
Fore
SplineSet
400 110 m 1,0,-1
 685 110 l 2,1,2
 836 110 836 110 925 205 c 0,3,4
 990 274 990 274 990 457 c 0,5,6
 990 605 990 605 921 687 c 0,7,8
 844 779 844 779 685 779 c 2,9,-1
 400 779 l 1,10,-1
 400 110 l 1,0,-1
400 889 m 1,11,-1
 685 889 l 2,12,13
 785 889 785 889 846 954 c 0,14,15
 900 1012 900 1012 900 1142 c 0,16,17
 900 1292 900 1292 835 1349 c 0,18,19
 777 1400 777 1400 685 1400 c 2,20,-1
 400 1400 l 1,21,-1
 400 889 l 1,11,-1
200 0 m 1,22,-1
 200 1460 l 1,23,-1
 306 1510 l 1,24,-1
 685 1510 l 2,25,26
 854 1510 854 1510 966 1418 c 0,27,28
 1099 1310 1099 1310 1099 1141 c 0,29,30
 1099 969 1099 969 947 855 c 1,31,32
 996 834 996 834 1044 792 c 0,33,34
 1190 659 1190 659 1190 462 c 0,35,36
 1190 264 1190 264 1062 137 c 0,37,38
 925 0 925 0 685 0 c 2,39,-1
 200 0 l 1,22,-1
EndSplineSet
Validated: 1
EndChar

StartChar: C
Encoding: 67 67 38
Width: 1410
GlyphClass: 2
Flags: W
HStem: -20 110<539.842 870.158> 1420 110<539.842 869.02>
VStem: 200 200<260.871 1249.13> 1010 200<260.871 460 1050 1253.91>
LayerCount: 2
Fore
SplineSet
1210 550 m 1,0,-1
 1210 480 l 2,1,2
 1210 263 1210 263 1075 125 c 0,3,4
 933 -20 933 -20 705 -20 c 128,-1,5
 477 -20 477 -20 335 125 c 0,6,7
 200 263 200 263 200 480 c 2,8,-1
 200 1030 l 2,9,10
 200 1247 200 1247 335 1385 c 0,11,12
 477 1530 477 1530 705 1530 c 0,13,14
 941 1530 941 1530 1075.5 1385 c 128,-1,15
 1210 1240 1210 1240 1210 1050 c 1,16,-1
 1020 960 l 1,17,-1
 1010 960 l 1,18,-1
 1010 1100 l 18,19,20
 1010 1234 1010 1234 938 1317 c 0,21,22
 849 1420 849 1420 705 1420 c 128,-1,23
 561 1420 561 1420 472 1317 c 0,24,25
 400 1234 400 1234 400 1100 c 2,26,-1
 400 410 l 2,27,28
 400 276 400 276 472 193 c 0,29,30
 561 90 561 90 705 90 c 128,-1,31
 849 90 849 90 938 193 c 0,32,33
 1010 276 1010 276 1010 460 c 1,34,-1
 1200 550 l 1,35,-1
 1210 550 l 1,0,-1
EndSplineSet
Validated: 1
EndChar

StartChar: D
Encoding: 68 68 39
Width: 1390
GlyphClass: 2
Flags: W
HStem: 0 110<400 843.906> 1400 110<400 850.002>
VStem: 200 200<110 1400> 990 200<280.871 1229.62>
LayerCount: 2
Fore
SplineSet
200 0 m 1,0,-1
 200 1460 l 1,1,-1
 306 1510 l 1,2,-1
 685 1510 l 1,3,4
 913 1510 913 1510 1055 1365 c 0,5,6
 1190 1228 1190 1228 1190 1010 c 2,7,-1
 1190 500 l 2,8,9
 1190 283 1190 283 1055 145 c 0,10,11
 913 0 913 0 685 0 c 1,12,-1
 200 0 l 1,0,-1
400 110 m 1,13,-1
 685 110 l 1,14,15
 822 110 822 110 918 213 c 0,16,17
 990 290 990 290 990 430 c 2,18,-1
 990 1080 l 2,19,20
 990 1213 990 1213 918 1297 c 0,21,22
 829 1400 829 1400 685 1400 c 1,23,-1
 400 1400 l 1,24,-1
 400 110 l 1,13,-1
EndSplineSet
Validated: 1
EndChar

StartChar: E
Encoding: 69 69 40
Width: 1157
GlyphClass: 2
Flags: W
HStem: 0 110<400 1060> 700 110<400 893> 1400 110<400 893>
VStem: 200 200<110 700 810 1400>
CounterMasks: 1 e0
LayerCount: 2
Fore
SplineSet
200 0 m 1,0,-1
 200 1460 l 1,1,-1
 306 1510 l 1,2,-1
 940 1510 l 1,3,-1
 940 1500 l 1,4,-1
 893 1400 l 1,5,-1
 400 1400 l 1,6,-1
 400 810 l 1,7,-1
 940 810 l 1,8,-1
 940 800 l 1,9,-1
 893 700 l 1,10,-1
 400 700 l 1,11,-1
 400 110 l 1,12,-1
 1107 110 l 1,13,-1
 1107 100 l 1,14,-1
 1060 0 l 1,15,-1
 200 0 l 1,0,-1
EndSplineSet
Validated: 1
EndChar

StartChar: F
Encoding: 70 70 41
Width: 1120
GlyphClass: 2
Flags: W
HStem: -40 21G<200 252.222> 700 110<400 893> 1400 110<400 893>
VStem: 200 200<50 700 810 1400>
LayerCount: 2
Fore
SplineSet
200 -40 m 1,0,-1
 200 1460 l 1,1,-1
 306 1510 l 1,2,-1
 940 1510 l 1,3,-1
 940 1500 l 1,4,-1
 893 1400 l 1,5,-1
 400 1400 l 1,6,-1
 400 810 l 1,7,-1
 940 810 l 1,8,-1
 940 800 l 1,9,-1
 893 700 l 1,10,-1
 400 700 l 1,11,-1
 400 50 l 1,12,-1
 210 -40 l 1,13,-1
 200 -40 l 1,0,-1
EndSplineSet
Validated: 1
EndChar

StartChar: G
Encoding: 71 71 42
Width: 1410
GlyphClass: 2
Flags: W
HStem: -20 110<539.842 870.158> 700 110<726 1010> 1420 110<539.842 869.471>
VStem: 200 200<260.871 1249.13> 1010 200<260.871 700 1050 1253.01>
CounterMasks: 1 e0
LayerCount: 2
Fore
SplineSet
1210 810 m 1,0,-1
 1210 480 l 2,1,2
 1210 263 1210 263 1075 125 c 0,3,4
 933 -20 933 -20 705 -20 c 128,-1,5
 477 -20 477 -20 335 125 c 0,6,7
 200 263 200 263 200 480 c 2,8,-1
 200 1030 l 2,9,10
 200 1247 200 1247 335 1385 c 0,11,12
 477 1530 477 1530 705 1530 c 0,13,14
 941 1530 941 1530 1075.5 1385 c 128,-1,15
 1210 1240 1210 1240 1210 1050 c 1,16,-1
 1020 960 l 1,17,-1
 1010 960 l 1,18,-1
 1010 1100 l 18,19,20
 1010 1232 1010 1232 938 1317 c 0,21,22
 851 1420 851 1420 705 1420 c 0,23,24
 561 1420 561 1420 472 1317 c 0,25,26
 400 1235 400 1235 400 1100 c 2,27,-1
 400 410 l 2,28,29
 400 277 400 277 472 193 c 0,30,31
 561 90 561 90 705 90 c 128,-1,32
 849 90 849 90 938 193 c 0,33,34
 1010 276 1010 276 1010 390 c 10,35,-1
 1010 700 l 17,36,-1
 679 700 l 1,37,-1
 679 710 l 1,38,-1
 726 810 l 1,39,-1
 1210 810 l 1,0,-1
EndSplineSet
Validated: 1
EndChar

StartChar: H
Encoding: 72 72 43
Width: 1390
GlyphClass: 2
Flags: W
HStem: -40 21G<200 252.222 990 1042.22> 700 110<400 990> 1530 20G<347.778 400 1137.78 1190>
VStem: 200 200<50 700 810 1460> 990 200<50 700 810 1460>
LayerCount: 2
Fore
SplineSet
200 -40 m 1,0,-1
 200 1460 l 1,1,-1
 390 1550 l 1,2,-1
 400 1550 l 1,3,-1
 400 810 l 1,4,-1
 990 810 l 1,5,-1
 990 1460 l 1,6,-1
 1180 1550 l 1,7,-1
 1190 1550 l 1,8,-1
 1190 50 l 1,9,-1
 1000 -40 l 1,10,-1
 990 -40 l 1,11,-1
 990 700 l 1,12,-1
 400 700 l 1,13,-1
 400 50 l 1,14,-1
 210 -40 l 1,15,-1
 200 -40 l 1,0,-1
EndSplineSet
Validated: 1
EndChar

StartChar: I
Encoding: 73 73 44
Width: 600
GlyphClass: 2
Flags: W
HStem: -40 21G<200 252.222> 1530 20G<347.778 400>
VStem: 200 200<50 1460>
LayerCount: 2
Fore
SplineSet
200 -40 m 1,0,-1
 200 1460 l 1,1,-1
 390 1550 l 1,2,-1
 400 1550 l 1,3,-1
 400 50 l 1,4,-1
 210 -40 l 1,5,-1
 200 -40 l 1,0,-1
EndSplineSet
Validated: 3073
EndChar

StartChar: J
Encoding: 74 74 45
Width: 1290
GlyphClass: 2
Flags: W
HStem: -20 110<420.556 750.158> 1400 110<364 890>
VStem: 80 200<255.074 460> 890 200<261.363 1400>
LayerCount: 2
Fore
SplineSet
80 460 m 1,0,-1
 270 550 l 1,1,-1
 280 550 l 1,2,-1
 280 410 l 2,3,4
 280 278 280 278 352 193 c 0,5,6
 441 90 441 90 585 90 c 128,-1,7
 729 90 729 90 818 193 c 0,8,9
 890 276 890 276 890 410 c 2,10,-1
 890 1400 l 17,11,-1
 317 1400 l 1,12,-1
 317 1410 l 1,13,-1
 364 1510 l 1,14,-1
 1090 1510 l 9,15,-1
 1090 480 l 2,16,17
 1090 264 1090 264 955 125 c 0,18,19
 813 -20 813 -20 585 -20 c 0,20,21
 360 -20 360 -20 215 125 c 0,22,23
 80 259 80 259 80 460 c 1,0,-1
EndSplineSet
Validated: 1
EndChar

StartChar: K
Encoding: 75 75 46
Width: 1360
GlyphClass: 2
Flags: W
HStem: -40 21G<200 252.222 980 1032.22> 763 110<634.793 840.317> 1530 20G<347.778 400 1027.87 1093.67>
VStem: 200 200<50 620.563 797 1460> 980 200<50 606.574>
DStem2: 400 797 472 660 0.644164 0.764887<0 96.8262 208.866 991.446>
LayerCount: 2
Fore
SplineSet
200 -40 m 1,0,-1
 200 1460 l 1,1,-1
 390 1550 l 1,2,-1
 400 1550 l 1,3,-1
 400 797 l 1,4,-1
 1045 1550 l 1,5,-1
 1055 1550 l 1,6,-1
 1171 1490 l 1,7,-1
 634 873 l 1,8,9
 907 873 907 873 1045 739 c 0,10,11
 1180 608 1180 608 1180 384 c 2,12,-1
 1180 50 l 1,13,-1
 990 -40 l 1,14,-1
 980 -40 l 1,15,-1
 980 443 l 2,16,17
 980 577 980 577 908 660 c 0,18,19
 819 763 819 763 690 763 c 0,20,21
 559 763 559 763 472 660 c 0,22,23
 400 575 400 575 400 443 c 2,24,-1
 400 50 l 1,25,-1
 210 -40 l 1,26,-1
 200 -40 l 1,0,-1
EndSplineSet
Validated: 1
EndChar

StartChar: L
Encoding: 76 76 47
Width: 1090
GlyphClass: 2
Flags: W
HStem: 0 110<400 1038> 1530 20G<347.778 400>
VStem: 200 200<110 1460>
LayerCount: 2
Fore
SplineSet
200 0 m 1,0,-1
 200 1460 l 1,1,-1
 390 1550 l 1,2,-1
 400 1550 l 1,3,-1
 400 110 l 1,4,-1
 1085 110 l 1,5,-1
 1085 100 l 1,6,-1
 1038 0 l 1,7,-1
 200 0 l 1,0,-1
EndSplineSet
Validated: 1
EndChar

StartChar: M
Encoding: 77 77 48
Width: 2220
GlyphClass: 2
Flags: W
HStem: -40 21G<200 252.222 1010 1062.22 1820 1872.22> 1420 110<539.842 869.135 1350.22 1679.21>
VStem: 200 200<50 1248.64> 1010 200<50 1278.25> 1820 200<50 1251.1>
CounterMasks: 1 38
LayerCount: 2
Fore
SplineSet
200 -40 m 1,0,-1
 200 1030 l 2,1,2
 200 1246 200 1246 335 1385 c 0,3,4
 477 1530 477 1530 705 1530 c 0,5,6
 911 1530 911 1530 1056 1385 c 0,7,8
 1092 1349 1092 1349 1110 1315 c 1,9,10
 1133 1350 1133 1350 1166 1382 c 0,11,12
 1317 1530 1317 1530 1515 1530 c 0,13,14
 1739 1530 1739 1530 1885 1385 c 0,15,16
 2020 1251 2020 1251 2020 1030 c 2,17,-1
 2020 50 l 1,18,-1
 1830 -40 l 1,19,-1
 1820 -40 l 1,20,-1
 1820 1100 l 2,21,22
 1820 1234 1820 1234 1748 1317 c 0,23,24
 1659 1420 1659 1420 1515 1420 c 128,-1,25
 1371 1420 1371 1420 1282 1317 c 0,26,27
 1210 1234 1210 1234 1210 1100 c 2,28,-1
 1210 50 l 1,29,-1
 1020 -40 l 1,30,-1
 1010 -40 l 1,31,-1
 1010 1100 l 2,32,33
 1010 1234 1010 1234 938 1317 c 0,34,35
 849 1420 849 1420 705 1420 c 128,-1,36
 561 1420 561 1420 472 1317 c 0,37,38
 400 1234 400 1234 400 1100 c 2,39,-1
 400 50 l 1,40,-1
 210 -40 l 1,41,-1
 200 -40 l 1,0,-1
EndSplineSet
Validated: 1
EndChar

StartChar: N
Encoding: 78 78 49
Width: 1410
GlyphClass: 2
Flags: W
HStem: -40 21G<200 252.222 1010 1062.22> 1420 110<539.842 869.444>
VStem: 200 200<50 1248.64> 1010 200<50 1251.1>
LayerCount: 2
Fore
SplineSet
200 -40 m 9,0,-1
 200 1030 l 2,1,2
 200 1246 200 1246 335 1385 c 0,3,4
 477 1530 477 1530 705 1530 c 0,5,6
 930 1530 930 1530 1075 1385 c 0,7,8
 1210 1251 1210 1251 1210 1030 c 2,9,-1
 1210 50 l 17,10,-1
 1020 -40 l 1,11,-1
 1010 -40 l 9,12,-1
 1010 1100 l 2,13,14
 1010 1234 1010 1234 938 1317 c 0,15,16
 849 1420 849 1420 705 1420 c 128,-1,17
 561 1420 561 1420 472 1317 c 0,18,19
 400 1234 400 1234 400 1100 c 2,20,-1
 400 50 l 17,21,-1
 210 -40 l 1,22,-1
 200 -40 l 9,0,-1
EndSplineSet
Validated: 1
EndChar

StartChar: O
Encoding: 79 79 50
Width: 1410
GlyphClass: 2
Flags: W
HStem: -20 110<539.842 870.158> 1420 110<539.842 870.158>
VStem: 200 200<260.871 1249.13> 1010 200<260.871 1249.62>
LayerCount: 2
Fore
SplineSet
400 410 m 2,0,1
 400 276 400 276 472 193 c 0,2,3
 561 90 561 90 705 90 c 128,-1,4
 849 90 849 90 938 193 c 0,5,6
 1010 276 1010 276 1010 410 c 2,7,-1
 1010 1100 l 2,8,9
 1010 1234 1010 1234 938 1317 c 0,10,11
 849 1420 849 1420 705 1420 c 128,-1,12
 561 1420 561 1420 472 1317 c 0,13,14
 400 1234 400 1234 400 1100 c 2,15,-1
 400 410 l 2,0,1
200 480 m 2,16,-1
 200 1030 l 2,17,18
 200 1247 200 1247 335 1385 c 0,19,20
 477 1530 477 1530 705 1530 c 128,-1,21
 933 1530 933 1530 1075 1385 c 0,22,23
 1210 1248 1210 1248 1210 1030 c 2,24,-1
 1210 480 l 2,25,26
 1210 263 1210 263 1075 125 c 0,27,28
 933 -20 933 -20 705 -20 c 128,-1,29
 477 -20 477 -20 335 125 c 0,30,31
 200 263 200 263 200 480 c 2,16,-1
EndSplineSet
Validated: 1
EndChar

StartChar: P
Encoding: 80 80 51
Width: 1340
GlyphClass: 2
Flags: W
HStem: -40 21G<200 252.222> 510 110<400 843.438> 1400 110<400 850.002>
VStem: 200 200<50 510 620 1400> 990 200<788.233 1231.22>
LayerCount: 2
Fore
SplineSet
400 620 m 1,0,-1
 685 620 l 2,1,2
 816 620 816 620 918 723 c 0,3,4
 990 796 990 796 990 1010 c 0,5,6
 990 1214 990 1214 918 1297 c 0,7,8
 829 1400 829 1400 685 1400 c 2,9,-1
 400 1400 l 1,10,-1
 400 620 l 1,0,-1
200 -40 m 1,11,-1
 200 1460 l 1,12,-1
 306 1510 l 1,13,-1
 685 1510 l 2,14,15
 913 1510 913 1510 1055 1365 c 0,16,17
 1190 1227 1190 1227 1190 1010 c 0,18,19
 1190 792 1190 792 1055 655 c 0,20,21
 912 510 912 510 685 510 c 2,22,-1
 400 510 l 1,23,-1
 400 50 l 1,24,-1
 210 -40 l 1,25,-1
 200 -40 l 1,11,-1
EndSplineSet
Validated: 1
EndChar

StartChar: Q
Encoding: 81 81 52
Width: 1410
GlyphClass: 2
Flags: W
HStem: -40 21G<963.154 1029.41> -20 110<539.842 857.254> 1420 110<539.842 870.158>
VStem: 200 200<260.871 1249.13> 1010 200<289.767 1249.62>
DStem2: 817 538 631 455 0.572907 -0.819621<0 305.164 476.25 565.406>
LayerCount: 2
Fore
SplineSet
1163 43 m 1,0,-1
 987 -40 l 1,1,-1
 977 -40 l 1,2,-1
 932 25 l 1,3,4
 832 -20 832 -20 705 -20 c 0,5,6
 477 -20 477 -20 335 125 c 0,7,8
 200 263 200 263 200 480 c 2,9,-1
 200 1030 l 2,10,11
 200 1247 200 1247 335 1385 c 0,12,13
 477 1530 477 1530 705 1530 c 128,-1,14
 933 1530 933 1530 1075 1385 c 0,15,16
 1210 1248 1210 1248 1210 1030 c 2,17,-1
 1210 480 l 2,18,19
 1210 278 1210 278 1092 144 c 1,20,-1
 1163 43 l 1,0,-1
400 410 m 2,21,22
 400 276 400 276 472 193 c 0,23,24
 561 90 561 90 705 90 c 0,25,26
 792 90 792 90 860 128 c 1,27,-1
 631 455 l 1,28,-1
 807 538 l 1,29,-1
 817 538 l 1,30,-1
 992 288 l 1,31,32
 1010 343 1010 343 1010 410 c 2,33,-1
 1010 1100 l 2,34,35
 1010 1234 1010 1234 938 1317 c 0,36,37
 849 1420 849 1420 705 1420 c 128,-1,38
 561 1420 561 1420 472 1317 c 0,39,40
 400 1234 400 1234 400 1100 c 2,41,-1
 400 410 l 2,21,22
EndSplineSet
Validated: 1
EndChar

StartChar: R
Encoding: 82 82 53
Width: 1364
GlyphClass: 2
Flags: W
HStem: -40 21G<200 252.222 1014 1080.41> 510 110<400 643> 1400 110<400 850.002>
VStem: 200 200<50 510 620 1400> 990 200<788.233 1231.22>
DStem2: 868 538 643 510 0.573462 -0.819232<0 565.27>
LayerCount: 2
Fore
SplineSet
200 -40 m 1,0,-1
 200 1460 l 1,1,-1
 306 1510 l 1,2,-1
 685 1510 l 2,3,4
 913 1510 913 1510 1055 1365 c 0,5,6
 1190 1227 1190 1227 1190 1010 c 0,7,8
 1190 792 1190 792 1055 655 c 0,9,10
 975 574 975 574 868 538 c 1,11,-1
 1214 43 l 1,12,-1
 1038 -40 l 1,13,-1
 1028 -40 l 1,14,-1
 643 510 l 1,15,-1
 400 510 l 1,16,-1
 400 50 l 1,17,-1
 210 -40 l 1,18,-1
 200 -40 l 1,0,-1
400 620 m 1,19,-1
 685 620 l 2,20,21
 816 620 816 620 918 723 c 0,22,23
 990 796 990 796 990 1010 c 0,24,25
 990 1214 990 1214 918 1297 c 0,26,27
 829 1400 829 1400 685 1400 c 2,28,-1
 400 1400 l 1,29,-1
 400 620 l 1,19,-1
EndSplineSet
Validated: 1
EndChar

StartChar: S
Encoding: 83 83 54
Width: 1329
GlyphClass: 2
Flags: W
HStem: -20 110<501.718 828.056> 786 110<519.423 848.46> 1420 110<527.583 801.056>
VStem: 160 200<259.504 460> 250 200<963.815 1339.07> 880 200<1157 1339.56> 969 200<257.525 670.388>
LayerCount: 2
Fore
SplineSet
160 460 m 1,0,-1
 350 550 l 1,1,-1
 360 550 l 9,2,-1
 360 398 l 18,3,4
 360 276 360 276 432 193 c 0,5,6
 521 90 521 90 665 90 c 0,7,8
 808 90 808 90 898 193 c 0,9,10
 969 274 969 274 969 470 c 0,11,12
 969 624 969 624 911 692 c 0,13,14
 831 786 831 786 665 786 c 0,15,16
 471 786 471 786 350 894 c 0,17,18
 250 984 250 984 250 1148 c 0,19,20
 250 1333 250 1333 374 1434 c 0,21,22
 492 1530 492 1530 665 1530 c 152,-1,23
 838 1530 838 1530 956 1434 c 0,24,25
 1080 1333 1080 1333 1080 1157 c 1,26,-1
 890 1067 l 1,27,-1
 880 1067 l 9,28,-1
 880 1195 l 18,29,30
 880 1309 880 1309 815 1365 c 0,31,32
 752 1420 752 1420 665 1420 c 0,33,34
 568 1420 568 1420 509 1359 c 128,-1,35
 450 1298 450 1298 450 1147 c 0,36,37
 450 1013 450 1013 495 963 c 0,38,39
 555 896 555 896 665 896 c 0,40,41
 917 896 917 896 1040 783 c 0,42,43
 1169 664 1169 664 1169 472 c 0,44,45
 1169 268 1169 268 1035 125 c 0,46,47
 898 -20 898 -20 665 -20 c 128,-1,48
 432 -20 432 -20 295 125 c 0,49,50
 160 268 160 268 160 460 c 1,0,-1
EndSplineSet
Validated: 1
EndChar

StartChar: T
Encoding: 84 84 55
Width: 1066
GlyphClass: 2
Flags: W
HStem: -40 21G<433 485.222> 1400 110<52 433 633 1014>
VStem: 433 200<50 1400>
LayerCount: 2
Fore
SplineSet
433 -40 m 1,0,-1
 433 1400 l 1,1,-1
 5 1400 l 1,2,-1
 5 1410 l 1,3,-1
 52 1510 l 1,4,-1
 1061 1510 l 1,5,-1
 1061 1500 l 1,6,-1
 1014 1400 l 1,7,-1
 633 1400 l 1,8,-1
 633 50 l 1,9,-1
 443 -40 l 1,10,-1
 433 -40 l 1,0,-1
EndSplineSet
Validated: 1
EndChar

StartChar: U
Encoding: 85 85 56
Width: 1410
VWidth: 2068
GlyphClass: 2
Flags: W
HStem: -20 110<540.556 870.158> 1530 20G<347.778 400 1157.78 1210>
VStem: 200 200<258.902 1460> 1010 200<261.363 1460>
LayerCount: 2
Fore
SplineSet
200 1460 m 17,0,-1
 390 1550 l 1,1,-1
 400 1550 l 9,2,-1
 400 410 l 2,3,4
 400 276 400 276 472 193 c 0,5,6
 561 90 561 90 705 90 c 128,-1,7
 849 90 849 90 938 193 c 0,8,9
 1010 276 1010 276 1010 410 c 2,10,-1
 1010 1460 l 17,11,-1
 1200 1550 l 1,12,-1
 1210 1550 l 9,13,-1
 1210 480 l 2,14,15
 1210 264 1210 264 1075 125 c 0,16,17
 933 -20 933 -20 705 -20 c 0,18,19
 480 -20 480 -20 335 125 c 0,20,21
 200 259 200 259 200 480 c 2,22,-1
 200 1460 l 17,0,-1
EndSplineSet
Validated: 1
EndChar

StartChar: V
Encoding: 86 86 57
Width: 1191
GlyphClass: 2
Flags: W
HStem: -40 21G<508.236 567.195> 1530 20G<135.805 194.717 1062.33 1120.96>
DStem2: 188 1550 5 1468 0.320371 -0.947292<19.0501 1388.24> 630 234 698 42 0.317594 0.948227<0 1376.09>
LayerCount: 2
Fore
SplineSet
515 -40 m 1,0,-1
 5 1468 l 1,1,-1
 178 1550 l 1,2,-1
 188 1550 l 1,3,-1
 630 234 l 1,4,-1
 1069 1550 l 1,5,-1
 1079 1550 l 1,6,-1
 1186 1499 l 1,7,-1
 698 42 l 1,8,-1
 525 -40 l 1,9,-1
 515 -40 l 1,0,-1
EndSplineSet
Validated: 1
EndChar

StartChar: W
Encoding: 87 87 58
Width: 2220
VWidth: 2068
GlyphClass: 2
Flags: W
HStem: -20 110<540.794 869.784 1350.87 1680.16> 1530 20G<347.778 400 1157.78 1210 1967.78 2020>
VStem: 200 200<258.902 1460> 1010 200<231.753 1460> 1820 200<261.363 1460>
CounterMasks: 1 38
LayerCount: 2
Fore
SplineSet
200 1460 m 1,0,-1
 390 1550 l 1,1,-1
 400 1550 l 1,2,-1
 400 410 l 2,3,4
 400 276 400 276 472 193 c 0,5,6
 561 90 561 90 705 90 c 128,-1,7
 849 90 849 90 938 193 c 0,8,9
 1010 276 1010 276 1010 410 c 2,10,-1
 1010 1460 l 1,11,-1
 1200 1550 l 1,12,-1
 1210 1550 l 1,13,-1
 1210 410 l 2,14,15
 1210 276 1210 276 1282 193 c 0,16,17
 1371 90 1371 90 1515 90 c 128,-1,18
 1659 90 1659 90 1748 193 c 0,19,20
 1820 276 1820 276 1820 410 c 2,21,-1
 1820 1460 l 1,22,-1
 2010 1550 l 1,23,-1
 2020 1550 l 1,24,-1
 2020 480 l 2,25,26
 2020 264 2020 264 1885 125 c 0,27,28
 1743 -20 1743 -20 1515 -20 c 0,29,30
 1309 -20 1309 -20 1164 125 c 0,31,32
 1128 161 1128 161 1110 195 c 1,33,34
 1087 160 1087 160 1054 128 c 0,35,36
 903 -20 903 -20 705 -20 c 0,37,38
 481 -20 481 -20 335 125 c 0,39,40
 200 259 200 259 200 480 c 2,41,-1
 200 1460 l 1,0,-1
EndSplineSet
Validated: 1
EndChar

StartChar: X
Encoding: 88 88 59
Width: 1278
GlyphClass: 2
Flags: W
HStem: -40 21G<163 227.52 982.138 1046.44> 1530 20G<232.831 296.831 1050.48 1115>
DStem2: 285 1550 100 1467 0.509537 -0.860449<0 742.432 986.434 1729.38> 100 10 215 -40 0.530197 0.847875<18.5789 772.45 1062.44 1816.31>
LayerCount: 2
Fore
SplineSet
215 -40 m 1,0,-1
 205 -40 l 1,1,-1
 100 10 l 1,2,-1
 544 719 l 1,3,-1
 100 1467 l 1,4,-1
 275 1550 l 1,5,-1
 285 1550 l 1,6,-1
 663 911 l 1,7,-1
 1063 1550 l 1,8,-1
 1073 1550 l 1,9,-1
 1178 1500 l 1,10,-1
 735 791 l 1,11,-1
 1178 42 l 1,12,-1
 1004 -40 l 1,13,-1
 994 -40 l 1,14,-1
 615 599 l 1,15,-1
 215 -40 l 1,0,-1
EndSplineSet
Validated: 1
EndChar

StartChar: Y
Encoding: 89 89 60
Width: 1310
GlyphClass: 2
Flags: W
HStem: -40 21G<555 607.222> 484 110<493.034 555 755 822.949> 1530 20G<297.778 350 1107.78 1160>
VStem: 150 200<754.41 1460> 555 200<50 491.828> 960 200<757.363 1460>
CounterMasks: 1 1c
LayerCount: 2
Fore
SplineSet
555 -40 m 1,0,-1
 555 484 l 1,1,2
 398 510 398 510 285 621 c 0,3,4
 150 754 150 754 150 976 c 2,5,-1
 150 1460 l 1,6,-1
 340 1550 l 1,7,-1
 350 1550 l 1,8,-1
 350 914 l 2,9,10
 350 780 350 780 422 697 c 0,11,12
 511 594 511 594 655 594 c 0,13,14
 807 594 807 594 888 697 c 0,15,16
 960 789 960 789 960 914 c 2,17,-1
 960 1460 l 1,18,-1
 1150 1550 l 1,19,-1
 1160 1550 l 1,20,-1
 1160 976 l 2,21,22
 1160 760 1160 760 1025 621 c 0,23,24
 916 509 916 509 755 484 c 1,25,-1
 755 50 l 1,26,-1
 565 -40 l 1,27,-1
 555 -40 l 1,0,-1
EndSplineSet
Validated: 1
EndChar

StartChar: Z
Encoding: 90 90 61
Width: 1267
GlyphClass: 2
Flags: W
HStem: 0 110<423 1070> 1400 110<207 831>
DStem2: 150 10 423 110 0.441524 0.897249<210.261 1547.85>
LayerCount: 2
Fore
SplineSet
150 0 m 1,0,-1
 150 10 l 1,1,-1
 831 1400 l 1,2,-1
 160 1400 l 1,3,-1
 160 1410 l 1,4,-1
 207 1510 l 1,5,-1
 1107 1510 l 1,6,-1
 1107 1500 l 1,7,-1
 423 110 l 1,8,-1
 1117 110 l 1,9,-1
 1117 100 l 1,10,-1
 1070 0 l 1,11,-1
 150 0 l 1,0,-1
EndSplineSet
Validated: 1
EndChar

StartChar: bracketleft
Encoding: 91 91 62
Width: 864
GlyphClass: 2
Flags: W
HStem: -240 110<400 767> 1640 110<400 767>
VStem: 200 200<-130 1640>
LayerCount: 2
Fore
SplineSet
200 -240 m 1,0,-1
 200 1660 l 1,1,-1
 390 1750 l 1,2,-1
 814 1750 l 1,3,-1
 814 1740 l 1,4,-1
 767 1640 l 1,5,-1
 400 1640 l 1,6,-1
 400 -130 l 1,7,-1
 814 -130 l 1,8,-1
 814 -140 l 1,9,-1
 767 -240 l 1,10,-1
 200 -240 l 1,0,-1
EndSplineSet
Validated: 1
EndChar

StartChar: backslash
Encoding: 92 92 63
Width: 974
GlyphClass: 2
Flags: W
DStem2: 161 1650 10 1582 0.422626 -0.906304<0 1897.41>
LayerCount: 2
Fore
SplineSet
812 -140 m 1,0,-1
 10 1582 l 1,1,-1
 151 1650 l 1,2,-1
 161 1650 l 1,3,-1
 964 -72 l 1,4,-1
 822 -140 l 1,5,-1
 812 -140 l 1,0,-1
EndSplineSet
Validated: 3073
EndChar

StartChar: bracketright
Encoding: 93 93 64
Width: 864
GlyphClass: 2
Flags: W
HStem: -240 110<97 464> 1640 110<97 464>
VStem: 464 200<-130 1640>
LayerCount: 2
Fore
SplineSet
664 1750 m 1,0,-1
 664 -150 l 1,1,-1
 474 -240 l 1,2,-1
 50 -240 l 1,3,-1
 50 -230 l 1,4,-1
 97 -130 l 1,5,-1
 464 -130 l 1,6,-1
 464 1640 l 1,7,-1
 50 1640 l 1,8,-1
 50 1650 l 1,9,-1
 97 1750 l 1,10,-1
 664 1750 l 1,0,-1
EndSplineSet
Validated: 1
EndChar

StartChar: asciicircum
Encoding: 94 94 65
Width: 1382
GlyphClass: 2
Flags: W
HStem: 1006 544
DStem2: 150 1054 263 1005 0.727518 0.686088<48.5913 602.785> 772 1550 673 1378 0.705571 -0.708639<52.0343 580.943>
LayerCount: 2
Fore
SplineSet
772 1550 m 1,0,-1
 1232 1088 l 1,1,-1
 1059 1006 l 1,2,-1
 1049 1006 l 1,3,-1
 673 1378 l 1,4,-1
 263 1005 l 1,5,-1
 253 1005 l 1,6,-1
 150 1054 l 1,7,-1
 589 1468 l 1,8,-1
 762 1550 l 1,9,-1
 772 1550 l 1,0,-1
EndSplineSet
Validated: 1
EndChar

StartChar: underscore
Encoding: 95 95 66
Width: 1214
GlyphClass: 2
Flags: W
HStem: -410 182<231 983>
LayerCount: 2
Fore
SplineSet
150 -410 m 1,0,-1
 150 -400 l 1,1,-1
 231 -228 l 1,2,-1
 1064 -228 l 1,3,-1
 1064 -238 l 1,4,-1
 983 -410 l 1,5,-1
 150 -410 l 1,0,-1
EndSplineSet
Validated: 3073
EndChar

StartChar: grave
Encoding: 96 96 67
Width: 648
GlyphClass: 2
Flags: W
HStem: 1150 400
VStem: 150 348
LayerCount: 2
Fore
SplineSet
326 1550 m 1,0,-1
 336 1550 l 1,1,-1
 498 1205 l 1,2,-1
 381 1150 l 1,3,-1
 371 1150 l 1,4,-1
 150 1466 l 1,5,-1
 326 1550 l 1,0,-1
EndSplineSet
Validated: 3073
EndChar

StartChar: a
Encoding: 97 97 68
Width: 1060
GlyphClass: 2
Flags: W
HStem: -40 21G<710 762.222> -20 110<361.724 633.481> 630 110<364.849 629.34> 1010 110<299 608.341>
VStem: 100 196<175.798 540.994> 710 200<50 65 171.089 544.347 655 891.039>
LayerCount: 2
Fore
SplineSet
910 50 m 1,0,-1
 720 -40 l 1,1,-1
 710 -40 l 1,2,-1
 710 65 l 1,3,4
 630 -20 630 -20 495 -20 c 0,5,6
 308 -20 308 -20 204 93 c 128,-1,7
 100 206 100 206 100 360 c 0,8,9
 100 520 100 520 213 632 c 0,10,11
 322 740 322 740 495 740 c 0,12,13
 618 740 618 740 710 655 c 1,14,15
 710 832 710 832 648 921 c 128,-1,16
 586 1010 586 1010 495 1010 c 2,17,-1
 252 1010 l 1,18,-1
 252 1020 l 1,19,-1
 299 1120 l 1,20,-1
 495 1120 l 2,21,22
 670 1120 670 1120 786 1007 c 0,23,24
 910 886 910 886 910 720 c 2,25,-1
 910 50 l 1,0,-1
296 360 m 0,26,27
 296 204 296 204 350 146 c 0,28,29
 402 90 402 90 496 90 c 0,30,31
 596 90 596 90 648 147 c 0,32,33
 705 209 705 209 705 365 c 0,34,35
 705 511 705 511 644 573 c 0,36,37
 584 630 584 630 495 630 c 0,38,39
 402 630 402 630 349 571 c 128,-1,40
 296 512 296 512 296 360 c 0,26,27
EndSplineSet
Validated: 1
EndChar

StartChar: b
Encoding: 98 98 69
Width: 1180
GlyphClass: 2
Flags: W
HStem: -20 110<474.306 756.186> 1010 110<474.899 755.694> 1530 20G<347.778 400>
VStem: 200 200<198.257 938.28 1035 1460> 830 200<199.222 901.743>
LayerCount: 2
Fore
SplineSet
400 312 m 2,0,1
 400 197 400 197 462.5 143.5 c 128,-1,2
 525 90 525 90 615 90 c 128,-1,3
 705 90 705 90 767.5 143.5 c 128,-1,4
 830 197 830 197 830 312 c 10,5,-1
 830 788 l 2,6,7
 830 903 830 903 767.5 956.5 c 128,-1,8
 705 1010 705 1010 615 1010 c 128,-1,9
 525 1010 525 1010 462.5 956.5 c 128,-1,10
 400 903 400 903 400 788 c 2,11,-1
 400 312 l 2,0,1
200 380 m 2,12,-1
 200 1460 l 1,13,-1
 390 1550 l 1,14,-1
 400 1550 l 1,15,-1
 400 1035 l 1,16,17
 476 1120 476 1120 615 1120 c 0,18,19
 788 1120 788 1120 906 1007 c 0,20,21
 1030 887 1030 887 1030 720 c 2,22,-1
 1030 380 l 2,23,24
 1030 215 1030 215 906 93 c 0,25,26
 790 -20 790 -20 615 -20 c 0,27,28
 442 -20 442 -20 324 93 c 0,29,30
 200 213 200 213 200 380 c 2,12,-1
EndSplineSet
Validated: 1
EndChar

StartChar: c
Encoding: 99 99 70
Width: 1130
GlyphClass: 2
Flags: W
HStem: -20 110<424.306 703.848> 1010 110<423.609 705.407>
VStem: 150 200<198.257 901.261> 780 200<199.222 353 747 907.977>
LayerCount: 2
Fore
SplineSet
980 443 m 1,0,-1
 980 380 l 2,1,2
 980 215 980 215 856 93 c 0,3,4
 740 -20 740 -20 565 -20 c 0,5,6
 392 -20 392 -20 274 93 c 0,7,8
 150 213 150 213 150 380 c 2,9,-1
 150 720 l 2,10,11
 150 886 150 886 274 1007 c 0,12,13
 390 1120 390 1120 565 1120 c 0,14,15
 736 1120 736 1120 856 1007 c 0,16,17
 980 890 980 890 980 749 c 9,18,-1
 980 747 l 1,19,-1
 790 657 l 1,20,-1
 780 657 l 9,21,-1
 780 788 l 18,22,23
 780 902 780 902 718 956 c 0,24,25
 655 1010 655 1010 565 1010 c 128,-1,26
 475 1010 475 1010 412 956 c 0,27,28
 350 904 350 904 350 788 c 2,29,-1
 350 312 l 2,30,31
 350 197 350 197 412.5 143.5 c 128,-1,32
 475 90 475 90 565 90 c 128,-1,33
 655 90 655 90 717.5 144 c 128,-1,34
 780 198 780 198 780 353 c 1,35,-1
 970 443 l 1,36,-1
 980 443 l 1,0,-1
EndSplineSet
Validated: 1
EndChar

StartChar: d
Encoding: 100 100 71
Width: 1180
GlyphClass: 2
Flags: W
HStem: -20 110<424.306 706.186> 1010 110<423.814 705.008> 1530 20G<927.778 980>
VStem: 150 200<198.257 900.778> 780 200<199.222 938.28 1035 1460>
LayerCount: 2
Fore
SplineSet
350 312 m 2,0,1
 350 197 350 197 412.5 143.5 c 128,-1,2
 475 90 475 90 565 90 c 128,-1,3
 655 90 655 90 717.5 143.5 c 128,-1,4
 780 197 780 197 780 312 c 10,5,-1
 780 788 l 2,6,7
 780 903 780 903 717.5 956.5 c 128,-1,8
 655 1010 655 1010 565 1010 c 128,-1,9
 475 1010 475 1010 412.5 956.5 c 128,-1,10
 350 903 350 903 350 788 c 2,11,-1
 350 312 l 2,0,1
150 380 m 2,12,-1
 150 720 l 2,13,14
 150 885 150 885 274 1007 c 0,15,16
 390 1120 390 1120 565 1120 c 0,17,18
 697 1120 697 1120 780 1035 c 1,19,-1
 780 1460 l 1,20,-1
 970 1550 l 1,21,-1
 980 1550 l 1,22,-1
 980 380 l 2,23,24
 980 215 980 215 856 93 c 0,25,26
 740 -20 740 -20 565 -20 c 0,27,28
 392 -20 392 -20 274 93 c 0,29,30
 150 213 150 213 150 380 c 2,12,-1
EndSplineSet
Validated: 1
EndChar

StartChar: e
Encoding: 101 101 72
Width: 1130
GlyphClass: 2
Flags: W
HStem: -20 110<424.101 703.848> 1010 110<426.032 705.407>
VStem: 150 200<399 901.261> 780 200<199.222 353 749 907.977>
DStem2: 350 399 356 245 0.777941 0.628337<0 553.804>
LayerCount: 2
Fore
SplineSet
980 443 m 1,0,-1
 980 380 l 2,1,2
 980 215 980 215 856 93 c 0,3,4
 740 -20 740 -20 565 -20 c 0,5,6
 392 -20 392 -20 274 93 c 0,7,8
 150 213 150 213 150 380 c 2,9,-1
 150 720 l 2,10,11
 150 886 150 886 274 1007 c 0,12,13
 390 1120 390 1120 565 1120 c 0,14,15
 736 1120 736 1120 856 1007 c 0,16,17
 980 890 980 890 980 749 c 1,18,-1
 356 245 l 1,19,20
 370 180 370 180 412 144 c 0,21,22
 475 90 475 90 565 90 c 128,-1,23
 655 90 655 90 717.5 144 c 128,-1,24
 780 198 780 198 780 353 c 1,25,-1
 970 443 l 1,26,-1
 980 443 l 1,0,-1
350 399 m 1,27,-1
 780 748 l 1,28,-1
 780 788 l 2,29,30
 780 902 780 902 718 956 c 0,31,32
 655 1010 655 1010 565 1010 c 0,33,34
 476 1010 476 1010 412 956 c 0,35,36
 350 904 350 904 350 788 c 2,37,-1
 350 399 l 1,27,-1
EndSplineSet
Validated: 1
EndChar

StartChar: f
Encoding: 102 102 73
Width: 850
GlyphClass: 2
Flags: W
HStem: -40 21G<200 252.222> 850 110<97 200 400 703> 1420 110<477.844 702>
VStem: 200 200<50 850 960 1310.78>
LayerCount: 2
Fore
SplineSet
200 -40 m 1,0,-1
 200 850 l 1,1,-1
 50 850 l 1,2,-1
 50 860 l 1,3,-1
 97 960 l 1,4,-1
 200 960 l 1,5,-1
 200 1130 l 2,6,7
 200 1295 200 1295 324 1417 c 0,8,9
 440 1530 440 1530 615 1530 c 2,10,-1
 750 1530 l 1,11,-1
 750 1520 l 1,12,-1
 702 1420 l 1,13,-1
 615 1420 l 2,14,15
 526 1420 526 1420 462 1366 c 0,16,17
 400 1314 400 1314 400 1198 c 2,18,-1
 400 960 l 1,19,-1
 750 960 l 1,20,-1
 750 950 l 1,21,-1
 703 850 l 1,22,-1
 400 850 l 1,23,-1
 400 50 l 1,24,-1
 210 -40 l 1,25,-1
 200 -40 l 1,0,-1
EndSplineSet
Validated: 1
EndChar

StartChar: g
Encoding: 103 103 74
Width: 1160
GlyphClass: 2
Flags: W
HStem: -430 110<305 705.95> -20 110<424.306 705.101> 1010 110<423.814 706.186>
VStem: 150 200<198.257 900.778> 780 200<-210.778 65 161.72 901.261>
LayerCount: 2
Fore
SplineSet
350 312 m 2,0,1
 350 197 350 197 412.5 143.5 c 128,-1,2
 475 90 475 90 565 90 c 128,-1,3
 655 90 655 90 717.5 143.5 c 128,-1,4
 780 197 780 197 780 312 c 10,5,-1
 780 788 l 2,6,7
 780 903 780 903 717.5 956.5 c 128,-1,8
 655 1010 655 1010 565 1010 c 128,-1,9
 475 1010 475 1010 412.5 956.5 c 128,-1,10
 350 903 350 903 350 788 c 2,11,-1
 350 312 l 2,0,1
150 380 m 2,12,-1
 150 720 l 2,13,14
 150 885 150 885 274 1007 c 0,15,16
 390 1120 390 1120 565 1120 c 128,-1,17
 740 1120 740 1120 856 1007 c 0,18,19
 980 886 980 886 980 720 c 2,20,-1
 980 -30 l 2,21,22
 980 -195 980 -195 856 -317 c 0,23,24
 740 -430 740 -430 565 -430 c 2,25,-1
 257 -430 l 1,26,-1
 257 -420 l 1,27,-1
 305 -320 l 1,28,-1
 565 -320 l 2,29,30
 655 -320 655 -320 718 -266 c 0,31,32
 780 -214 780 -214 780 -98 c 2,33,-1
 780 65 l 1,34,35
 704 -20 704 -20 565 -20 c 0,36,37
 392 -20 392 -20 274 93 c 0,38,39
 150 213 150 213 150 380 c 2,12,-1
EndSplineSet
Validated: 1
EndChar

StartChar: h
Encoding: 104 104 75
Width: 1180
GlyphClass: 2
Flags: W
HStem: -40 21G<200 252.222 830 882.222> 1010 110<474.655 755.694> 1530 20G<347.778 400>
VStem: 200 200<50 938.28 1035 1460> 830 200<50 901.743>
LayerCount: 2
Fore
SplineSet
200 -40 m 1,0,-1
 200 1460 l 1,1,-1
 390 1550 l 1,2,-1
 400 1550 l 1,3,-1
 400 1035 l 1,4,5
 475 1120 475 1120 615 1120 c 0,6,7
 788 1120 788 1120 906 1007 c 0,8,9
 1030 887 1030 887 1030 720 c 2,10,-1
 1030 50 l 1,11,-1
 840 -40 l 1,12,-1
 830 -40 l 1,13,-1
 830 788 l 2,14,15
 830 903 830 903 767.5 956.5 c 128,-1,16
 705 1010 705 1010 615 1010 c 128,-1,17
 525 1010 525 1010 462.5 956.5 c 128,-1,18
 400 903 400 903 400 788 c 2,19,-1
 400 50 l 1,20,-1
 210 -40 l 1,21,-1
 200 -40 l 1,0,-1
EndSplineSet
Validated: 1
EndChar

StartChar: i
Encoding: 105 105 76
Width: 600
GlyphClass: 2
Flags: W
HStem: -40 21G<200 252.222> 1120 20G<347.778 400> 1285 245<216.097 383.903>
VStem: 180 240<1322.13 1492.87> 200 200<50 1050>
LayerCount: 2
Fore
SplineSet
180 1407.5 m 128,-1,1
 180 1458 180 1458 215 1494 c 128,-1,2
 250 1530 250 1530 300 1530 c 128,-1,3
 350 1530 350 1530 385 1494 c 128,-1,4
 420 1458 420 1458 420 1407.5 c 128,-1,5
 420 1357 420 1357 385 1321 c 128,-1,6
 350 1285 350 1285 300 1285 c 128,-1,7
 250 1285 250 1285 215 1321 c 128,-1,0
 180 1357 180 1357 180 1407.5 c 128,-1,1
200 -40 m 1,8,-1
 200 1050 l 1,9,-1
 390 1140 l 1,10,-1
 400 1140 l 1,11,-1
 400 50 l 1,12,-1
 210 -40 l 1,13,-1
 200 -40 l 1,8,-1
EndSplineSet
Validated: 1
EndChar

StartChar: j
Encoding: 106 106 77
Width: 600
GlyphClass: 2
Flags: W
HStem: -450 21G<-15 72.5> 1120 20G<347.778 400> 1285 245<216.097 383.903>
VStem: 180 240<1322.13 1492.87> 200 200<-230.778 1050>
LayerCount: 2
Fore
SplineSet
32 -340 m 1,0,1
 98 -323 98 -323 138 -286 c 0,2,3
 200 -229 200 -229 200 -118 c 2,4,-1
 200 1050 l 1,5,-1
 390 1140 l 1,6,-1
 400 1140 l 1,7,-1
 400 -50 l 2,8,9
 400 -215 400 -215 276 -337 c 0,10,11
 160 -450 160 -450 -15 -450 c 1,12,-1
 -15 -440 l 1,13,-1
 32 -340 l 1,0,1
180 1407.5 m 128,-1,15
 180 1458 180 1458 215 1494 c 128,-1,16
 250 1530 250 1530 300 1530 c 128,-1,17
 350 1530 350 1530 385 1494 c 128,-1,18
 420 1458 420 1458 420 1407.5 c 128,-1,19
 420 1357 420 1357 385 1321 c 128,-1,20
 350 1285 350 1285 300 1285 c 128,-1,21
 250 1285 250 1285 215 1321 c 128,-1,14
 180 1357 180 1357 180 1407.5 c 128,-1,15
EndSplineSet
Validated: 1
EndChar

StartChar: k
Encoding: 107 107 78
Width: 1180
GlyphClass: 2
Flags: W
HStem: -40 21G<200 252.222 830 882.222> 662 110<648 754.494> 1120 20G<851.589 913.315> 1530 20G<347.778 400>
VStem: 200 200<50 589.396 717 1460> 830 200<50 553.743>
DStem2: 400 717 648 772 0.755312 0.655365<0 104.339 223.362 635.237>
LayerCount: 2
Fore
SplineSet
200 -40 m 1,0,-1
 200 1460 l 1,1,-1
 390 1550 l 1,2,-1
 400 1550 l 1,3,-1
 400 717 l 1,4,-1
 874 1140 l 1,5,-1
 884 1140 l 1,6,-1
 991 1067 l 1,7,-1
 648 772 l 1,8,9
 789 772 789 772 906 659 c 0,10,11
 1030 539 1030 539 1030 372 c 2,12,-1
 1030 50 l 1,13,-1
 840 -40 l 1,14,-1
 830 -40 l 1,15,-1
 830 440 l 2,16,17
 830 555 830 555 767.5 608.5 c 128,-1,18
 705 662 705 662 615 662 c 0,19,20
 523 662 523 662 462 608 c 0,21,22
 400 553 400 553 400 440 c 2,23,-1
 400 50 l 1,24,-1
 210 -40 l 1,25,-1
 200 -40 l 1,0,-1
EndSplineSet
Validated: 1
EndChar

StartChar: l
Encoding: 108 108 79
Width: 600
GlyphClass: 2
Flags: W
HStem: -40 21G<200 252.222> 1530 20G<347.778 400>
VStem: 200 200<50 1460>
LayerCount: 2
Fore
SplineSet
200 -40 m 1,0,-1
 200 1460 l 1,1,-1
 390 1550 l 1,2,-1
 400 1550 l 1,3,-1
 400 50 l 1,4,-1
 210 -40 l 1,5,-1
 200 -40 l 1,0,-1
EndSplineSet
Validated: 3073
EndChar

StartChar: m
Encoding: 109 109 80
Width: 1760
GlyphClass: 2
Flags: W
HStem: -40 21G<150 202.222 780 832.222 1410 1462.22> 1010 110<423.814 705.077 1055.01 1335.69>
VStem: 150 200<50 900.778> 780 200<50 938.28> 1410 200<50 901.743>
CounterMasks: 1 38
LayerCount: 2
Fore
SplineSet
150 -40 m 1,0,-1
 150 720 l 2,1,2
 150 885 150 885 274 1007 c 0,3,4
 390 1120 390 1120 565 1120 c 0,5,6
 724 1120 724 1120 840 1004 c 0,7,8
 862 982 862 982 880 952 c 1,9,10
 898 981 898 981 920 1003 c 0,11,12
 1045 1120 1045 1120 1195 1120 c 0,13,14
 1368 1120 1368 1120 1486 1007 c 0,15,16
 1610 887 1610 887 1610 720 c 2,17,-1
 1610 50 l 1,18,-1
 1420 -40 l 1,19,-1
 1410 -40 l 1,20,-1
 1410 788 l 2,21,22
 1410 903 1410 903 1347.5 956.5 c 128,-1,23
 1285 1010 1285 1010 1195 1010 c 128,-1,24
 1105 1010 1105 1010 1042.5 956.5 c 128,-1,25
 980 903 980 903 980 788 c 2,26,-1
 980 50 l 1,27,-1
 790 -40 l 1,28,-1
 780 -40 l 1,29,-1
 780 788 l 2,30,31
 780 903 780 903 717.5 956.5 c 128,-1,32
 655 1010 655 1010 565 1010 c 128,-1,33
 475 1010 475 1010 412.5 956.5 c 128,-1,34
 350 903 350 903 350 788 c 2,35,-1
 350 50 l 1,36,-1
 160 -40 l 1,37,-1
 150 -40 l 1,0,-1
EndSplineSet
Validated: 1
EndChar

StartChar: n
Encoding: 110 110 81
Width: 1130
GlyphClass: 2
Flags: W
HStem: -40 21G<150 202.222 780 832.222> 1010 110<423.814 705.694>
VStem: 150 200<50 900.778> 780 200<50 901.743>
LayerCount: 2
Fore
SplineSet
150 -40 m 9,0,-1
 150 720 l 2,1,2
 150 885 150 885 274 1007 c 0,3,4
 390 1120 390 1120 565 1120 c 0,5,6
 738 1120 738 1120 856 1007 c 0,7,8
 980 887 980 887 980 720 c 2,9,-1
 980 50 l 17,10,-1
 790 -40 l 1,11,-1
 780 -40 l 9,12,-1
 780 788 l 2,13,14
 780 903 780 903 717.5 956.5 c 128,-1,15
 655 1010 655 1010 565 1010 c 128,-1,16
 475 1010 475 1010 412.5 956.5 c 128,-1,17
 350 903 350 903 350 788 c 2,18,-1
 350 50 l 17,19,-1
 160 -40 l 1,20,-1
 150 -40 l 9,0,-1
EndSplineSet
Validated: 1
EndChar

StartChar: o
Encoding: 111 111 82
Width: 1130
GlyphClass: 2
Flags: W
HStem: -20 110<424.306 706.186> 1010 110<423.814 705.694>
VStem: 150 200<198.257 900.778> 780 200<199.222 901.743>
LayerCount: 2
Fore
SplineSet
150 380 m 2,0,-1
 150 720 l 2,1,2
 150 885 150 885 274 1007 c 0,3,4
 390 1120 390 1120 565 1120 c 0,5,6
 738 1120 738 1120 856 1007 c 0,7,8
 980 887 980 887 980 720 c 2,9,-1
 980 380 l 2,10,11
 980 215 980 215 856 93 c 0,12,13
 740 -20 740 -20 565 -20 c 0,14,15
 392 -20 392 -20 274 93 c 0,16,17
 150 213 150 213 150 380 c 2,0,-1
350 312 m 2,18,19
 350 197 350 197 412.5 143.5 c 128,-1,20
 475 90 475 90 565 90 c 128,-1,21
 655 90 655 90 717.5 143.5 c 128,-1,22
 780 197 780 197 780 312 c 10,23,-1
 780 788 l 2,24,25
 780 903 780 903 717.5 956.5 c 128,-1,26
 655 1010 655 1010 565 1010 c 128,-1,27
 475 1010 475 1010 412.5 956.5 c 128,-1,28
 350 903 350 903 350 788 c 2,29,-1
 350 312 l 2,18,19
EndSplineSet
Validated: 1
EndChar

StartChar: p
Encoding: 112 112 83
Width: 1180
GlyphClass: 2
Flags: W
HStem: -450 21G<200 252.222> -20 110<474.992 756.186> 1010 110<473.814 755.694>
VStem: 200 200<-360 65 161.72 900.778> 830 200<199.222 901.743>
LayerCount: 2
Fore
SplineSet
400 312 m 2,0,1
 400 197 400 197 462.5 143.5 c 128,-1,2
 525 90 525 90 615 90 c 128,-1,3
 705 90 705 90 767.5 143.5 c 128,-1,4
 830 197 830 197 830 312 c 10,5,-1
 830 788 l 2,6,7
 830 903 830 903 767.5 956.5 c 128,-1,8
 705 1010 705 1010 615 1010 c 128,-1,9
 525 1010 525 1010 462.5 956.5 c 128,-1,10
 400 903 400 903 400 788 c 2,11,-1
 400 312 l 2,0,1
1030 720 m 2,12,-1
 1030 380 l 2,13,14
 1030 215 1030 215 906 93 c 0,15,16
 790 -20 790 -20 615 -20 c 0,17,18
 483 -20 483 -20 400 65 c 1,19,-1
 400 -360 l 1,20,-1
 210 -450 l 1,21,-1
 200 -450 l 1,22,-1
 200 720 l 2,23,24
 200 885 200 885 324 1007 c 0,25,26
 440 1120 440 1120 615 1120 c 0,27,28
 788 1120 788 1120 906 1007 c 0,29,30
 1030 887 1030 887 1030 720 c 2,12,-1
EndSplineSet
Validated: 1
EndChar

StartChar: q
Encoding: 113 113 84
Width: 1180
GlyphClass: 2
Flags: W
HStem: -450 21G<780 832.222> -20 110<424.306 705.101> 1010 110<423.814 705.694>
VStem: 150 200<198.257 900.778> 780 200<-360 65 161.72 901.743>
LayerCount: 2
Fore
SplineSet
350 312 m 2,0,1
 350 197 350 197 412.5 143.5 c 128,-1,2
 475 90 475 90 565 90 c 128,-1,3
 655 90 655 90 717.5 143.5 c 128,-1,4
 780 197 780 197 780 312 c 10,5,-1
 780 788 l 2,6,7
 780 903 780 903 717.5 956.5 c 128,-1,8
 655 1010 655 1010 565 1010 c 128,-1,9
 475 1010 475 1010 412.5 956.5 c 128,-1,10
 350 903 350 903 350 788 c 2,11,-1
 350 312 l 2,0,1
980 720 m 2,12,-1
 980 -360 l 1,13,-1
 790 -450 l 1,14,-1
 780 -450 l 1,15,-1
 780 65 l 1,16,17
 704 -20 704 -20 565 -20 c 0,18,19
 392 -20 392 -20 274 93 c 0,20,21
 150 213 150 213 150 380 c 2,22,-1
 150 720 l 2,23,24
 150 885 150 885 274 1007 c 0,25,26
 390 1120 390 1120 565 1120 c 0,27,28
 738 1120 738 1120 856 1007 c 0,29,30
 980 887 980 887 980 720 c 2,12,-1
EndSplineSet
Validated: 1
EndChar

StartChar: r
Encoding: 114 114 85
Width: 720
GlyphClass: 2
Flags: W
HStem: -40 21G<150 202.222> 1010 110<424.46 652>
VStem: 150 200<50 900.778>
LayerCount: 2
Fore
SplineSet
150 -40 m 9,0,-1
 150 720 l 2,1,2
 150 885 150 885 274 1007 c 0,3,4
 390 1120 390 1120 565 1120 c 1,5,-1
 700 1120 l 1,6,-1
 700 1110 l 1,7,-1
 652 1010 l 1,8,-1
 565 1010 l 1,9,10
 475 1010 475 1010 412.5 956.5 c 128,-1,11
 350 903 350 903 350 788 c 2,12,-1
 350 50 l 17,13,-1
 160 -40 l 1,14,-1
 150 -40 l 9,0,-1
EndSplineSet
Validated: 1
EndChar

StartChar: s
Encoding: 115 115 86
Width: 1070
GlyphClass: 2
Flags: W
HStem: -20 110<398.847 672.392> 556 110<383.883 688.756> 1010 110<396.79 632.282>
VStem: 120 200<170.44 353> 162 190<695.501 964.129> 679 200<865.209 962.479> 754 196<182.193 494.356>
LayerCount: 2
Fore
SplineSet
120 353 m 1,0,-1
 310 443 l 1,1,-1
 320 443 l 9,2,-1
 320 315 l 18,3,4
 320 203 320 203 385 145 c 0,5,6
 447 90 447 90 535 90 c 0,7,8
 637 90 637 90 694 155 c 0,9,10
 754 222 754 222 754 348 c 0,11,12
 754 463 754 463 690 513 c 0,13,14
 635 556 635 556 534 556 c 0,15,16
 341 556 341 556 246 633 c 0,17,18
 162 701 162 701 162 819 c 0,19,20
 162 958 162 958 289 1049 c 0,21,22
 388 1120 388 1120 535 1120 c 0,23,24
 676 1120 676 1120 780 1032 c 0,25,26
 860 963 860 963 879 872 c 1,27,-1
 689 782 l 1,28,-1
 679 782 l 9,29,-1
 679 859 l 2,30,31
 679 909 679 909 649 948 c 0,32,33
 601 1010 601 1010 512 1010 c 0,34,35
 441 1010 441 1010 396 966 c 0,36,37
 352 921 352 921 352 825 c 0,38,39
 352 724 352 724 406 687 c 0,40,41
 436 666 436 666 534 666 c 24,42,43
 746 666 746 666 852 577 c 0,44,45
 950 495 950 495 950 340 c 0,46,47
 950 210 950 210 835 92 c 0,48,49
 726 -20 726 -20 535 -20 c 0,50,51
 362 -20 362 -20 244 76 c 0,52,53
 120 177 120 177 120 353 c 1,0,-1
EndSplineSet
Validated: 1
EndChar

StartChar: t
Encoding: 116 116 87
Width: 764
GlyphClass: 2
Flags: W
HStem: -40 21G<282 334.222> 990 110<72 282 482 692> 1530 20G<429.778 482>
VStem: 282 200<50 990 1100 1460>
LayerCount: 2
Fore
SplineSet
282 -40 m 1,0,-1
 282 990 l 1,1,-1
 25 990 l 1,2,-1
 25 1000 l 1,3,-1
 72 1100 l 1,4,-1
 282 1100 l 1,5,-1
 282 1460 l 1,6,-1
 472 1550 l 1,7,-1
 482 1550 l 1,8,-1
 482 1100 l 1,9,-1
 739 1100 l 1,10,-1
 739 1090 l 1,11,-1
 692 990 l 1,12,-1
 482 990 l 1,13,-1
 482 50 l 1,14,-1
 292 -40 l 1,15,-1
 282 -40 l 1,0,-1
EndSplineSet
Validated: 1
EndChar

StartChar: u
Encoding: 117 117 88
Width: 1130
GlyphClass: 2
Flags: W
HStem: -20 110<424.306 706.186> 1120 20G<297.778 350 927.778 980>
VStem: 150 200<198.257 1050> 780 200<199.222 1050>
LayerCount: 2
Fore
SplineSet
150 1050 m 17,0,-1
 340 1140 l 1,1,-1
 350 1140 l 9,2,-1
 350 312 l 2,3,4
 350 197 350 197 412.5 143.5 c 128,-1,5
 475 90 475 90 565 90 c 128,-1,6
 655 90 655 90 717.5 143.5 c 128,-1,7
 780 197 780 197 780 312 c 2,8,-1
 780 1050 l 17,9,-1
 970 1140 l 1,10,-1
 980 1140 l 9,11,-1
 980 380 l 2,12,13
 980 215 980 215 856 93 c 0,14,15
 740 -20 740 -20 565 -20 c 0,16,17
 392 -20 392 -20 274 93 c 0,18,19
 150 213 150 213 150 380 c 2,20,-1
 150 1050 l 17,0,-1
EndSplineSet
Validated: 1
EndChar

StartChar: v
Encoding: 118 118 89
Width: 1037
GlyphClass: 2
Flags: W
HStem: -40 21G<428.969 488.195> 1120 20G<180.805 239.971 867.051 926.041>
DStem2: 233 1140 50 1058 0.331651 -0.943402<16.6668 975.333> 554 219 619 42 0.331032 0.94362<0 966.173>
LayerCount: 2
Fore
SplineSet
436 -40 m 1,0,-1
 50 1058 l 1,1,-1
 223 1140 l 1,2,-1
 233 1140 l 1,3,-1
 554 219 l 1,4,-1
 874 1140 l 1,5,-1
 884 1140 l 1,6,-1
 987 1091 l 1,7,-1
 619 42 l 1,8,-1
 446 -40 l 1,9,-1
 436 -40 l 1,0,-1
EndSplineSet
Validated: 1
EndChar

StartChar: w
Encoding: 119 119 90
Width: 1760
GlyphClass: 2
Flags: W
HStem: -20 110<424.306 704.993 1054.92 1336.19> 1120 20G<297.778 350 927.778 980 1557.78 1610>
VStem: 150 200<198.257 1050> 780 200<161.72 1050> 1410 200<199.222 1050>
CounterMasks: 1 38
LayerCount: 2
Fore
SplineSet
150 1050 m 1,0,-1
 340 1140 l 1,1,-1
 350 1140 l 1,2,-1
 350 312 l 2,3,4
 350 197 350 197 412.5 143.5 c 128,-1,5
 475 90 475 90 565 90 c 128,-1,6
 655 90 655 90 717.5 143.5 c 128,-1,7
 780 197 780 197 780 312 c 2,8,-1
 780 1050 l 1,9,-1
 970 1140 l 1,10,-1
 980 1140 l 1,11,-1
 980 312 l 2,12,13
 980 197 980 197 1042.5 143.5 c 128,-1,14
 1105 90 1105 90 1195 90 c 128,-1,15
 1285 90 1285 90 1347.5 143.5 c 128,-1,16
 1410 197 1410 197 1410 312 c 2,17,-1
 1410 1050 l 1,18,-1
 1600 1140 l 1,19,-1
 1610 1140 l 1,20,-1
 1610 380 l 2,21,22
 1610 215 1610 215 1486 93 c 0,23,24
 1370 -20 1370 -20 1195 -20 c 0,25,26
 1036 -20 1036 -20 920 96 c 0,27,28
 898 118 898 118 880 148 c 1,29,30
 862 119 862 119 840 97 c 0,31,32
 715 -20 715 -20 565 -20 c 0,33,34
 392 -20 392 -20 274 93 c 0,35,36
 150 213 150 213 150 380 c 2,37,-1
 150 1050 l 1,0,-1
EndSplineSet
Validated: 1
EndChar

StartChar: x
Encoding: 120 120 91
Width: 995
GlyphClass: 2
Flags: W
HStem: -40 21G<143 207.752 719.165 783.439> 1120 20G<212.831 276.862 787.264 852>
DStem2: 265 1140 80 1057 0.509416 -0.860521<0 505.756 746.186 1252.8> 80 10 195 -40 0.537358 0.843354<19.6285 536.716 824.181 1339.89>
LayerCount: 2
Fore
SplineSet
185 -40 m 1,0,-1
 80 10 l 1,1,-1
 402 515 l 1,2,-1
 80 1057 l 1,3,-1
 255 1140 l 1,4,-1
 265 1140 l 1,5,-1
 523 705 l 1,6,-1
 800 1140 l 1,7,-1
 810 1140 l 1,8,-1
 915 1090 l 1,9,-1
 593 585 l 1,10,-1
 915 42 l 1,11,-1
 741 -40 l 1,12,-1
 731 -40 l 1,13,-1
 473 396 l 1,14,-1
 195 -40 l 1,15,-1
 185 -40 l 1,0,-1
EndSplineSet
Validated: 1
EndChar

StartChar: y
Encoding: 121 121 92
Width: 1180
GlyphClass: 2
Flags: W
HStem: -430 110<305 705.95> -20 110<424.799 705.589> 1120 20G<297.778 350 927.778 980>
VStem: 150 200<197.292 1050> 780 200<-210.778 65 161.72 1050>
LayerCount: 2
Fore
SplineSet
150 380 m 2,0,-1
 150 1050 l 1,1,-1
 340 1140 l 1,2,-1
 350 1140 l 1,3,-1
 350 312 l 2,4,5
 350 197 350 197 412.5 143.5 c 128,-1,6
 475 90 475 90 565 90 c 128,-1,7
 655 90 655 90 717.5 143.5 c 128,-1,8
 780 197 780 197 780 312 c 2,9,-1
 780 1050 l 1,10,-1
 970 1140 l 1,11,-1
 980 1140 l 1,12,-1
 980 -30 l 2,13,14
 980 -195 980 -195 856 -317 c 0,15,16
 740 -430 740 -430 565 -430 c 2,17,-1
 257 -430 l 1,18,-1
 257 -420 l 1,19,-1
 305 -320 l 1,20,-1
 565 -320 l 2,21,22
 655 -320 655 -320 718 -266 c 0,23,24
 780 -213 780 -213 780 -98 c 2,25,-1
 780 65 l 1,26,27
 706 -20 706 -20 565 -20 c 0,28,29
 394 -20 394 -20 274 93 c 0,30,31
 150 211 150 211 150 380 c 2,0,-1
EndSplineSet
Validated: 1
EndChar

StartChar: z
Encoding: 122 122 93
Width: 1053
GlyphClass: 2
Flags: W
HStem: 0 110<387 906> 990 110<157 657>
DStem2: 100 10 387 110 0.494131 0.869387<228.754 1127.23>
LayerCount: 2
Fore
SplineSet
100 0 m 1,0,-1
 100 10 l 1,1,-1
 657 990 l 1,2,-1
 110 990 l 1,3,-1
 110 1000 l 1,4,-1
 157 1100 l 1,5,-1
 943 1100 l 1,6,-1
 943 1090 l 1,7,-1
 387 110 l 5,8,-1
 953 110 l 1,9,-1
 953 100 l 1,10,-1
 906 0 l 1,11,-1
 100 0 l 1,0,-1
EndSplineSet
Validated: 1
EndChar

StartChar: braceleft
Encoding: 123 123 94
Width: 825
GlyphClass: 2
Flags: W
HStem: -240 110<609.998 775> 664 182<131 270> 1640 110<609.998 775>
VStem: 270 200<40.8711 664 846 1469.13>
CounterMasks: 1 e0
LayerCount: 2
Fore
SplineSet
775 -240 m 1,0,1
 547 -240 547 -240 405 -95 c 0,2,3
 270 43 270 43 270 260 c 2,4,-1
 270 664 l 1,5,-1
 50 664 l 1,6,-1
 50 674 l 1,7,-1
 131 846 l 1,8,-1
 270 846 l 1,9,-1
 270 1250 l 2,10,11
 270 1467 270 1467 405 1605 c 0,12,13
 547 1750 547 1750 775 1750 c 1,14,-1
 775 1640 l 1,15,16
 629 1639 629 1639 542 1537 c 0,17,18
 470 1452 470 1452 470 1320 c 2,19,-1
 470 190 l 2,20,21
 470 58 470 58 542 -27 c 0,22,23
 629 -129 629 -129 775 -130 c 1,24,-1
 775 -240 l 1,0,1
EndSplineSet
Validated: 1
EndChar

StartChar: bar
Encoding: 124 124 95
Width: 666
GlyphClass: 2
Flags: W
VStem: 250 166<-166 1676>
LayerCount: 2
Fore
SplineSet
250 -240 m 1,0,-1
 250 1676 l 1,1,-1
 406 1750 l 1,2,-1
 416 1750 l 1,3,-1
 416 -166 l 1,4,-1
 260 -240 l 1,5,-1
 250 -240 l 1,0,-1
EndSplineSet
Validated: 3073
EndChar

StartChar: braceright
Encoding: 125 125 96
Width: 825
GlyphClass: 2
Flags: W
HStem: -240 110<50 215.002> 664 182<555 694> 1640 110<50 215.002>
VStem: 355 200<40.8711 664 846 1469.13>
CounterMasks: 1 e0
LayerCount: 2
Fore
SplineSet
50 -240 m 1,0,-1
 50 -130 l 1,1,2
 196 -129 196 -129 283 -27 c 0,3,4
 355 58 355 58 355 190 c 2,5,-1
 355 1320 l 2,6,7
 355 1452 355 1452 283 1537 c 0,8,9
 196 1639 196 1639 50 1640 c 1,10,-1
 50 1750 l 1,11,12
 278 1750 278 1750 420 1605 c 0,13,14
 555 1467 555 1467 555 1250 c 2,15,-1
 555 846 l 1,16,-1
 775 846 l 1,17,-1
 775 836 l 1,18,-1
 694 664 l 1,19,-1
 555 664 l 1,20,-1
 555 260 l 2,21,22
 555 43 555 43 420 -95 c 0,23,24
 278 -240 278 -240 50 -240 c 1,0,-1
EndSplineSet
Validated: 1
EndChar

StartChar: asciitilde
Encoding: 126 126 97
Width: 1138
GlyphClass: 2
Flags: W
HStem: 583 144<680.182 854.594> 800 144<282.406 458.661>
VStem: 150 102<627 773.371> 884 104<753.629 900>
LayerCount: 2
Fore
SplineSet
150 583 m 1,0,1
 150 944 150 944 387 944 c 0,2,3
 521 944 521 944 608 843 c 24,4,5
 708 727 708 727 766 727 c 0,6,7
 884 727 884 727 884 900 c 1,8,-1
 976 944 l 9,9,-1
 988 944 l 17,10,11
 988 583 988 583 751 583 c 0,12,13
 611 583 611 583 528 684 c 0,14,15
 433 800 433 800 370 800 c 0,16,17
 252 800 252 800 252 627 c 1,18,-1
 160 583 l 1,19,-1
 150 583 l 1,0,1
EndSplineSet
Validated: 1
EndChar

StartChar: exclamdown
Encoding: 161 161 99
Width: 600
GlyphClass: 2
Flags: W
HStem: -40 21G<200 252.222> 1285 245<216.097 383.903>
VStem: 180 240<1322.13 1492.87> 200 200<50 1000>
LayerCount: 2
Fore
SplineSet
420 1407.5 m 128,-1,1
 420 1357 420 1357 385 1321 c 128,-1,2
 350 1285 350 1285 300 1285 c 128,-1,3
 250 1285 250 1285 215 1321 c 128,-1,4
 180 1357 180 1357 180 1407.5 c 128,-1,5
 180 1458 180 1458 215 1494 c 128,-1,6
 250 1530 250 1530 300 1530 c 128,-1,7
 350 1530 350 1530 385 1494 c 128,-1,0
 420 1458 420 1458 420 1407.5 c 128,-1,1
210 -40 m 1,8,-1
 200 -40 l 1,9,-1
 200 1000 l 1,10,-1
 390 1090 l 1,11,-1
 400 1090 l 1,12,-1
 400 50 l 1,13,-1
 210 -40 l 1,8,-1
EndSplineSet
Validated: 1
EndChar

StartChar: cent
Encoding: 162 162 100
Width: 1130
GlyphClass: 2
Flags: W
VStem: 150 200<197.774 901.261> 507 116<-190 -10.0957 96 1004 1110.1 1290> 780 200<198.739 353 747 908.459>
CounterMasks: 1 e0
LayerCount: 2
Fore
SplineSet
507 -240 m 1,0,-1
 507 -17 l 1,1,2
 372 -1 372 -1 274 93 c 0,3,4
 150 212 150 212 150 380 c 2,5,-1
 150 720 l 2,6,7
 150 886 150 886 274 1007 c 0,8,9
 370 1101 370 1101 507 1117 c 1,10,-1
 507 1290 l 1,11,-1
 613 1340 l 1,12,-1
 623 1340 l 1,13,-1
 623 1117 l 1,14,15
 757 1100 757 1100 856 1007 c 0,16,17
 980 891 980 891 980 749 c 2,18,-1
 980 747 l 1,19,-1
 790 657 l 1,20,-1
 780 657 l 1,21,-1
 780 788 l 2,22,23
 780 903 780 903 718 956 c 0,24,25
 676 992 676 992 623 1004 c 1,26,-1
 623 96 l 1,27,28
 676 108 676 108 718 144 c 0,29,30
 780 198 780 198 780 353 c 1,31,-1
 970 443 l 1,32,-1
 980 443 l 1,33,-1
 980 380 l 2,34,35
 980 214 980 214 856 93 c 0,36,37
 760 -1 760 -1 623 -17 c 1,38,-1
 623 -190 l 1,39,-1
 517 -240 l 1,40,-1
 507 -240 l 1,0,-1
507 96 m 1,41,-1
 507 1004 l 1,42,43
 454 992 454 992 412 956 c 0,44,45
 350 903 350 903 350 788 c 2,46,-1
 350 312 l 2,47,48
 350 197 350 197 412 144 c 0,49,50
 454 108 454 108 507 96 c 1,41,-1
EndSplineSet
Validated: 1
EndChar

StartChar: sterling
Encoding: 163 163 101
Width: 1335
GlyphClass: 2
Flags: W
HStem: 0 110<147 300 500 1160> 700 110<147 300 500 847> 1420 110<578.438 848.614>
VStem: 300 200<110 700 810 1336.74> 930 200<1137 1338.67>
LayerCount: 2
Fore
SplineSet
100 0 m 1,0,-1
 100 10 l 1,1,-1
 147 110 l 1,2,-1
 300 110 l 1,3,-1
 300 700 l 1,4,-1
 100 700 l 1,5,-1
 100 710 l 1,6,-1
 147 810 l 1,7,-1
 300 810 l 1,8,-1
 300 1137 l 2,9,10
 300 1334 300 1334 424 1434 c 0,11,12
 543 1530 543 1530 715 1530 c 0,13,14
 880 1530 880 1530 1006 1434 c 0,15,16
 1130 1338 1130 1338 1130 1137 c 1,17,-1
 940 1047 l 1,18,-1
 930 1047 l 1,19,-1
 930 1185 l 2,20,21
 930 1310 930 1310 864.5 1365 c 128,-1,22
 799 1420 799 1420 715 1420 c 0,23,24
 620 1420 620 1420 560 1359 c 128,-1,25
 500 1298 500 1298 500 1185 c 2,26,-1
 500 810 l 1,27,-1
 894 810 l 1,28,-1
 894 800 l 1,29,-1
 847 700 l 1,30,-1
 500 700 l 1,31,-1
 500 110 l 1,32,-1
 1207 110 l 1,33,-1
 1207 100 l 1,34,-1
 1160 0 l 1,35,-1
 100 0 l 1,0,-1
EndSplineSet
Validated: 1
EndChar

StartChar: currency
Encoding: 164 164 102
Width: 1395
GlyphClass: 2
Flags: W
HStem: 246 110<533.895 859.272> 1138 110<535.168 864.2>
VStem: 192 200<526.604 969.235> 1002 200<524.652 969.323>
LayerCount: 2
Fore
SplineSet
1202 746 m 0,0,1
 1202 576 1202 576 1115 450 c 1,2,-1
 1245 320 l 1,3,-1
 1238 313 l 1,4,-1
 1059 249 l 1,5,-1
 985 322 l 1,6,7
 867 246 867 246 697 246 c 0,8,9
 521 246 521 246 400 329 c 1,10,-1
 336 265 l 1,11,-1
 157 329 l 1,12,-1
 150 336 l 1,13,-1
 273 459 l 1,14,15
 192 582 192 582 192 748 c 0,16,17
 192 918 192 918 279 1044 c 1,18,-1
 150 1174 l 1,19,-1
 157 1181 l 1,20,-1
 335 1245 l 1,21,-1
 409 1172 l 1,22,23
 527 1248 527 1248 697 1248 c 128,-1,24
 867 1248 867 1248 985 1172 c 1,25,-1
 1059 1245 l 1,26,-1
 1238 1181 l 1,27,-1
 1245 1174 l 1,28,-1
 1115 1044 l 1,29,30
 1202 918 1202 918 1202 746 c 0,0,1
697 356 m 0,31,32
 836 356 836 356 930 459 c 0,33,34
 1002 538 1002 538 1002 748 c 0,35,36
 1002 947 1002 947 931 1035 c 0,37,38
 847 1138 847 1138 697 1138 c 0,39,40
 559 1138 559 1138 465 1035 c 0,41,42
 392 955 392 955 392 748 c 0,43,44
 392 540 392 540 464 459 c 0,45,46
 556 356 556 356 697 356 c 0,31,32
EndSplineSet
Validated: 1
EndChar

StartChar: yen
Encoding: 165 165 103
Width: 1278
GlyphClass: 2
Flags: W
HStem: -40 21G<516 568.222> 461 110<268 498 736 1005> 685 110<268 398 842 1005> 1530 20G<232.831 293.821 1053.73 1115>
VStem: 516 200<50 461>
DStem2: 285 1550 100 1467 0.405949 -0.913896<0.752743 735.863> 713 795 842 795 0.429632 0.903004<55.4225 832.139>
LayerCount: 2
Fore
SplineSet
516 -40 m 1,0,-1
 516 461 l 1,1,-1
 221 461 l 1,2,-1
 221 471 l 1,3,-1
 268 571 l 1,4,-1
 498 571 l 1,5,-1
 447 685 l 1,6,-1
 221 685 l 1,7,-1
 221 695 l 1,8,-1
 268 795 l 1,9,-1
 398 795 l 1,10,-1
 100 1467 l 1,11,-1
 275 1550 l 1,12,-1
 285 1550 l 1,13,-1
 618 795 l 1,14,-1
 713 795 l 1,15,-1
 1063 1550 l 1,16,-1
 1073 1550 l 1,17,-1
 1178 1500 l 1,18,-1
 842 795 l 1,19,-1
 1052 795 l 1,20,-1
 1052 785 l 1,21,-1
 1005 685 l 1,22,-1
 790 685 l 1,23,-1
 736 571 l 1,24,-1
 1052 571 l 1,25,-1
 1052 561 l 1,26,-1
 1005 461 l 1,27,-1
 716 461 l 1,28,-1
 716 50 l 1,29,-1
 526 -40 l 1,30,-1
 516 -40 l 1,0,-1
EndSplineSet
Validated: 1
EndChar

StartChar: brokenbar
Encoding: 166 166 104
Width: 666
GlyphClass: 2
Flags: W
VStem: 250 166<-166 587 923 1676>
LayerCount: 2
Fore
SplineSet
250 -240 m 1,0,-1
 250 587 l 1,1,-1
 406 661 l 1,2,-1
 416 661 l 1,3,-1
 416 -166 l 1,4,-1
 260 -240 l 1,5,-1
 250 -240 l 1,0,-1
406 1750 m 1,6,-1
 416 1750 l 1,7,-1
 416 923 l 1,8,-1
 260 849 l 1,9,-1
 250 849 l 1,10,-1
 250 1676 l 1,11,-1
 406 1750 l 1,6,-1
EndSplineSet
Validated: 3073
EndChar

StartChar: section
Encoding: 167 167 105
Width: 1130
GlyphClass: 2
Flags: W
HStem: -20 110<467.718 703.21> 434 110<411.244 716.117> 966 110<413.883 718.756> 1420 110<426.79 662.282>
VStem: 150 196<605.644 895.243> 192 190<1105.5 1374.13> 221 200<137.521 234.791> 709 200<1275.21 1372.48> 748 190<135.871 404.499> 784 196<614.757 904.356>
LayerCount: 2
Fore
SplineSet
221 228 m 1,0,-1
 411 318 l 1,1,-1
 421 318 l 9,2,-1
 421 241 l 2,3,4
 421 191 421 191 451 152 c 0,5,6
 499 90 499 90 588 90 c 0,7,8
 659 90 659 90 704 134 c 0,9,10
 748 179 748 179 748 275 c 0,11,12
 748 376 748 376 694 413 c 0,13,14
 664 434 664 434 566 434 c 24,15,16
 354 434 354 434 248 523 c 0,17,18
 150 605 150 605 150 760 c 0,19,20
 150 864 150 864 224 961 c 9,21,-1
 366 877 l 17,22,23
 346 824 346 824 346 752 c 0,24,25
 346 637 346 637 410 587 c 0,26,27
 465 544 465 544 566 544 c 0,28,29
 759 544 759 544 854 467 c 0,30,31
 938 399 938 399 938 281 c 0,32,33
 938 142 938 142 811 51 c 0,34,35
 712 -20 712 -20 565 -20 c 0,36,37
 424 -20 424 -20 320 68 c 0,38,39
 240 137 240 137 221 228 c 1,0,-1
909 1282 m 1,40,-1
 719 1192 l 1,41,-1
 709 1192 l 9,42,-1
 709 1269 l 2,43,44
 709 1319 709 1319 679 1358 c 0,45,46
 631 1420 631 1420 542 1420 c 0,47,48
 471 1420 471 1420 426 1376 c 0,49,50
 382 1331 382 1331 382 1235 c 0,51,52
 382 1134 382 1134 436 1097 c 0,53,54
 466 1076 466 1076 564 1076 c 24,55,56
 776 1076 776 1076 882 987 c 0,57,58
 980 905 980 905 980 750 c 0,59,60
 980 646 980 646 906 549 c 9,61,-1
 764 633 l 17,62,63
 784 686 784 686 784 758 c 0,64,65
 784 873 784 873 720 923 c 0,66,67
 665 966 665 966 564 966 c 0,68,69
 371 966 371 966 276 1043 c 0,70,71
 192 1111 192 1111 192 1229 c 0,72,73
 192 1368 192 1368 319 1459 c 0,74,75
 418 1530 418 1530 565 1530 c 0,76,77
 706 1530 706 1530 810 1442 c 0,78,79
 890 1373 890 1373 909 1282 c 1,40,-1
EndSplineSet
Validated: 1
EndChar

StartChar: dieresis
Encoding: 168 168 106
Width: 840
GlyphClass: 2
Flags: W
HStem: 1285 245<186.097 353.903 486.097 653.903>
VStem: 150 240<1322.13 1492.87> 450 240<1322.13 1492.87>
LayerCount: 2
Fore
SplineSet
450 1407.5 m 128,-1,1
 450 1458 450 1458 485 1494 c 128,-1,2
 520 1530 520 1530 570 1530 c 128,-1,3
 620 1530 620 1530 655 1494 c 128,-1,4
 690 1458 690 1458 690 1407.5 c 128,-1,5
 690 1357 690 1357 655 1321 c 128,-1,6
 620 1285 620 1285 570 1285 c 128,-1,7
 520 1285 520 1285 485 1321 c 128,-1,0
 450 1357 450 1357 450 1407.5 c 128,-1,1
150 1407.5 m 128,-1,9
 150 1458 150 1458 185 1494 c 128,-1,10
 220 1530 220 1530 270 1530 c 128,-1,11
 320 1530 320 1530 355 1494 c 128,-1,12
 390 1458 390 1458 390 1407.5 c 128,-1,13
 390 1357 390 1357 355 1321 c 128,-1,14
 320 1285 320 1285 270 1285 c 128,-1,15
 220 1285 220 1285 185 1321 c 128,-1,8
 150 1357 150 1357 150 1407.5 c 128,-1,9
EndSplineSet
Validated: 1
EndChar

StartChar: copyright
Encoding: 169 169 107
Width: 1401
GlyphClass: 2
Flags: W
HStem: 180 79<514.499 887.229> 320 89<607.202 802.978> 1093 87<607.715 801.255> 1251 80<511.931 889.969>
VStem: 150 74<566.018 943.982> 428 150<452.976 1049.05> 832 150<453.069 623 887 1048.96> 1176 75<560.265 949.908>
LayerCount: 2
Fore
SplineSet
982 678 m 1,0,-1
 982 612 l 2,1,2
 982 481 982 481 908 402 c 0,3,4
 832 320 832 320 698 320 c 0,5,6
 575 320 575 320 501 398 c 0,7,8
 428 475 428 475 428 608 c 2,9,-1
 428 891 l 2,10,11
 428 1024 428 1024 501 1101 c 0,12,13
 577 1180 577 1180 698 1180 c 0,14,15
 825 1180 825 1180 908 1097 c 0,16,17
 982 1023 982 1023 982 887 c 1,18,-1
 868 832 l 1,19,-1
 832 832 l 1,20,-1
 832 957 l 2,21,22
 832 1017 832 1017 803 1050 c 0,23,24
 765 1093 765 1093 706 1093 c 0,25,26
 649 1093 649 1093 607 1050 c 0,27,28
 578 1020 578 1020 578 957 c 2,29,-1
 578 545 l 2,30,31
 578 483 578 483 607 452 c 0,32,33
 647 409 647 409 706 409 c 128,-1,34
 765 409 765 409 803 452 c 0,35,36
 832 486 832 486 832 545 c 2,37,-1
 832 623 l 1,38,-1
 947 678 l 1,39,-1
 982 678 l 1,0,-1
701 1331 m 0,40,41
 811 1331 811 1331 911 1288 c 0,42,43
 1007 1247 1007 1247 1090 1161 c 0,44,45
 1170 1078 1170 1078 1211 975 c 0,46,47
 1251 874 1251 874 1251 754 c 0,48,49
 1251 638 1251 638 1211 535 c 0,50,51
 1173 437 1173 437 1090 350 c 0,52,53
 1011 267 1011 267 911 223 c 0,54,55
 813 180 813 180 701 180 c 0,56,57
 590 180 590 180 490 223 c 0,58,59
 394 264 394 264 311 350 c 0,60,61
 230 434 230 434 190 535 c 128,-1,62
 150 636 150 636 150 754 c 0,63,64
 150 873 150 873 190 975 c 128,-1,65
 230 1077 230 1077 311 1161 c 0,66,67
 392 1246 392 1246 490 1288.5 c 128,-1,68
 588 1331 588 1331 701 1331 c 0,40,41
701 1251 m 0,69,70
 603 1251 603 1251 520 1215 c 128,-1,71
 437 1179 437 1179 366 1105 c 0,72,73
 296 1032 296 1032 260 944 c 128,-1,74
 224 856 224 856 224 759 c 2,75,-1
 224 754 l 2,76,77
 224 655 224 655 260 566 c 0,78,79
 294 483 294 483 366 406 c 0,80,81
 436 332 436 332 519 296 c 0,82,83
 604 259 604 259 701 259 c 128,-1,84
 798 259 798 259 883 296 c 0,85,86
 966 332 966 332 1037 406 c 0,87,88
 1106 478 1106 478 1141 565 c 128,-1,89
 1176 652 1176 652 1176 754 c 0,90,91
 1176 857 1176 857 1141 945 c 0,92,93
 1107 1031 1107 1031 1037 1105 c 0,94,95
 968 1178 968 1178 883 1215 c 0,96,97
 798 1251 798 1251 701 1251 c 0,69,70
EndSplineSet
Validated: 1
EndChar

StartChar: ordfeminine
Encoding: 170 170 108
Width: 955
GlyphClass: 2
Flags: W
HStem: 664 182<231 724> 899 85<409.872 545.595> 1245 90<408.883 545.596> 1447 83<363.126 544.409>
VStem: 252 138<1001.28 1227.44> 565 140<1008.67 1222.27 1298 1422.29>
LayerCount: 2
Fore
SplineSet
307 1477 m 1,0,1
 374 1530 374 1530 471 1530 c 24,2,3
 572 1530 572 1530 636 1477 c 0,4,5
 705 1420 705 1420 705 1313 c 2,6,-1
 705 952 l 1,7,-1
 594 899 l 1,8,-1
 565 899 l 1,9,-1
 565 920 l 1,10,11
 532 899 532 899 484 899 c 8,12,13
 383 899 383 899 320 952 c 0,14,15
 252 1009 252 1009 252 1117 c 0,16,17
 252 1219 252 1219 324 1281 c 0,18,19
 388 1335 388 1335 471 1335 c 0,20,21
 526 1335 526 1335 564 1298 c 1,22,23
 564 1401 564 1401 540 1423 c 0,24,25
 514 1447 514 1447 478 1447 c 0,26,27
 434 1447 434 1447 401 1410 c 1,28,-1
 307 1477 l 1,0,1
150 664 m 1,29,-1
 150 674 l 1,30,-1
 231 846 l 1,31,-1
 805 846 l 1,32,-1
 805 836 l 1,33,-1
 724 664 l 1,34,-1
 150 664 l 1,29,-1
476 984 m 0,35,36
 511 984 511 984 540 1008 c 0,37,38
 565 1029 565 1029 565 1114.5 c 128,-1,39
 565 1200 565 1200 539 1223 c 0,40,41
 514 1245 514 1245 478 1245 c 0,42,43
 439 1245 439 1245 415 1222 c 0,44,45
 390 1198 390 1198 390 1113 c 128,-1,46
 390 1028 390 1028 416 1007 c 0,47,48
 443 984 443 984 476 984 c 0,35,36
EndSplineSet
Validated: 1
EndChar

StartChar: guillemotleft
Encoding: 171 171 109
Width: 1189
GlyphClass: 2
Flags: W
DStem2: 342 823 150 753 0.509697 -0.860354<0 484.241> 150 753 342 823 0.538107 0.842876<162.318 629.986> 727 823 535 753 0.509697 -0.860354<0 484.241> 535 753 727 823 0.538107 0.842876<162.318 629.986>
LayerCount: 2
Fore
SplineSet
874 1284 m 1,0,-1
 884 1284 l 1,1,-1
 989 1234 l 1,2,-1
 727 823 l 1,3,-1
 985 386 l 1,4,-1
 811 304 l 1,5,-1
 801 304 l 1,6,-1
 535 753 l 1,7,-1
 874 1284 l 1,0,-1
489 1284 m 1,8,-1
 499 1284 l 1,9,-1
 604 1234 l 1,10,-1
 342 823 l 1,11,-1
 600 386 l 1,12,-1
 426 304 l 1,13,-1
 416 304 l 1,14,-1
 150 753 l 1,15,-1
 489 1284 l 1,8,-1
EndSplineSet
Validated: 1
EndChar

StartChar: logicalnot
Encoding: 172 172 110
Width: 1214
GlyphClass: 2
Flags: W
HStem: 664 182<231 840>
LayerCount: 2
Fore
SplineSet
698 402 m 1,0,-1
 840 664 l 1,1,-1
 150 664 l 1,2,-1
 150 674 l 1,3,-1
 231 846 l 1,4,-1
 1064 846 l 1,5,-1
 1064 836 l 1,6,-1
 857 402 l 1,7,-1
 698 402 l 1,0,-1
EndSplineSet
Validated: 1
EndChar

StartChar: uni00AD
Encoding: 173 173 111
Width: 1214
GlyphClass: 2
Flags: W
HStem: 664 182<231 983>
LayerCount: 2
Fore
SplineSet
150 664 m 1,0,-1
 150 674 l 1,1,-1
 231 846 l 1,2,-1
 1064 846 l 1,3,-1
 1064 836 l 1,4,-1
 983 664 l 1,5,-1
 150 664 l 1,0,-1
EndSplineSet
Validated: 3073
EndChar

StartChar: registered
Encoding: 174 174 112
Width: 1401
GlyphClass: 2
Flags: W
HStem: 180 79<514.499 887.229> 590 89<595 686> 1068 87<595 799.684> 1251 80<511.834 889.969>
VStem: 150 74<566.018 943.982> 445 150<412 590 679 1068> 830 150<715.933 1030.44> 1176 75<560.265 949.908>
DStem2: 850 624 686 590 0.626759 -0.779213<0 218.874>
LayerCount: 2
Fore
SplineSet
701 1251 m 0,0,1
 603 1251 603 1251 520 1215 c 128,-1,2
 437 1179 437 1179 366 1105 c 0,3,4
 296 1032 296 1032 260 944 c 128,-1,5
 224 856 224 856 224 759 c 2,6,-1
 224 754 l 2,7,8
 224 655 224 655 260 566 c 0,9,10
 294 483 294 483 366 406 c 0,11,12
 436 332 436 332 519 296 c 0,13,14
 604 259 604 259 701 259 c 128,-1,15
 798 259 798 259 883 296 c 0,16,17
 966 332 966 332 1037 406 c 0,18,19
 1106 478 1106 478 1141 565 c 128,-1,20
 1176 652 1176 652 1176 754 c 0,21,22
 1176 857 1176 857 1141 945 c 0,23,24
 1107 1031 1107 1031 1037 1105 c 0,25,26
 968 1178 968 1178 883 1215 c 0,27,28
 798 1251 798 1251 701 1251 c 0,0,1
701 1331 m 0,29,30
 811 1331 811 1331 911 1288 c 0,31,32
 1007 1247 1007 1247 1090 1161 c 0,33,34
 1170 1078 1170 1078 1211 975 c 0,35,36
 1251 874 1251 874 1251 754 c 0,37,38
 1251 638 1251 638 1211 535 c 0,39,40
 1173 437 1173 437 1090 350 c 0,41,42
 1011 267 1011 267 911 223 c 0,43,44
 813 180 813 180 701 180 c 0,45,46
 590 180 590 180 490 223 c 0,47,48
 394 264 394 264 311 350 c 0,49,50
 230 434 230 434 190 535 c 128,-1,51
 150 636 150 636 150 754 c 0,52,53
 150 874 150 874 190 975 c 128,-1,54
 230 1076 230 1076 311 1161 c 0,55,56
 393 1246 393 1246 490 1288.5 c 128,-1,57
 587 1331 587 1331 701 1331 c 0,29,30
595 679 m 1,58,-1
 702 679 l 1,59,60
 762 680 762 680 801 722 c 0,61,62
 830 753 830 753 830 877 c 0,63,64
 830 995 830 995 801 1025 c 0,65,66
 759 1068 759 1068 702 1068 c 2,67,-1
 595 1068 l 1,68,-1
 595 679 l 1,58,-1
445 360 m 1,69,-1
 445 1103 l 1,70,-1
 559 1155 l 1,71,-1
 710 1155 l 2,72,73
 831 1155 831 1155 907 1076 c 0,74,75
 980 999 980 999 980 866 c 0,76,77
 980 744 980 744 907 668 c 0,78,79
 881 641 881 641 850 624 c 1,80,-1
 1014 414 l 1,81,-1
 895 360 l 1,82,-1
 871 360 l 1,83,-1
 686 590 l 1,84,-1
 595 590 l 1,85,-1
 595 412 l 1,86,-1
 481 360 l 1,87,-1
 445 360 l 1,69,-1
EndSplineSet
Validated: 1
EndChar

StartChar: macron
Encoding: 175 175 113
Width: 1214
GlyphClass: 2
Flags: W
HStem: 1328 182<231 983>
LayerCount: 2
Fore
SplineSet
150 1328 m 1,0,-1
 150 1338 l 1,1,-1
 231 1510 l 1,2,-1
 1064 1510 l 1,3,-1
 1064 1500 l 1,4,-1
 983 1328 l 1,5,-1
 150 1328 l 1,0,-1
EndSplineSet
Validated: 3073
EndChar

StartChar: degree
Encoding: 176 176 114
Width: 1130
GlyphClass: 2
Flags: W
HStem: 730 110<424.306 706.186> 1420 110<423.814 705.694>
VStem: 150 200<948.467 1311.05> 780 200<948.95 1311.53>
LayerCount: 2
Fore
SplineSet
780 1130 m 128,-1,1
 780 1313 780 1313 717.5 1366.5 c 128,-1,2
 655 1420 655 1420 565 1420 c 128,-1,3
 475 1420 475 1420 412.5 1366.5 c 128,-1,4
 350 1313 350 1313 350 1130 c 128,-1,5
 350 947 350 947 412.5 893.5 c 128,-1,6
 475 840 475 840 565 840 c 128,-1,7
 655 840 655 840 717.5 893.5 c 128,-1,0
 780 947 780 947 780 1130 c 128,-1,1
150 1130 m 0,8,9
 150 1295 150 1295 274 1417 c 0,10,11
 390 1530 390 1530 565 1530 c 0,12,13
 738 1530 738 1530 856 1417 c 0,14,15
 980 1297 980 1297 980 1130 c 0,16,17
 980 965 980 965 856 843 c 0,18,19
 740 730 740 730 565 730 c 0,20,21
 392 730 392 730 274 843 c 0,22,23
 150 963 150 963 150 1130 c 0,8,9
EndSplineSet
Validated: 1
EndChar

StartChar: plusminus
Encoding: 177 177 115
Width: 1214
GlyphClass: 2
Flags: W
HStem: 243 182<231 983> 835 182<231 516 698 983>
VStem: 516 182<550 835 1017 1302>
LayerCount: 2
Fore
SplineSet
150 243 m 1,0,-1
 150 253 l 1,1,-1
 231 425 l 1,2,-1
 1064 425 l 1,3,-1
 1064 415 l 1,4,-1
 983 243 l 1,5,-1
 150 243 l 1,0,-1
698 1383 m 1,6,-1
 698 1017 l 1,7,-1
 1064 1017 l 1,8,-1
 1064 1007 l 1,9,-1
 983 835 l 1,10,-1
 698 835 l 1,11,-1
 698 550 l 1,12,-1
 526 469 l 1,13,-1
 516 469 l 1,14,-1
 516 835 l 1,15,-1
 150 835 l 1,16,-1
 150 845 l 1,17,-1
 231 1017 l 1,18,-1
 516 1017 l 1,19,-1
 516 1302 l 1,20,-1
 688 1383 l 1,21,-1
 698 1383 l 1,6,-1
EndSplineSet
Validated: 3073
EndChar

StartChar: uni00B2
Encoding: 178 178 116
Width: 862
GlyphClass: 2
Flags: W
HStem: 730 100<321 681> 1132 21G<176.5 263.852> 1440 90<337.236 531.066>
VStem: 156 150<1168.97 1402.37> 558 154<1132.92 1405.49>
LayerCount: 2
Fore
SplineSet
150 730 m 1,0,-1
 150 766 l 1,1,-1
 176 822 l 1,2,-1
 444 1055 l 2,3,4
 558 1154 558 1154 558 1275 c 0,5,6
 558 1369 558 1369 531 1398 c 0,7,8
 491 1440 491 1440 434 1440 c 0,9,10
 375 1440 375 1440 336 1396 c 0,11,12
 306 1363 306 1363 306 1288 c 0,13,14
 306 1228 306 1228 335 1186 c 1,15,-1
 222 1132 l 1,16,-1
 197 1132 l 1,17,18
 156 1190 156 1190 156 1268 c 0,19,20
 156 1381 156 1381 226 1454 c 0,21,22
 299 1530 299 1530 432 1530 c 0,23,24
 563 1530 563 1530 637 1452 c 128,-1,25
 711 1374 711 1374 711 1268 c 0,26,27
 711 1127 711 1127 560 1012 c 2,28,-1
 321 830 l 1,29,-1
 712 830 l 1,30,-1
 712 794 l 1,31,-1
 681 730 l 1,32,-1
 150 730 l 1,0,-1
EndSplineSet
Validated: 1
EndChar

StartChar: uni00B3
Encoding: 179 179 117
Width: 855
GlyphClass: 2
Flags: W
HStem: 711 89<331.439 524.687> 1420 90<216 484>
VStem: 150 150<844.13 990> 555 150<837.18 1109.37>
DStem2: 298 1140 490 1212 0.543602 0.839343<164.804 336.126>
LayerCount: 2
Fore
SplineSet
150 990 m 1,0,-1
 268 1055 l 1,1,-1
 300 1055 l 1,2,-1
 300 935 l 2,3,4
 300 879 300 879 330 843 c 0,5,6
 366 800 366 800 428 800 c 0,7,8
 487 800 487 800 525 843 c 0,9,10
 555 877 555 877 555 975.5 c 128,-1,11
 555 1074 555 1074 532 1101 c 0,12,13
 499 1139 499 1139 424 1140 c 0,14,-1
 298 1140 l 1,15,-1
 484 1420 l 1,16,-1
 194 1420 l 1,17,-1
 194 1456 l 1,18,-1
 216 1510 l 1,19,-1
 683 1510 l 1,20,-1
 490 1212 l 1,21,22
 576 1207 576 1207 626 1166 c 0,23,24
 705 1101 705 1101 705 992 c 0,25,26
 705 866 705 866 630 788.5 c 128,-1,27
 555 711 555 711 427 711 c 128,-1,28
 299 711 299 711 224 787 c 0,29,30
 150 863 150 863 150 990 c 1,0,-1
EndSplineSet
Validated: 1
EndChar

StartChar: acute
Encoding: 180 180 118
Width: 648
GlyphClass: 2
Flags: W
HStem: 1150 400
VStem: 150 348
LayerCount: 2
Fore
SplineSet
312 1550 m 1,0,-1
 322 1550 l 1,1,-1
 498 1466 l 1,2,-1
 277 1150 l 1,3,-1
 267 1150 l 1,4,-1
 150 1205 l 1,5,-1
 312 1550 l 1,0,-1
EndSplineSet
Validated: 3073
EndChar

StartChar: uni00B5
Encoding: 181 181 119
Width: 1180
GlyphClass: 2
Flags: W
HStem: -450 21G<200 252.222> -20 110<474.899 756.186> 1120 20G<347.778 400 977.778 1030>
VStem: 200 200<-360 65 161.72 1050> 830 200<199.222 1050>
LayerCount: 2
Fore
SplineSet
200 1050 m 1,0,-1
 390 1140 l 1,1,-1
 400 1140 l 1,2,-1
 400 312 l 2,3,4
 400 197 400 197 462.5 143.5 c 128,-1,5
 525 90 525 90 615 90 c 128,-1,6
 705 90 705 90 767.5 143.5 c 128,-1,7
 830 197 830 197 830 312 c 2,8,-1
 830 1050 l 1,9,-1
 1020 1140 l 1,10,-1
 1030 1140 l 1,11,-1
 1030 380 l 2,12,13
 1030 215 1030 215 906 93 c 0,14,15
 790 -20 790 -20 615 -20 c 0,16,17
 476 -20 476 -20 400 65 c 1,18,-1
 400 -360 l 1,19,-1
 210 -450 l 1,20,-1
 200 -450 l 1,21,-1
 200 1050 l 1,0,-1
EndSplineSet
Validated: 1
EndChar

StartChar: paragraph
Encoding: 182 182 120
Width: 1180
GlyphClass: 2
Flags: W
HStem: -40 21G<780 832.857>
VStem: 780 70<-12 604> 914 66<50 1137>
LayerCount: 2
Fore
SplineSet
780 -40 m 1,0,-1
 780 604 l 1,1,2
 680 554 680 554 565 554 c 0,3,4
 392 554 392 554 274 650 c 0,5,6
 150 752 150 752 150 947 c 2,7,-1
 150 1137 l 2,8,9
 150 1331 150 1331 274 1434 c 0,10,11
 390 1530 390 1530 565 1530 c 0,12,13
 734 1530 734 1530 856 1434 c 0,14,15
 980 1336 980 1336 980 1137 c 2,16,-1
 980 50 l 1,17,-1
 914 19 l 1,18,-1
 914 1137 l 1,19,-1
 850 1137 l 1,20,-1
 850 -12 l 1,21,-1
 790 -40 l 1,22,-1
 780 -40 l 1,0,-1
EndSplineSet
Validated: 1
EndChar

StartChar: periodcentered
Encoding: 183 183 121
Width: 600
GlyphClass: 2
Flags: W
HStem: 631 245<216.097 383.903>
VStem: 180 240<668.129 838.871>
LayerCount: 2
Fore
SplineSet
180 753.5 m 132,-1,1
 180 804 180 804 215 840 c 132,-1,2
 250 876 250 876 300 876 c 132,-1,3
 350 876 350 876 385 840 c 132,-1,4
 420 804 420 804 420 753.5 c 132,-1,5
 420 703 420 703 385 667 c 132,-1,6
 350 631 350 631 300 631 c 132,-1,7
 250 631 250 631 215 667 c 132,-1,0
 180 703 180 703 180 753.5 c 132,-1,1
EndSplineSet
Validated: 1
EndChar

StartChar: cedilla
Encoding: 184 184 122
Width: 609
GlyphClass: 2
Flags: W
HStem: -286 564
VStem: 284 175<-116.616 108.943>
LayerCount: 2
Fore
SplineSet
214 278 m 1,0,1
 459 149 459 149 459 -42 c 0,2,3
 459 -179 459 -179 350 -286 c 1,4,-1
 340 -286 l 1,5,-1
 150 -196 l 1,6,7
 284 -109 284 -109 284 12 c 0,8,9
 284 113 284 113 171 228 c 1,10,-1
 214 278 l 1,0,1
EndSplineSet
Validated: 1
EndChar

StartChar: uni00B9
Encoding: 185 185 123
Width: 672
GlyphClass: 2
Flags: W
HStem: 1325 112<150 262> 1530 20G<344.23 422>
VStem: 272 150<764 1382>
LayerCount: 2
Fore
SplineSet
386 1550 m 1,0,-1
 422 1550 l 1,1,-1
 422 764 l 1,2,-1
 308 710 l 1,3,-1
 272 710 l 1,4,-1
 272 1382 l 1,5,-1
 150 1325 l 1,6,-1
 150 1437 l 1,7,-1
 386 1550 l 1,0,-1
EndSplineSet
Validated: 3073
EndChar

StartChar: ordmasculine
Encoding: 186 186 124
Width: 955
GlyphClass: 2
Flags: W
HStem: 664 182<231 724> 899 81<409.108 545.354> 1453 77<409.108 544.866>
VStem: 250 140<1004.79 1428.21> 565 140<1002.7 1430.27>
LayerCount: 2
Fore
SplineSet
250 1116 m 2,0,-1
 250 1313 l 2,1,2
 250 1423 250 1423 317 1476.5 c 128,-1,3
 384 1530 384 1530 478 1530 c 0,4,5
 571 1530 571 1530 636 1477 c 0,6,7
 705 1422 705 1422 705 1313 c 2,8,-1
 705 1116 l 2,9,10
 705 1010 705 1010 636 952 c 0,11,12
 573 899 573 899 478 899 c 0,13,14
 384 899 384 899 317 952.5 c 128,-1,15
 250 1006 250 1006 250 1116 c 2,0,-1
390 1077 m 2,16,17
 390 1029 390 1029 414 1004 c 0,18,19
 437 980 437 980 479 980 c 0,20,21
 515 980 515 980 539 1002 c 0,22,23
 565 1024 565 1024 565 1077 c 2,24,-1
 565 1356 l 2,25,26
 565 1408 565 1408 539 1431 c 0,27,28
 515 1453 515 1453 479 1453 c 0,29,30
 437 1453 437 1453 414 1429 c 0,31,32
 390 1404 390 1404 390 1356 c 2,33,-1
 390 1077 l 2,16,17
150 664 m 1,34,-1
 150 674 l 1,35,-1
 231 846 l 1,36,-1
 805 846 l 1,37,-1
 805 836 l 1,38,-1
 724 664 l 1,39,-1
 150 664 l 1,34,-1
EndSplineSet
Validated: 1
EndChar

StartChar: guillemotright
Encoding: 187 187 125
Width: 1189
GlyphClass: 2
Flags: W
DStem2: 200 354 315 304 0.538107 0.842876<19.7385 487.944> 388 1284 204 1202 0.509697 -0.860354<0 484.751> 585 354 700 304 0.538107 0.842876<19.7385 487.944> 773 1284 589 1202 0.509697 -0.860354<0 484.751>
LayerCount: 2
Fore
SplineSet
378 1284 m 1,0,-1
 388 1284 l 1,1,-1
 654 835 l 1,2,-1
 315 304 l 1,3,-1
 305 304 l 1,4,-1
 200 354 l 1,5,-1
 463 765 l 1,6,-1
 204 1202 l 1,7,-1
 378 1284 l 1,0,-1
763 1284 m 1,8,-1
 773 1284 l 1,9,-1
 1039 835 l 1,10,-1
 700 304 l 1,11,-1
 690 304 l 1,12,-1
 585 354 l 1,13,-1
 848 765 l 1,14,-1
 589 1202 l 1,15,-1
 763 1284 l 1,8,-1
EndSplineSet
Validated: 1
EndChar

StartChar: onequarter
Encoding: 188 188 126
Width: 1469
GlyphClass: 2
Flags: W
HStem: -40 21G<310.529 371.317 1044 1122.22> 232 104<856 1044 1194 1236> 1325 112<150 262> 1530 20G<344.23 422 910.683 971.471>
VStem: 272 150<764 1382> 1044 150<14 232 336 580>
DStem2: 211 28 362 -40 0.422266 0.906472<2.12205 1679.04>
LayerCount: 2
Fore
SplineSet
856 336 m 1,0,-1
 1044 336 l 1,1,-1
 1044 580 l 1,2,-1
 856 336 l 1,0,-1
1044 -40 m 1,3,-1
 1044 232 l 1,4,-1
 678 232 l 1,5,-1
 678 268 l 1,6,-1
 708 330 l 1,7,-1
 1053 750 l 1,8,-1
 1158 800 l 1,9,-1
 1194 800 l 1,10,-1
 1194 336 l 1,11,-1
 1269 336 l 1,12,-1
 1269 300 l 1,13,-1
 1236 232 l 1,14,-1
 1194 232 l 1,15,-1
 1194 14 l 1,16,-1
 1080 -40 l 1,17,-1
 1044 -40 l 1,3,-1
386 1550 m 1,18,-1
 422 1550 l 1,19,-1
 422 764 l 1,20,-1
 308 710 l 1,21,-1
 272 710 l 1,22,-1
 272 1382 l 1,23,-1
 150 1325 l 1,24,-1
 150 1437 l 1,25,-1
 386 1550 l 1,18,-1
352 -40 m 1,26,-1
 211 28 l 1,27,-1
 920 1550 l 1,28,-1
 930 1550 l 1,29,-1
 1071 1482 l 1,30,-1
 362 -40 l 1,31,-1
 352 -40 l 1,26,-1
EndSplineSet
Validated: 1
EndChar

StartChar: onehalf
Encoding: 189 189 127
Width: 1536
GlyphClass: 2
Flags: W
HStem: -40 21G<310.529 371.317> 0 100<945 1305> 710 90<961.236 1155.07> 1325 112<150 262> 1530 20G<344.23 422 910.683 971.471>
VStem: 272 150<764 1382> 780 150<438.965 672.366> 1182 154<402.922 675.489>
DStem2: 211 28 362 -40 0.422266 0.906472<2.12205 1679.04>
LayerCount: 2
Fore
SplineSet
774 0 m 1,0,-1
 774 36 l 1,1,-1
 800 92 l 1,2,-1
 1068 325 l 2,3,4
 1182 424 1182 424 1182 545 c 0,5,6
 1182 639 1182 639 1155 668 c 0,7,8
 1115 710 1115 710 1058 710 c 0,9,10
 999 710 999 710 960 666 c 0,11,12
 930 633 930 633 930 558 c 0,13,14
 930 498 930 498 959 456 c 1,15,-1
 846 402 l 1,16,-1
 821 402 l 1,17,18
 780 460 780 460 780 538 c 0,19,20
 780 651 780 651 850 724 c 0,21,22
 923 800 923 800 1056 800 c 0,23,24
 1187 800 1187 800 1261 722 c 128,-1,25
 1335 644 1335 644 1335 538 c 0,26,27
 1335 397 1335 397 1184 282 c 2,28,-1
 945 100 l 1,29,-1
 1336 100 l 1,30,-1
 1336 64 l 1,31,-1
 1305 0 l 1,32,-1
 774 0 l 1,0,-1
386 1550 m 1,33,-1
 422 1550 l 1,34,-1
 422 764 l 1,35,-1
 308 710 l 1,36,-1
 272 710 l 1,37,-1
 272 1382 l 1,38,-1
 150 1325 l 1,39,-1
 150 1437 l 1,40,-1
 386 1550 l 1,33,-1
352 -40 m 1,41,-1
 211 28 l 1,42,-1
 920 1550 l 1,43,-1
 930 1550 l 1,44,-1
 1071 1482 l 1,45,-1
 362 -40 l 1,46,-1
 352 -40 l 1,41,-1
EndSplineSet
Validated: 1
EndChar

StartChar: threequarters
Encoding: 190 190 128
Width: 1665
GlyphClass: 2
Flags: W
HStem: -40 21G<506.529 567.317 1240 1318.22> 232 104<1052 1240 1390 1432> 711 89<331.439 524.687> 1420 90<216 484> 1530 20G<1106.68 1167.47>
VStem: 150 150<844.13 990> 555 150<837.18 1109.37> 1240 150<14 232 336 580>
DStem2: 298 1140 490 1212 0.543602 0.839343<164.804 336.126> 407 28 558 -40 0.422266 0.906472<2.12205 1679.04>
LayerCount: 2
Fore
SplineSet
150 990 m 1,0,-1
 268 1055 l 1,1,-1
 300 1055 l 1,2,-1
 300 935 l 2,3,4
 300 879 300 879 330 843 c 0,5,6
 366 800 366 800 428 800 c 0,7,8
 487 800 487 800 525 843 c 0,9,10
 555 877 555 877 555 975.5 c 128,-1,11
 555 1074 555 1074 532 1101 c 0,12,13
 499 1139 499 1139 424 1140 c 0,14,-1
 298 1140 l 1,15,-1
 484 1420 l 1,16,-1
 194 1420 l 1,17,-1
 194 1456 l 1,18,-1
 216 1510 l 1,19,-1
 683 1510 l 1,20,-1
 490 1212 l 1,21,22
 576 1207 576 1207 626 1166 c 0,23,24
 705 1101 705 1101 705 992 c 0,25,26
 705 866 705 866 630 788.5 c 128,-1,27
 555 711 555 711 427 711 c 128,-1,28
 299 711 299 711 224 787 c 0,29,30
 150 863 150 863 150 990 c 1,0,-1
1052 336 m 1,31,-1
 1240 336 l 1,32,-1
 1240 580 l 1,33,-1
 1052 336 l 1,31,-1
1240 -40 m 1,34,-1
 1240 232 l 1,35,-1
 874 232 l 1,36,-1
 874 268 l 1,37,-1
 904 330 l 1,38,-1
 1249 750 l 1,39,-1
 1354 800 l 1,40,-1
 1390 800 l 1,41,-1
 1390 336 l 1,42,-1
 1465 336 l 1,43,-1
 1465 300 l 1,44,-1
 1432 232 l 1,45,-1
 1390 232 l 1,46,-1
 1390 14 l 1,47,-1
 1276 -40 l 1,48,-1
 1240 -40 l 1,34,-1
548 -40 m 1,49,-1
 407 28 l 1,50,-1
 1116 1550 l 1,51,-1
 1126 1550 l 1,52,-1
 1267 1482 l 1,53,-1
 558 -40 l 1,54,-1
 548 -40 l 1,49,-1
EndSplineSet
Validated: 1
EndChar

StartChar: questiondown
Encoding: 191 191 129
Width: 1300
GlyphClass: 2
Flags: W
HStem: -20 110<479.732 807.379> 1118 20G<688.182 740> 1285 245<571.097 738.903>
VStem: 150 198<245.129 641.502> 535 240<1322.13 1492.87> 615 125<987.965 1083> 950 200<254.955 614.849>
LayerCount: 2
Fore
SplineSet
775 1407.5 m 128,-1,1
 775 1357 775 1357 740 1321 c 128,-1,2
 705 1285 705 1285 655 1285 c 128,-1,3
 605 1285 605 1285 570 1321 c 128,-1,4
 535 1357 535 1357 535 1407.5 c 128,-1,5
 535 1458 535 1458 570 1494 c 128,-1,6
 605 1530 605 1530 655 1530 c 128,-1,7
 705 1530 705 1530 740 1494 c 128,-1,0
 775 1458 775 1458 775 1407.5 c 128,-1,1
1089 677 m 1,8,9
 1150 569 1150 569 1150 440 c 0,10,11
 1150 269 1150 269 1015 125 c 0,12,13
 878 -20 878 -20 645 -20 c 0,14,15
 409 -20 409 -20 275 125 c 0,16,17
 150 260 150 260 150 460 c 0,18,19
 150 736 150 736 479 919 c 24,20,21
 612 993 612 993 615 1083 c 1,22,-1
 730 1138 l 1,23,-1
 740 1138 l 1,24,25
 739 944 739 944 596 853 c 0,26,27
 348 695 348 695 348 459 c 0,28,29
 348 262 348 262 418 185 c 0,30,31
 504 90 504 90 645 90 c 0,32,33
 785 90 785 90 878 193 c 0,34,35
 950 273 950 273 950 463 c 0,36,37
 950 530 950 530 911 596 c 1,38,-1
 1079 677 l 1,39,-1
 1089 677 l 1,8,9
EndSplineSet
Validated: 1
EndChar

StartChar: Delta
Encoding: 916 916 130
Width: 1191
GlyphClass: 2
Flags: W
HStem: 0 110<172 943> 1530 20G<623.805 682.581>
DStem2: 5 0 172 110 0.315452 0.948942<157.064 1404.27> 676 1550 558 1296 0.312548 -0.949902<204.394 1451.31>
LayerCount: 2
Fore
SplineSet
5 0 m 1,0,-1
 493 1468 l 1,1,-1
 666 1550 l 1,2,-1
 676 1550 l 1,3,-1
 1186 0 l 1,4,-1
 5 0 l 1,0,-1
172 110 m 1,5,-1
 943 110 l 1,6,-1
 558 1296 l 1,7,-1
 172 110 l 1,5,-1
EndSplineSet
Validated: 1
EndChar

StartChar: Pi
Encoding: 928 928 131
Width: 1390
GlyphClass: 2
Flags: W
HStem: -40 21G<200 252.222 990 1042.22> 1400 110<400 990>
VStem: 200 200<50 1400> 990 200<50 1400>
LayerCount: 2
Fore
SplineSet
210 -40 m 1,0,-1
 200 -40 l 1,1,-1
 200 1460 l 1,2,-1
 306 1510 l 1,3,-1
 1190 1510 l 1,4,-1
 1190 50 l 1,5,-1
 1000 -40 l 1,6,-1
 990 -40 l 1,7,-1
 990 1400 l 1,8,-1
 400 1400 l 1,9,-1
 400 50 l 1,10,-1
 210 -40 l 1,0,-1
EndSplineSet
Validated: 1
EndChar

StartChar: Sigma
Encoding: 931 931 132
Width: 1203
GlyphClass: 2
Flags: W
HStem: 0 110<381 1006> 1400 110<380 915>
DStem2: 100 0 381 110 0.529212 0.848489<242.043 914.567> 380 1400 101 1460 0.576824 -0.816869<0 627.398>
LayerCount: 2
Fore
SplineSet
100 0 m 1,0,-1
 584 776 l 1,1,-1
 101 1460 l 1,2,-1
 207 1510 l 1,3,-1
 962 1510 l 1,4,-1
 962 1500 l 1,5,-1
 915 1400 l 1,6,-1
 380 1400 l 1,7,-1
 805 774 l 1,8,-1
 381 110 l 1,9,-1
 1053 110 l 1,10,-1
 1053 100 l 1,11,-1
 1006 0 l 1,12,-1
 100 0 l 1,0,-1
EndSplineSet
Validated: 1
EndChar

StartChar: Omega
Encoding: 937 937 133
Width: 1410
GlyphClass: 2
Flags: W
HStem: 0 297<522.269 608 802 888.057> 0 110<197 446 964 1213> 1420 110<539.842 868.968>
VStem: 200 200<450.949 1249.62> 446 162<110 270.781> 802 162<110 269.612> 1010 200<452.918 1251.1>
LayerCount: 2
Fore
SplineSet
150 0 m 1,0,-1
 150 10 l 1,1,-1
 197 110 l 1,2,-1
 446 110 l 1,3,-1
 446 248 l 1,4,5
 384 275 384 275 335 320 c 0,6,7
 200 448 200 448 200 675 c 2,8,-1
 200 1030 l 2,9,10
 200 1248 200 1248 335 1385 c 0,11,12
 477 1530 477 1530 705 1530 c 0,13,14
 928 1530 928 1530 1075 1385 c 0,15,16
 1210 1251 1210 1251 1210 1030 c 2,17,-1
 1210 675 l 2,18,19
 1210 452 1210 452 1075 320 c 0,20,21
 1032 278 1032 278 964 247 c 1,22,-1
 964 110 l 1,23,-1
 1260 110 l 1,24,-1
 1260 100 l 1,25,-1
 1213 0 l 1,26,-1
 802 0 l 1,27,-1
 802 298 l 1,28,29
 881 322 881 322 938 388 c 0,30,31
 1010 471 1010 471 1010 605 c 2,32,-1
 1010 1100 l 2,33,34
 1010 1234 1010 1234 938 1317 c 0,35,36
 849 1420 849 1420 705 1420 c 128,-1,37
 561 1420 561 1420 472 1317 c 0,38,39
 400 1234 400 1234 400 1100 c 2,40,-1
 400 605 l 2,41,42
 400 468 400 468 472 388 c 0,43,44
 534 319 534 319 608 297 c 1,45,-1
 608 0 l 1,46,-1
 150 0 l 1,0,-1
EndSplineSet
Validated: 1
EndChar

StartChar: mu
Encoding: 956 956 134
Width: 1180
GlyphClass: 2
Flags: W
HStem: -450 21G<200 252.222> -20 110<474.899 756.186> 1120 20G<347.778 400 977.778 1030>
VStem: 200 200<-360 65 161.72 1050> 830 200<199.222 1050>
LayerCount: 2
Fore
SplineSet
200 1050 m 5,0,-1
 390 1140 l 5,1,-1
 400 1140 l 5,2,-1
 400 312 l 6,3,4
 400 197 400 197 462.5 143.5 c 132,-1,5
 525 90 525 90 615 90 c 132,-1,6
 705 90 705 90 767.5 143.5 c 132,-1,7
 830 197 830 197 830 312 c 6,8,-1
 830 1050 l 5,9,-1
 1020 1140 l 5,10,-1
 1030 1140 l 5,11,-1
 1030 380 l 6,12,13
 1030 215 1030 215 906 93 c 4,14,15
 790 -20 790 -20 615 -20 c 4,16,17
 476 -20 476 -20 400 65 c 5,18,-1
 400 -360 l 5,19,-1
 210 -450 l 5,20,-1
 200 -450 l 5,21,-1
 200 1050 l 5,0,-1
EndSplineSet
Validated: 1
EndChar

StartChar: pi
Encoding: 960 960 135
Width: 1173
GlyphClass: 2
Flags: W
HStem: -40 21G<200 252.222 773 825.222> 990 110<400 773>
VStem: 200 200<50 990> 773 200<50 990>
LayerCount: 2
Fore
SplineSet
210 -40 m 1,0,-1
 200 -40 l 1,1,-1
 200 1050 l 1,2,-1
 306 1100 l 1,3,-1
 973 1100 l 1,4,-1
 973 50 l 1,5,-1
 783 -40 l 1,6,-1
 773 -40 l 1,7,-1
 773 990 l 1,8,-1
 400 990 l 1,9,-1
 400 50 l 1,10,-1
 210 -40 l 1,0,-1
EndSplineSet
Validated: 1
EndChar

StartChar: uni2010
Encoding: 8208 8208 136
Width: 1214
GlyphClass: 2
Flags: W
HStem: 664 182<306 908>
LayerCount: 2
Fore
SplineSet
225 664 m 1,0,-1
 225 674 l 1,1,-1
 306 846 l 1,2,-1
 989 846 l 1,3,-1
 989 836 l 1,4,-1
 908 664 l 1,5,-1
 225 664 l 1,0,-1
EndSplineSet
Validated: 3073
EndChar

StartChar: uni2011
Encoding: 8209 8209 137
Width: 1214
GlyphClass: 2
Flags: W
HStem: 664 182<306 908>
LayerCount: 2
Fore
SplineSet
225 664 m 1,0,-1
 225 674 l 1,1,-1
 306 846 l 1,2,-1
 989 846 l 1,3,-1
 989 836 l 1,4,-1
 908 664 l 1,5,-1
 225 664 l 1,0,-1
EndSplineSet
Validated: 3073
EndChar

StartChar: figuredash
Encoding: 8210 8210 138
Width: 1214
GlyphClass: 2
Flags: W
HStem: 664 182<231 983>
LayerCount: 2
Fore
SplineSet
150 664 m 1,0,-1
 150 674 l 1,1,-1
 231 846 l 1,2,-1
 1064 846 l 1,3,-1
 1064 836 l 1,4,-1
 983 664 l 1,5,-1
 150 664 l 1,0,-1
EndSplineSet
Validated: 3073
EndChar

StartChar: endash
Encoding: 8211 8211 139
Width: 1214
GlyphClass: 2
Flags: W
HStem: 664 182<231 983>
LayerCount: 2
Fore
SplineSet
150 664 m 1,0,-1
 150 674 l 1,1,-1
 231 846 l 1,2,-1
 1064 846 l 1,3,-1
 1064 836 l 1,4,-1
 983 664 l 1,5,-1
 150 664 l 1,0,-1
EndSplineSet
Validated: 3073
EndChar

StartChar: emdash
Encoding: 8212 8212 140
Width: 1214
GlyphClass: 2
Flags: W
HStem: 664 182<106 1108>
LayerCount: 2
Fore
SplineSet
25 664 m 1,0,-1
 25 674 l 1,1,-1
 106 846 l 1,2,-1
 1189 846 l 1,3,-1
 1189 836 l 1,4,-1
 1108 664 l 1,5,-1
 25 664 l 1,0,-1
EndSplineSet
Validated: 3073
EndChar

StartChar: afii00208
Encoding: 8213 8213 141
Width: 1214
GlyphClass: 2
Flags: W
HStem: 664 182<106 1108>
LayerCount: 2
Fore
SplineSet
25 664 m 1,0,-1
 25 674 l 1,1,-1
 106 846 l 1,2,-1
 1189 846 l 1,3,-1
 1189 836 l 1,4,-1
 1108 664 l 1,5,-1
 25 664 l 1,0,-1
EndSplineSet
Validated: 3073
EndChar

StartChar: underscoredbl
Encoding: 8215 8215 142
Width: 1214
GlyphClass: 2
Flags: W
HStem: -410 182<231 983> -182 182<231 983>
LayerCount: 2
Fore
SplineSet
150 -182 m 1,0,-1
 150 -172 l 1,1,-1
 231 0 l 1,2,-1
 1064 0 l 1,3,-1
 1064 -10 l 1,4,-1
 983 -182 l 1,5,-1
 150 -182 l 1,0,-1
150 -410 m 1,6,-1
 150 -400 l 1,7,-1
 231 -228 l 1,8,-1
 1064 -228 l 1,9,-1
 1064 -238 l 1,10,-1
 983 -410 l 1,11,-1
 150 -410 l 1,6,-1
EndSplineSet
Validated: 3073
EndChar

StartChar: quoteleft
Encoding: 8216 8216 143
Width: 609
GlyphClass: 2
Flags: W
HStem: 986 564
VStem: 150 175<1155.38 1380.94>
LayerCount: 2
Fore
SplineSet
395 1550 m 1,0,-1
 438 1500 l 1,1,2
 325 1385 325 1385 325 1284 c 0,3,4
 325 1163 325 1163 459 1076 c 1,5,-1
 269 986 l 1,6,-1
 259 986 l 1,7,8
 150 1093 150 1093 150 1230 c 0,9,10
 150 1421 150 1421 395 1550 c 1,0,-1
EndSplineSet
Validated: 1
EndChar

StartChar: quoteright
Encoding: 8217 8217 144
Width: 609
GlyphClass: 2
Flags: W
HStem: 986 564
VStem: 284 175<1155.06 1380.62>
LayerCount: 2
Fore
SplineSet
340 1550 m 1,0,-1
 350 1550 l 1,1,2
 459 1443 459 1443 459 1306 c 0,3,4
 459 1115 459 1115 214 986 c 1,5,-1
 171 1036 l 1,6,7
 284 1151 284 1151 284 1252 c 0,8,9
 284 1373 284 1373 150 1460 c 1,10,-1
 340 1550 l 1,0,-1
EndSplineSet
Validated: 1
EndChar

StartChar: quotesinglbase
Encoding: 8218 8218 145
Width: 609
GlyphClass: 2
Flags: W
HStem: -286 564
VStem: 284 175<-116.943 108.616>
LayerCount: 2
Fore
SplineSet
340 278 m 1,0,-1
 350 278 l 1,1,2
 459 171 459 171 459 34 c 0,3,4
 459 -157 459 -157 214 -286 c 1,5,-1
 171 -236 l 1,6,7
 284 -121 284 -121 284 -20 c 0,8,9
 284 101 284 101 150 188 c 1,10,-1
 340 278 l 1,0,-1
EndSplineSet
Validated: 1
EndChar

StartChar: quotereversed
Encoding: 8219 8219 146
Width: 609
GlyphClass: 2
Flags: W
HStem: 986 564
VStem: 150 175<1155.06 1380.62>
LayerCount: 2
Fore
SplineSet
259 1550 m 1,0,-1
 269 1550 l 1,1,-1
 459 1460 l 1,2,3
 325 1373 325 1373 325 1252 c 0,4,5
 325 1151 325 1151 438 1036 c 1,6,-1
 395 986 l 1,7,8
 150 1115 150 1115 150 1306 c 0,9,10
 150 1443 150 1443 259 1550 c 1,0,-1
EndSplineSet
Validated: 1
EndChar

StartChar: quotedblleft
Encoding: 8220 8220 147
Width: 924
GlyphClass: 2
Flags: W
HStem: 986 564
VStem: 150 175<1155.38 1380.94> 465 175<1155.38 1380.94>
LayerCount: 2
Fore
SplineSet
395 1550 m 1,0,-1
 438 1500 l 1,1,2
 325 1385 325 1385 325 1284 c 0,3,4
 325 1163 325 1163 459 1076 c 1,5,-1
 269 986 l 1,6,-1
 259 986 l 1,7,8
 150 1093 150 1093 150 1230 c 0,9,10
 150 1421 150 1421 395 1550 c 1,0,-1
710 1550 m 1,11,-1
 753 1500 l 1,12,13
 640 1385 640 1385 640 1284 c 0,14,15
 640 1163 640 1163 774 1076 c 1,16,-1
 584 986 l 1,17,-1
 574 986 l 1,18,19
 465 1093 465 1093 465 1230 c 0,20,21
 465 1421 465 1421 710 1550 c 1,11,-1
EndSplineSet
Validated: 1
EndChar

StartChar: quotedblright
Encoding: 8221 8221 148
Width: 924
GlyphClass: 2
Flags: W
HStem: 986 564
VStem: 284 175<1155.06 1380.62> 599 175<1155.06 1380.62>
LayerCount: 2
Fore
SplineSet
655 1550 m 1,0,-1
 665 1550 l 1,1,2
 774 1443 774 1443 774 1306 c 0,3,4
 774 1115 774 1115 529 986 c 1,5,-1
 486 1036 l 1,6,7
 599 1151 599 1151 599 1252 c 0,8,9
 599 1373 599 1373 465 1460 c 1,10,-1
 655 1550 l 1,0,-1
340 1550 m 1,11,-1
 350 1550 l 1,12,13
 459 1443 459 1443 459 1306 c 0,14,15
 459 1115 459 1115 214 986 c 1,16,-1
 171 1036 l 1,17,18
 284 1151 284 1151 284 1252 c 0,19,20
 284 1373 284 1373 150 1460 c 1,21,-1
 340 1550 l 1,11,-1
EndSplineSet
Validated: 1
EndChar

StartChar: quotedblbase
Encoding: 8222 8222 149
Width: 924
GlyphClass: 2
Flags: W
HStem: -286 564
VStem: 284 175<-116.943 108.616> 599 175<-116.943 108.616>
LayerCount: 2
Fore
SplineSet
655 278 m 1,0,-1
 665 278 l 1,1,2
 774 171 774 171 774 34 c 0,3,4
 774 -157 774 -157 529 -286 c 1,5,-1
 486 -236 l 1,6,7
 599 -121 599 -121 599 -20 c 0,8,9
 599 101 599 101 465 188 c 1,10,-1
 655 278 l 1,0,-1
340 278 m 1,11,-1
 350 278 l 1,12,13
 459 171 459 171 459 34 c 0,14,15
 459 -157 459 -157 214 -286 c 1,16,-1
 171 -236 l 1,17,18
 284 -121 284 -121 284 -20 c 0,19,20
 284 101 284 101 150 188 c 1,21,-1
 340 278 l 1,11,-1
EndSplineSet
Validated: 1
EndChar

StartChar: uni201F
Encoding: 8223 8223 150
Width: 924
GlyphClass: 2
Flags: W
HStem: 986 564
VStem: 150 175<1155.06 1380.62> 465 175<1155.06 1380.62>
LayerCount: 2
Fore
SplineSet
259 1550 m 1,0,1
 269 1550 l 1,2,-1
 459 1460 l 1,3,4
 325 1373 325 1373 325 1252 c 0,5,6
 325 1151 325 1151 438 1036 c 1,7,-1
 395 986 l 1,8,9
 150 1115 150 1115 150 1306 c 0,10,11
 150 1443 150 1443 259 1550 c 1,0,1
574 1550 m 1,12,-1
 584 1550 l 1,13,-1
 774 1460 l 1,14,15
 640 1373 640 1373 640 1252 c 0,16,17
 640 1151 640 1151 753 1036 c 1,18,-1
 710 986 l 1,19,20
 465 1115 465 1115 465 1306 c 0,21,22
 465 1443 465 1443 574 1550 c 1,12,-1
EndSplineSet
Validated: 1
EndChar

StartChar: dagger
Encoding: 8224 8224 151
Width: 1214
GlyphClass: 2
Flags: W
HStem: -40 21G<507 559.222> 996 182<231 507 707 983> 1530 20G<654.778 707>
VStem: 507 200<50 996 1178 1460>
LayerCount: 2
Fore
SplineSet
517 -40 m 1,0,-1
 507 -40 l 1,1,-1
 507 996 l 1,2,-1
 150 996 l 1,3,-1
 150 1006 l 1,4,-1
 231 1178 l 1,5,-1
 507 1178 l 1,6,-1
 507 1460 l 1,7,-1
 697 1550 l 1,8,-1
 707 1550 l 1,9,-1
 707 1178 l 1,10,-1
 1064 1178 l 1,11,-1
 1064 1168 l 1,12,-1
 983 996 l 1,13,-1
 707 996 l 1,14,-1
 707 50 l 1,15,-1
 517 -40 l 1,0,-1
EndSplineSet
Validated: 3073
EndChar

StartChar: daggerdbl
Encoding: 8225 8225 152
Width: 1214
GlyphClass: 2
Flags: W
HStem: -40 21G<507 559.222> 332 182<231 507 707 983> 996 182<231 507 707 983> 1530 20G<654.778 707>
VStem: 507 200<50 332 514 996 1178 1460>
LayerCount: 2
Fore
SplineSet
517 -40 m 1,0,-1
 507 -40 l 1,1,-1
 507 332 l 1,2,-1
 150 332 l 1,3,-1
 150 342 l 1,4,-1
 231 514 l 1,5,-1
 507 514 l 1,6,-1
 507 996 l 1,7,-1
 150 996 l 1,8,-1
 150 1006 l 1,9,-1
 231 1178 l 1,10,-1
 507 1178 l 1,11,-1
 507 1460 l 1,12,-1
 697 1550 l 1,13,-1
 707 1550 l 1,14,-1
 707 1178 l 1,15,-1
 1064 1178 l 1,16,-1
 1064 1168 l 1,17,-1
 983 996 l 1,18,-1
 707 996 l 1,19,-1
 707 514 l 1,20,-1
 1064 514 l 1,21,-1
 1064 504 l 1,22,-1
 983 332 l 1,23,-1
 707 332 l 1,24,-1
 707 50 l 1,25,-1
 517 -40 l 1,0,-1
EndSplineSet
Validated: 3073
EndChar

StartChar: bullet
Encoding: 8226 8226 153
Width: 1130
GlyphClass: 2
Flags: W
HStem: 354 800<370.234 759.766>
VStem: 150 830<573.222 934.778>
LayerCount: 2
Fore
SplineSet
150 754 m 0,0,1
 150 919 150 919 274 1041 c 0,2,3
 390 1154 390 1154 565 1154 c 0,4,5
 738 1154 738 1154 856 1041 c 0,6,7
 980 921 980 921 980 754 c 0,8,9
 980 589 980 589 856 467 c 0,10,11
 740 354 740 354 565 354 c 0,12,13
 392 354 392 354 274 467 c 0,14,15
 150 587 150 587 150 754 c 0,0,1
EndSplineSet
Validated: 1
EndChar

StartChar: uni2023
Encoding: 8227 8227 154
Width: 928
GlyphClass: 2
Flags: W
HStem: 1121 20G<200 233.493>
VStem: 200 628
LayerCount: 2
Fore
SplineSet
200 362 m 1,0,-1
 200 1141 l 1,1,-1
 828 766 l 1,2,-1
 200 362 l 1,0,-1
EndSplineSet
Validated: 3073
EndChar

StartChar: onedotenleader
Encoding: 8228 8228 155
Width: 600
GlyphClass: 2
Flags: W
HStem: -20 245<216.097 383.903>
VStem: 180 240<17.1285 187.871>
LayerCount: 2
Fore
SplineSet
180 102.5 m 128,-1,1
 180 153 180 153 215 189 c 128,-1,2
 250 225 250 225 300 225 c 128,-1,3
 350 225 350 225 385 189 c 128,-1,4
 420 153 420 153 420 102.5 c 128,-1,5
 420 52 420 52 385 16 c 128,-1,6
 350 -20 350 -20 300 -20 c 128,-1,7
 250 -20 250 -20 215 16 c 128,-1,0
 180 52 180 52 180 102.5 c 128,-1,1
EndSplineSet
Validated: 1
EndChar

StartChar: twodotenleader
Encoding: 8229 8229 156
Width: 936
GlyphClass: 2
Flags: W
HStem: -20 245<216.097 383.903 552.097 719.903>
VStem: 180 240<17.1285 187.871> 516 240<17.1285 187.871>
LayerCount: 2
Fore
SplineSet
516 102.5 m 128,-1,1
 516 153 516 153 551 189 c 128,-1,2
 586 225 586 225 636 225 c 128,-1,3
 686 225 686 225 721 189 c 128,-1,4
 756 153 756 153 756 102.5 c 128,-1,5
 756 52 756 52 721 16 c 128,-1,6
 686 -20 686 -20 636 -20 c 128,-1,7
 586 -20 586 -20 551 16 c 128,-1,0
 516 52 516 52 516 102.5 c 128,-1,1
180 102.5 m 128,-1,9
 180 153 180 153 215 189 c 128,-1,10
 250 225 250 225 300 225 c 128,-1,11
 350 225 350 225 385 189 c 128,-1,12
 420 153 420 153 420 102.5 c 128,-1,13
 420 52 420 52 385 16 c 128,-1,14
 350 -20 350 -20 300 -20 c 128,-1,15
 250 -20 250 -20 215 16 c 128,-1,8
 180 52 180 52 180 102.5 c 128,-1,9
EndSplineSet
Validated: 1
EndChar

StartChar: ellipsis
Encoding: 8230 8230 157
Width: 1272
GlyphClass: 2
Flags: W
HStem: -20 245<216.097 383.903 552.097 719.903 888.097 1055.9>
VStem: 180 240<17.1285 187.871> 516 240<17.1285 187.871> 852 240<17.1285 187.871>
CounterMasks: 1 70
LayerCount: 2
Fore
SplineSet
852 102.5 m 128,-1,1
 852 153 852 153 887 189 c 128,-1,2
 922 225 922 225 972 225 c 128,-1,3
 1022 225 1022 225 1057 189 c 128,-1,4
 1092 153 1092 153 1092 102.5 c 128,-1,5
 1092 52 1092 52 1057 16 c 128,-1,6
 1022 -20 1022 -20 972 -20 c 128,-1,7
 922 -20 922 -20 887 16 c 128,-1,0
 852 52 852 52 852 102.5 c 128,-1,1
516 102.5 m 128,-1,9
 516 153 516 153 551 189 c 128,-1,10
 586 225 586 225 636 225 c 128,-1,11
 686 225 686 225 721 189 c 128,-1,12
 756 153 756 153 756 102.5 c 128,-1,13
 756 52 756 52 721 16 c 128,-1,14
 686 -20 686 -20 636 -20 c 128,-1,15
 586 -20 586 -20 551 16 c 128,-1,8
 516 52 516 52 516 102.5 c 128,-1,9
180 102.5 m 128,-1,17
 180 153 180 153 215 189 c 128,-1,18
 250 225 250 225 300 225 c 128,-1,19
 350 225 350 225 385 189 c 128,-1,20
 420 153 420 153 420 102.5 c 128,-1,21
 420 52 420 52 385 16 c 128,-1,22
 350 -20 350 -20 300 -20 c 128,-1,23
 250 -20 250 -20 215 16 c 128,-1,16
 180 52 180 52 180 102.5 c 128,-1,17
EndSplineSet
Validated: 1
EndChar

StartChar: uni2027
Encoding: 8231 8231 158
Width: 600
GlyphClass: 2
Flags: W
HStem: 631 245<216.097 383.903>
VStem: 180 240<668.129 838.871>
LayerCount: 2
Fore
SplineSet
180 753.5 m 132,-1,1
 180 804 180 804 215 840 c 132,-1,2
 250 876 250 876 300 876 c 132,-1,3
 350 876 350 876 385 840 c 132,-1,4
 420 804 420 804 420 753.5 c 132,-1,5
 420 703 420 703 385 667 c 132,-1,6
 350 631 350 631 300 631 c 132,-1,7
 250 631 250 631 215 667 c 132,-1,0
 180 703 180 703 180 753.5 c 132,-1,1
EndSplineSet
Validated: 1
EndChar

StartChar: perthousand
Encoding: 8240 8240 159
Width: 3029
GlyphClass: 2
Flags: W
HStem: -40 21G<746.529 807.317> -20 110<1438.31 1720.19 2323.31 2605.19> 670 110<1437.81 1719.69 2322.81 2604.69> 730 110<424.306 706.186> 1420 110<423.814 705.694> 1530 20G<1346.68 1407.47>
VStem: 150 200<948.467 1311.05> 780 200<948.95 1311.53> 1164 200<198.467 561.05> 1794 200<198.95 561.533> 2049 200<198.467 561.05> 2679 200<198.95 561.533>
DStem2: 647 28 798 -40 0.422266 0.906472<2.12205 1679.04>
LayerCount: 2
Fore
SplineSet
2679 380 m 128,-1,1
 2679 563 2679 563 2616.5 616.5 c 128,-1,2
 2554 670 2554 670 2464 670 c 128,-1,3
 2374 670 2374 670 2311.5 616.5 c 128,-1,4
 2249 563 2249 563 2249 380 c 128,-1,5
 2249 197 2249 197 2311.5 143.5 c 128,-1,6
 2374 90 2374 90 2464 90 c 128,-1,7
 2554 90 2554 90 2616.5 143.5 c 128,-1,0
 2679 197 2679 197 2679 380 c 128,-1,1
1794 380 m 128,-1,9
 1794 563 1794 563 1731.5 616.5 c 128,-1,10
 1669 670 1669 670 1579 670 c 128,-1,11
 1489 670 1489 670 1426.5 616.5 c 128,-1,12
 1364 563 1364 563 1364 380 c 128,-1,13
 1364 197 1364 197 1426.5 143.5 c 128,-1,14
 1489 90 1489 90 1579 90 c 128,-1,15
 1669 90 1669 90 1731.5 143.5 c 128,-1,8
 1794 197 1794 197 1794 380 c 128,-1,9
780 1130 m 128,-1,17
 780 1313 780 1313 717.5 1366.5 c 128,-1,18
 655 1420 655 1420 565 1420 c 128,-1,19
 475 1420 475 1420 412.5 1366.5 c 128,-1,20
 350 1313 350 1313 350 1130 c 128,-1,21
 350 947 350 947 412.5 893.5 c 128,-1,22
 475 840 475 840 565 840 c 128,-1,23
 655 840 655 840 717.5 893.5 c 128,-1,16
 780 947 780 947 780 1130 c 128,-1,17
2049 380 m 0,24,25
 2049 545 2049 545 2173 667 c 0,26,27
 2289 780 2289 780 2464 780 c 0,28,29
 2637 780 2637 780 2755 667 c 0,30,31
 2879 547 2879 547 2879 380 c 0,32,33
 2879 215 2879 215 2755 93 c 0,34,35
 2639 -20 2639 -20 2464 -20 c 0,36,37
 2291 -20 2291 -20 2173 93 c 0,38,39
 2049 213 2049 213 2049 380 c 0,24,25
1164 380 m 0,40,41
 1164 545 1164 545 1288 667 c 0,42,43
 1404 780 1404 780 1579 780 c 0,44,45
 1752 780 1752 780 1870 667 c 0,46,47
 1994 547 1994 547 1994 380 c 0,48,49
 1994 215 1994 215 1870 93 c 0,50,51
 1754 -20 1754 -20 1579 -20 c 0,52,53
 1406 -20 1406 -20 1288 93 c 0,54,55
 1164 213 1164 213 1164 380 c 0,40,41
150 1130 m 0,56,57
 150 1295 150 1295 274 1417 c 0,58,59
 390 1530 390 1530 565 1530 c 0,60,61
 738 1530 738 1530 856 1417 c 0,62,63
 980 1297 980 1297 980 1130 c 0,64,65
 980 965 980 965 856 843 c 0,66,67
 740 730 740 730 565 730 c 0,68,69
 392 730 392 730 274 843 c 0,70,71
 150 963 150 963 150 1130 c 0,56,57
788 -40 m 1,72,-1
 647 28 l 1,73,-1
 1356 1550 l 1,74,-1
 1366 1550 l 1,75,-1
 1507 1482 l 1,76,-1
 798 -40 l 1,77,-1
 788 -40 l 1,72,-1
EndSplineSet
Validated: 1
EndChar

StartChar: minute
Encoding: 8242 8242 160
Width: 680
GlyphClass: 2
Flags: W
HStem: 1059 491
VStem: 150 380
LayerCount: 2
Fore
SplineSet
344 1550 m 1,0,-1
 354 1550 l 1,1,-1
 530 1466 l 1,2,-1
 277 1059 l 1,3,-1
 267 1059 l 1,4,-1
 150 1114 l 1,5,-1
 344 1550 l 1,0,-1
EndSplineSet
Validated: 3073
EndChar

StartChar: second
Encoding: 8243 8243 161
Width: 998
GlyphClass: 2
Flags: W
HStem: 1059 491
LayerCount: 2
Fore
SplineSet
662 1550 m 1,0,-1
 672 1550 l 1,1,-1
 848 1466 l 1,2,-1
 595 1059 l 1,3,-1
 585 1059 l 1,4,-1
 468 1114 l 1,5,-1
 662 1550 l 1,0,-1
344 1550 m 1,6,-1
 354 1550 l 1,7,-1
 530 1466 l 1,8,-1
 277 1059 l 1,9,-1
 267 1059 l 1,10,-1
 150 1114 l 1,11,-1
 344 1550 l 1,6,-1
EndSplineSet
Validated: 3073
EndChar

StartChar: uni2034
Encoding: 8244 8244 162
Width: 1316
GlyphClass: 2
Flags: W
HStem: 1059 491
LayerCount: 2
Fore
SplineSet
980 1550 m 1,0,-1
 990 1550 l 1,1,-1
 1166 1466 l 1,2,-1
 913 1059 l 1,3,-1
 903 1059 l 1,4,-1
 786 1114 l 1,5,-1
 980 1550 l 1,0,-1
662 1550 m 1,6,-1
 672 1550 l 1,7,-1
 848 1466 l 1,8,-1
 595 1059 l 1,9,-1
 585 1059 l 1,10,-1
 468 1114 l 1,11,-1
 662 1550 l 1,6,-1
344 1550 m 1,12,-1
 354 1550 l 1,13,-1
 530 1466 l 1,14,-1
 277 1059 l 1,15,-1
 267 1059 l 1,16,-1
 150 1114 l 1,17,-1
 344 1550 l 1,12,-1
EndSplineSet
Validated: 3073
EndChar

StartChar: uni2035
Encoding: 8245 8245 163
Width: 680
GlyphClass: 2
Flags: W
HStem: 1059 491
VStem: 150 380
LayerCount: 2
Fore
SplineSet
326 1550 m 1,0,-1
 336 1550 l 1,1,-1
 530 1114 l 1,2,-1
 413 1059 l 1,3,-1
 403 1059 l 1,4,-1
 150 1466 l 1,5,-1
 326 1550 l 1,0,-1
EndSplineSet
Validated: 3073
EndChar

StartChar: uni2036
Encoding: 8246 8246 164
Width: 998
GlyphClass: 2
Flags: W
HStem: 1059 491
LayerCount: 2
Fore
SplineSet
326 1550 m 1,0,-1
 336 1550 l 1,1,-1
 530 1114 l 1,2,-1
 413 1059 l 1,3,-1
 403 1059 l 1,4,-1
 150 1466 l 1,5,-1
 326 1550 l 1,0,-1
644 1550 m 1,6,-1
 654 1550 l 1,7,-1
 848 1114 l 1,8,-1
 731 1059 l 1,9,-1
 721 1059 l 1,10,-1
 468 1466 l 1,11,-1
 644 1550 l 1,6,-1
EndSplineSet
Validated: 3073
EndChar

StartChar: uni2037
Encoding: 8247 8247 165
Width: 1316
GlyphClass: 2
Flags: W
HStem: 1059 491
LayerCount: 2
Fore
SplineSet
336 1550 m 1,0,-1
 530 1114 l 1,1,-1
 413 1059 l 1,2,-1
 403 1059 l 1,3,-1
 150 1466 l 1,4,-1
 326 1550 l 1,5,-1
 336 1550 l 1,0,-1
644 1550 m 1,6,-1
 654 1550 l 1,7,-1
 848 1114 l 1,8,-1
 731 1059 l 1,9,-1
 721 1059 l 1,10,-1
 468 1466 l 1,11,-1
 644 1550 l 1,6,-1
962 1550 m 1,12,-1
 972 1550 l 1,13,-1
 1166 1114 l 1,14,-1
 1049 1059 l 1,15,-1
 1039 1059 l 1,16,-1
 786 1466 l 1,17,-1
 962 1550 l 1,12,-1
EndSplineSet
Validated: 3073
EndChar

StartChar: guilsinglleft
Encoding: 8249 8249 166
Width: 804
GlyphClass: 2
Flags: W
VStem: 150 454
DStem2: 342 823 150 753 0.509697 -0.860354<0 484.241> 150 753 342 823 0.538107 0.842876<162.318 629.986>
LayerCount: 2
Fore
SplineSet
489 1284 m 1,0,-1
 499 1284 l 1,1,-1
 604 1234 l 1,2,-1
 342 823 l 1,3,-1
 600 386 l 1,4,-1
 426 304 l 1,5,-1
 416 304 l 1,6,-1
 150 753 l 1,7,-1
 489 1284 l 1,0,-1
EndSplineSet
Validated: 1
EndChar

StartChar: guilsinglright
Encoding: 8250 8250 167
Width: 804
GlyphClass: 2
Flags: W
VStem: 200 454
DStem2: 200 354 315 304 0.538107 0.842876<19.7385 487.944> 388 1284 204 1202 0.509697 -0.860354<0 484.751>
LayerCount: 2
Fore
SplineSet
378 1284 m 1,0,-1
 388 1284 l 1,1,-1
 654 835 l 1,2,-1
 315 304 l 1,3,-1
 305 304 l 1,4,-1
 200 354 l 1,5,-1
 463 765 l 1,6,-1
 204 1202 l 1,7,-1
 378 1284 l 1,0,-1
EndSplineSet
Validated: 1
EndChar

StartChar: uni2043
Encoding: 8259 8259 168
Width: 1183
GlyphClass: 2
Flags: W
VStem: 500 182<387 605 921 1139>
DStem2: 311 1030 150 913 0.865946 -0.500138<0 218.179 533.824 752.003> 150 613 311 496 0.865946 0.500138<80.9012 299.08 614.726 832.904>
LayerCount: 2
Fore
SplineSet
682 1220 m 1,0,-1
 682 921 l 1,1,-1
 871 1030 l 1,2,-1
 1028 921 l 1,3,-1
 1033 913 l 1,4,-1
 773 763 l 1,5,-1
 1033 613 l 1,6,-1
 1028 605 l 1,7,-1
 871 496 l 1,8,-1
 682 605 l 1,9,-1
 682 387 l 1,10,-1
 510 306 l 1,11,-1
 500 306 l 1,12,-1
 500 605 l 1,13,-1
 311 496 l 1,14,-1
 155 605 l 1,15,-1
 150 613 l 1,16,-1
 409 763 l 1,17,-1
 150 913 l 1,18,-1
 155 921 l 1,19,-1
 311 1030 l 1,20,-1
 500 921 l 1,21,-1
 500 1139 l 1,22,-1
 672 1220 l 1,23,-1
 682 1220 l 1,0,-1
EndSplineSet
Validated: 3073
EndChar

StartChar: fraction
Encoding: 8260 8260 169
Width: 974
GlyphClass: 2
Flags: W
DStem2: 10 -72 161 -140 0.422626 0.906304<2.18787 1899.6>
LayerCount: 2
Fore
SplineSet
151 -140 m 1,0,-1
 10 -72 l 1,1,-1
 812 1650 l 1,2,-1
 822 1650 l 1,3,-1
 964 1582 l 1,4,-1
 161 -140 l 1,5,-1
 151 -140 l 1,0,-1
EndSplineSet
Validated: 3073
EndChar

StartChar: Euro
Encoding: 8364 8364 170
Width: 1482
GlyphClass: 2
Flags: W
HStem: -20 110<611.842 942.158> 588 110<147 272 472 793> 812 110<147 272 472 793> 1420 110<611.842 941.02>
VStem: 272 200<260.871 588 698 812 922 1249.13> 1082 200<260.871 460 1050 1253.91>
LayerCount: 2
Fore
SplineSet
1282 550 m 1,0,-1
 1282 480 l 2,1,2
 1282 263 1282 263 1147 125 c 0,3,4
 1005 -20 1005 -20 777 -20 c 128,-1,5
 549 -20 549 -20 407 125 c 0,6,7
 272 263 272 263 272 480 c 2,8,-1
 272 588 l 1,9,-1
 100 588 l 1,10,-1
 100 598 l 1,11,-1
 147 698 l 1,12,-1
 272 698 l 1,13,-1
 272 812 l 1,14,-1
 100 812 l 1,15,-1
 100 822 l 1,16,-1
 147 922 l 1,17,-1
 272 922 l 1,18,-1
 272 1030 l 2,19,20
 272 1247 272 1247 407 1385 c 0,21,22
 549 1530 549 1530 777 1530 c 0,23,24
 1013 1530 1013 1530 1147.5 1385 c 128,-1,25
 1282 1240 1282 1240 1282 1050 c 1,26,-1
 1092 960 l 1,27,-1
 1082 960 l 1,28,-1
 1082 1100 l 2,29,30
 1082 1234 1082 1234 1010 1317 c 0,31,32
 921 1420 921 1420 777 1420 c 128,-1,33
 633 1420 633 1420 544 1317 c 0,34,35
 472 1234 472 1234 472 1100 c 2,36,-1
 472 922 l 1,37,-1
 840 922 l 1,38,-1
 840 912 l 1,39,-1
 793 812 l 1,40,-1
 472 812 l 1,41,-1
 472 698 l 1,42,-1
 840 698 l 1,43,-1
 840 688 l 1,44,-1
 793 588 l 1,45,-1
 472 588 l 1,46,-1
 472 410 l 2,47,48
 472 276 472 276 544 193 c 0,49,50
 633 90 633 90 777 90 c 128,-1,51
 921 90 921 90 1010 193 c 0,52,53
 1082 276 1082 276 1082 460 c 1,54,-1
 1272 550 l 1,55,-1
 1282 550 l 1,0,-1
EndSplineSet
Validated: 1
EndChar

StartChar: afii61248
Encoding: 8453 8453 171
Width: 1642
GlyphClass: 2
Flags: W
HStem: -40 21G<496.529 557.317> -20 89<1131.2 1312.8> 670 89<329.202 524.978> 753 87<1131.67 1312.36> 1443 87<329.715 523.255> 1530 20G<1096.68 1157.47>
VStem: 150 150<802.976 1399.05> 554 150<803.069 973 1237 1398.96> 952 150<112.976 708.993> 1342 150<112.976 708.931>
DStem2: 397 28 548 -40 0.422266 0.906472<2.12205 1679.04>
LayerCount: 2
Fore
SplineSet
1222 -20 m 128,-1,1
 1099 -20 1099 -20 1025 58 c 0,2,3
 952 135 952 135 952 268 c 2,4,-1
 952 551 l 2,5,6
 952 684 952 684 1025 761 c 0,7,8
 1101 840 1101 840 1222 840 c 128,-1,9
 1343 840 1343 840 1419 761 c 0,10,11
 1492 684 1492 684 1492 551 c 2,12,-1
 1492 268 l 2,13,14
 1492 135 1492 135 1419 58 c 0,15,0
 1345 -20 1345 -20 1222 -20 c 128,-1,1
1221 69 m 0,16,17
 1273 69 1273 69 1313 112 c 0,18,19
 1342 143 1342 143 1342 205 c 2,20,-1
 1342 617 l 2,21,22
 1342 676 1342 676 1313 710 c 0,23,24
 1276 753 1276 753 1222 753 c 0,25,26
 1170 753 1170 753 1131 710 c 0,27,28
 1102 678 1102 678 1102 617 c 2,29,-1
 1102 205 l 2,30,31
 1102 143 1102 143 1131 112 c 0,32,33
 1171 69 1171 69 1221 69 c 0,16,17
704 1028 m 1,34,-1
 704 962 l 2,35,36
 704 831 704 831 630 752 c 0,37,38
 554 670 554 670 420 670 c 0,39,40
 297 670 297 670 223 748 c 0,41,42
 150 825 150 825 150 958 c 2,43,-1
 150 1241 l 2,44,45
 150 1374 150 1374 223 1451 c 0,46,47
 299 1530 299 1530 420 1530 c 0,48,49
 547 1530 547 1530 630 1447 c 0,50,51
 704 1373 704 1373 704 1237 c 1,52,-1
 590 1182 l 1,53,-1
 554 1182 l 1,54,-1
 554 1307 l 2,55,56
 554 1367 554 1367 525 1400 c 0,57,58
 487 1443 487 1443 428 1443 c 0,59,60
 371 1443 371 1443 329 1400 c 0,61,62
 300 1370 300 1370 300 1307 c 2,63,-1
 300 895 l 2,64,65
 300 833 300 833 329 802 c 0,66,67
 369 759 369 759 428 759 c 128,-1,68
 487 759 487 759 525 802 c 0,69,70
 554 836 554 836 554 895 c 2,71,-1
 554 973 l 1,72,-1
 669 1028 l 1,73,-1
 704 1028 l 1,34,-1
538 -40 m 1,74,-1
 397 28 l 1,75,-1
 1106 1550 l 1,76,-1
 1116 1550 l 1,77,-1
 1257 1482 l 1,78,-1
 548 -40 l 1,79,-1
 538 -40 l 1,74,-1
EndSplineSet
Validated: 1
EndChar

StartChar: afii61289
Encoding: 8467 8467 172
Width: 1108
GlyphClass: 2
Flags: W
HStem: -20 136<558.838 669.961> 0 21G<150 363.84> 1511 20G<711 795.5>
VStem: 332 208<672 805.805> 729 179<1092.03 1387.01>
LayerCount: 2
Fore
SplineSet
540 672 m 1,0,1
 600 796 600 796 656 982 c 0,2,3
 729 1224 729 1224 729 1389 c 1,4,5
 677 1305 677 1305 614 1098 c 0,6,7
 540 857 540 857 540 672 c 1,0,1
150 0 m 1,8,9
 250 146 250 146 340 296 c 1,10,11
 332 366 332 366 332 444 c 0,12,13
 332 592 332 592 361 733 c 0,14,15
 481 1333 481 1333 576 1443 c 0,16,17
 652 1531 652 1531 770 1531 c 0,18,19
 821 1531 821 1531 860 1498 c 1,20,21
 908 1459 908 1459 908 1338 c 0,22,23
 908 1246 908 1246 878 1092 c 0,24,25
 808 742 808 742 522 272 c 1,26,27
 555 116 555 116 611 116 c 0,28,29
 630 116 630 116 653 140 c 0,30,31
 684 172 684 172 716 228 c 1,32,-1
 892 228 l 1,33,34
 815 100 815 100 750.5 40 c 128,-1,35
 686 -20 686 -20 602 -20 c 0,36,37
 474 -20 474 -20 403 81 c 1,38,-1
 351 0 l 1,39,-1
 150 0 l 1,8,9
EndSplineSet
Validated: 3073
EndChar

StartChar: trademark
Encoding: 8482 8482 173
Width: 1840
GlyphClass: 2
Flags: W
HStem: 1408 102<180 364 514 698> 1430 90<889.668 1069.96 1280.32 1460.36>
VStem: 364 150<739 1408> 710 150<738 1385.99> 1100 150<737 1384.99> 1490 150<738 1384.93>
LayerCount: 2
Fore
SplineSet
364 685 m 1,0,-1
 364 1408 l 1,1,-1
 150 1408 l 1,2,-1
 150 1444 l 1,3,-1
 180 1510 l 1,4,-1
 728 1510 l 1,5,-1
 728 1474 l 1,6,-1
 698 1408 l 1,7,-1
 514 1408 l 1,8,-1
 514 739 l 1,9,-1
 400 685 l 1,10,-1
 364 685 l 1,0,-1
710 686 m 1,11,-1
 710 1231 l 2,12,13
 710 1364 710 1364 783 1441 c 0,14,15
 859 1520 859 1520 980 1520 c 0,16,17
 1100 1520 1100 1520 1175 1443 c 1,18,19
 1251 1519 1251 1519 1370 1519 c 0,20,21
 1491 1519 1491 1519 1567 1440 c 0,22,23
 1640 1363 1640 1363 1640 1230 c 2,24,-1
 1640 738 l 1,25,-1
 1525 684 l 1,26,-1
 1490 684 l 1,27,-1
 1490 1293 l 2,28,29
 1490 1352 1490 1352 1461 1386 c 0,30,31
 1424 1429 1424 1429 1370 1429 c 0,32,33
 1318 1429 1318 1429 1279 1386 c 0,34,35
 1250 1354 1250 1354 1250 1293 c 2,36,-1
 1250 739 l 1,37,-1
 1250 737 l 1,38,-1
 1134 684 l 1,39,-1
 1100 685 l 1,40,-1
 1100 1294 l 2,41,42
 1100 1353 1100 1353 1071 1387 c 0,43,44
 1034 1430 1034 1430 980 1430 c 0,45,46
 928 1430 928 1430 889 1387 c 0,47,48
 860 1355 860 1355 860 1294 c 2,49,-1
 860 738 l 1,50,-1
 744 685 l 1,51,-1
 710 686 l 1,11,-1
EndSplineSet
Validated: 1
EndChar

StartChar: uni2126
Encoding: 8486 8486 174
Width: 1410
GlyphClass: 2
Flags: W
HStem: 0 297<522.269 608 802 888.057> 0 110<197 446 964 1213> 1420 110<539.842 868.968>
VStem: 200 200<450.949 1249.62> 446 162<110 270.781> 802 162<110 269.612> 1010 200<452.918 1251.1>
LayerCount: 2
Fore
SplineSet
150 0 m 1,0,-1
 150 10 l 1,1,-1
 197 110 l 1,2,-1
 446 110 l 1,3,-1
 446 248 l 1,4,5
 384 275 384 275 335 320 c 0,6,7
 200 448 200 448 200 675 c 2,8,-1
 200 1030 l 2,9,10
 200 1248 200 1248 335 1385 c 0,11,12
 477 1530 477 1530 705 1530 c 0,13,14
 928 1530 928 1530 1075 1385 c 0,15,16
 1210 1251 1210 1251 1210 1030 c 2,17,-1
 1210 675 l 2,18,19
 1210 452 1210 452 1075 320 c 0,20,21
 1032 278 1032 278 964 247 c 1,22,-1
 964 110 l 1,23,-1
 1260 110 l 1,24,-1
 1260 100 l 1,25,-1
 1213 0 l 1,26,-1
 802 0 l 1,27,-1
 802 298 l 1,28,29
 881 322 881 322 938 388 c 0,30,31
 1010 471 1010 471 1010 605 c 2,32,-1
 1010 1100 l 2,33,34
 1010 1234 1010 1234 938 1317 c 0,35,36
 849 1420 849 1420 705 1420 c 128,-1,37
 561 1420 561 1420 472 1317 c 0,38,39
 400 1234 400 1234 400 1100 c 2,40,-1
 400 605 l 2,41,42
 400 468 400 468 472 388 c 0,43,44
 534 319 534 319 608 297 c 1,45,-1
 608 0 l 1,46,-1
 150 0 l 1,0,-1
EndSplineSet
Validated: 1
EndChar

StartChar: estimated
Encoding: 8494 8494 175
Width: 1358
GlyphClass: 2
Flags: W
HStem: -15 73<501.557 855.461> 550 74<381 977> 1042 73<502.165 850.247>
VStem: 150 231<307.452 550 624 793.838> 977 231<624 789.607>
LayerCount: 2
Fore
SplineSet
381 550 m 1,0,-1
 381 179 l 1,1,2
 501 58 501 58 679 58 c 0,3,4
 933 58 933 58 1074 304 c 1,5,-1
 1146 261 l 1,6,7
 1026 88 1026 88 914 36.5 c 128,-1,8
 802 -15 802 -15 679 -15 c 0,9,10
 442 -15 442 -15 296 145 c 128,-1,11
 150 305 150 305 150 550 c 0,12,13
 150 797 150 797 297 956 c 128,-1,14
 444 1115 444 1115 679 1115 c 0,15,16
 893 1115 893 1115 1045 973 c 128,-1,17
 1197 831 1197 831 1208 550 c 1,18,-1
 381 550 l 1,0,-1
977 624 m 1,19,-1
 977 921 l 1,20,21
 849 1042 849 1042 677 1042 c 0,22,23
 502 1042 502 1042 381 920 c 1,24,-1
 381 624 l 1,25,-1
 977 624 l 1,19,-1
EndSplineSet
Validated: 3073
EndChar

StartChar: partialdiff
Encoding: 8706 8706 176
Width: 1267
GlyphClass: 2
Flags: W
HStem: 0 92<400 587.576> 883 84<654.972 885.467> 1427 83<623.242 789.693>
VStem: 150 212<147.417 518.018> 888 179<603.29 878.484 965 1264.05>
LayerCount: 2
Fore
SplineSet
458 0 m 0,0,1
 321 0 321 0 235.5 91 c 128,-1,2
 150 182 150 182 150 347 c 0,3,4
 150 556 150 556 303 734 c 0,5,6
 503 967 503 967 781 967 c 24,7,8
 816 967 816 967 886 965 c 1,9,10
 886 1113 886 1113 869 1201 c 0,11,12
 847 1313 847 1313 805 1369 c 0,13,14
 761 1427 761 1427 711 1427 c 0,15,16
 644 1427 644 1427 593 1347 c 0,17,18
 555 1287 555 1287 519 1157 c 1,19,-1
 384 1217 l 1,20,21
 453 1371 453 1371 552 1442 c 0,22,23
 647 1510 647 1510 744 1510 c 0,24,25
 876 1510 876 1510 971 1371 c 0,26,27
 1067 1231 1067 1231 1067 951 c 0,28,29
 1067 670 1067 670 980 438 c 0,30,31
 894 214 894 214 747 107 c 128,-1,32
 600 0 600 0 458 0 c 0,0,1
488 92 m 0,33,34
 562 92 562 92 636 189 c 0,35,36
 697 268 697 268 766 393 c 0,37,38
 856 555 856 555 888 867 c 1,39,40
 848 883 848 883 774 883 c 0,41,42
 667 883 667 883 557 755 c 0,43,44
 485 672 485 672 436 581 c 0,45,46
 362 444 362 444 362 333 c 0,47,48
 362 233 362 233 381 175 c 0,49,50
 409 92 409 92 488 92 c 0,33,34
EndSplineSet
Validated: 3073
EndChar

StartChar: uni2206
Encoding: 8710 8710 177
Width: 1191
GlyphClass: 2
Flags: W
HStem: 0 110<172 943> 1530 20G<623.805 682.581>
DStem2: 5 0 172 110 0.315452 0.948942<157.064 1404.27> 676 1550 558 1296 0.312548 -0.949902<204.394 1451.31>
LayerCount: 2
Fore
SplineSet
5 0 m 1,0,-1
 493 1468 l 1,1,-1
 666 1550 l 1,2,-1
 676 1550 l 1,3,-1
 1186 0 l 1,4,-1
 5 0 l 1,0,-1
172 110 m 1,5,-1
 943 110 l 1,6,-1
 558 1296 l 1,7,-1
 172 110 l 1,5,-1
EndSplineSet
Validated: 1
EndChar

StartChar: product
Encoding: 8719 8719 178
Width: 1390
GlyphClass: 2
Flags: W
HStem: -450 21G<200 252.222 990 1042.22> 1400 110<400 990>
VStem: 200 200<-360 1400> 990 200<-360 1400>
LayerCount: 2
Fore
SplineSet
210 -450 m 1,0,-1
 200 -450 l 1,1,-1
 200 1460 l 1,2,-1
 306 1510 l 1,3,-1
 1190 1510 l 1,4,-1
 1190 -360 l 1,5,-1
 1000 -450 l 1,6,-1
 990 -450 l 1,7,-1
 990 1400 l 1,8,-1
 400 1400 l 1,9,-1
 400 -360 l 1,10,-1
 210 -450 l 1,0,-1
EndSplineSet
Validated: 1
EndChar

StartChar: summation
Encoding: 8721 8721 179
Width: 1203
GlyphClass: 2
Flags: W
HStem: -410 110<354 1006> 1400 110<350 915>
DStem2: 350 1400 101 1460 0.483848 -0.875152<0 821.126>
LayerCount: 2
Fore
SplineSet
100 -410 m 1,0,-1
 582 590 l 1,1,-1
 101 1460 l 1,2,-1
 207 1510 l 1,3,-1
 962 1510 l 1,4,-1
 962 1500 l 1,5,-1
 915 1400 l 1,6,-1
 350 1400 l 1,7,-1
 804 588 l 1,8,-1
 354 -300 l 1,9,-1
 1053 -300 l 1,10,-1
 1053 -310 l 1,11,-1
 1006 -410 l 1,12,-1
 100 -410 l 1,0,-1
EndSplineSet
Validated: 1
EndChar

StartChar: minus
Encoding: 8722 8722 180
Width: 1214
GlyphClass: 2
Flags: W
HStem: 664 182<231 983>
LayerCount: 2
Fore
SplineSet
150 664 m 1,0,-1
 150 674 l 1,1,-1
 231 846 l 1,2,-1
 1064 846 l 1,3,-1
 1064 836 l 1,4,-1
 983 664 l 1,5,-1
 150 664 l 1,0,-1
EndSplineSet
Validated: 3073
EndChar

StartChar: uni2215
Encoding: 8725 8725 181
Width: 974
GlyphClass: 2
Flags: W
DStem2: 10 -72 161 -140 0.422626 0.906304<2.18787 1899.6>
LayerCount: 2
Fore
SplineSet
151 -140 m 1,0,-1
 10 -72 l 1,1,-1
 812 1650 l 1,2,-1
 822 1650 l 1,3,-1
 964 1582 l 1,4,-1
 161 -140 l 1,5,-1
 151 -140 l 1,0,-1
EndSplineSet
Validated: 3073
EndChar

StartChar: asteriskmath
Encoding: 8727 8727 182
Width: 1183
GlyphClass: 2
Flags: W
VStem: 500 182<387 605 921 1139>
DStem2: 311 1030 150 913 0.865946 -0.500138<0 218.179 533.824 752.003> 150 613 311 496 0.865946 0.500138<80.9012 299.08 614.726 832.904>
LayerCount: 2
Fore
SplineSet
682 1220 m 1,0,-1
 682 921 l 1,1,-1
 871 1030 l 1,2,-1
 1028 921 l 1,3,-1
 1033 913 l 1,4,-1
 773 763 l 1,5,-1
 1033 613 l 1,6,-1
 1028 605 l 1,7,-1
 871 496 l 1,8,-1
 682 605 l 1,9,-1
 682 387 l 1,10,-1
 510 306 l 1,11,-1
 500 306 l 1,12,-1
 500 605 l 1,13,-1
 311 496 l 1,14,-1
 155 605 l 1,15,-1
 150 613 l 1,16,-1
 409 763 l 1,17,-1
 150 913 l 1,18,-1
 155 921 l 1,19,-1
 311 1030 l 1,20,-1
 500 921 l 1,21,-1
 500 1139 l 1,22,-1
 672 1220 l 1,23,-1
 682 1220 l 1,0,-1
EndSplineSet
Validated: 3073
EndChar

StartChar: uni2218
Encoding: 8728 8728 183
Width: 1130
GlyphClass: 2
Flags: W
HStem: 354 110<424.306 706.186> 1044 110<423.814 705.694>
VStem: 150 200<572.467 935.05> 780 200<572.95 935.533>
LayerCount: 2
Fore
SplineSet
780 754 m 128,-1,1
 780 937 780 937 717.5 990.5 c 128,-1,2
 655 1044 655 1044 565 1044 c 128,-1,3
 475 1044 475 1044 412.5 990.5 c 128,-1,4
 350 937 350 937 350 754 c 128,-1,5
 350 571 350 571 412.5 517.5 c 128,-1,6
 475 464 475 464 565 464 c 128,-1,7
 655 464 655 464 717.5 517.5 c 128,-1,0
 780 571 780 571 780 754 c 128,-1,1
150 754 m 0,8,9
 150 919 150 919 274 1041 c 0,10,11
 390 1154 390 1154 565 1154 c 0,12,13
 738 1154 738 1154 856 1041 c 0,14,15
 980 921 980 921 980 754 c 0,16,17
 980 589 980 589 856 467 c 0,18,19
 740 354 740 354 565 354 c 0,20,21
 392 354 392 354 274 467 c 0,22,23
 150 587 150 587 150 754 c 0,8,9
EndSplineSet
Validated: 1
EndChar

StartChar: uni2219
Encoding: 8729 8729 184
Width: 600
GlyphClass: 2
Flags: W
HStem: 631 245<216.097 383.903>
VStem: 180 240<668.129 838.871>
LayerCount: 2
Fore
SplineSet
180 753.5 m 132,-1,1
 180 804 180 804 215 840 c 132,-1,2
 250 876 250 876 300 876 c 132,-1,3
 350 876 350 876 385 840 c 132,-1,4
 420 804 420 804 420 753.5 c 132,-1,5
 420 703 420 703 385 667 c 132,-1,6
 350 631 350 631 300 631 c 132,-1,7
 250 631 250 631 215 667 c 132,-1,0
 180 703 180 703 180 753.5 c 132,-1,1
EndSplineSet
Validated: 1
EndChar

StartChar: radical
Encoding: 8730 8730 185
Width: 1452
GlyphClass: 2
Flags: W
HStem: -40 21G<508.51 567.195> 641 110<147 294> 1400 110<1157 1355>
DStem2: 458 751 294 641 0.308675 -0.951167<54.0056 544.846> 630 234 698 42 0.320201 0.947349<0 1273.36>
LayerCount: 2
Fore
SplineSet
525 -40 m 1,0,-1
 515 -40 l 1,1,-1
 294 641 l 1,2,-1
 100 641 l 1,3,-1
 100 651 l 1,4,-1
 147 751 l 1,5,-1
 458 751 l 1,6,-1
 630 234 l 1,7,-1
 1057 1510 l 1,8,-1
 1402 1510 l 1,9,-1
 1402 1500 l 1,10,-1
 1355 1400 l 1,11,-1
 1157 1400 l 1,12,-1
 698 42 l 1,13,-1
 525 -40 l 1,0,-1
EndSplineSet
Validated: 1
EndChar

StartChar: uni221B
Encoding: 8731 8731 186
Width: 1452
GlyphClass: 2
Flags: W
HStem: -40 21G<508.51 567.195> 641 110<147 294> 790 71<441.236 608.645> 1400 110<1157 1355> 1426 84<345 562>
VStem: 275 135<901.005 1042> 640 134<893.017 1156.92>
DStem2: 458 751 294 641 0.308675 -0.951167<54.0056 544.846> 630 234 698 42 0.320201 0.947349<0 1273.36>
LayerCount: 2
Fore
SplineSet
525 -40 m 1,0,-1
 515 -40 l 1,1,-1
 294 641 l 1,2,-1
 100 641 l 1,3,-1
 100 651 l 1,4,-1
 147 751 l 1,5,-1
 458 751 l 1,6,-1
 630 234 l 1,7,-1
 1057 1510 l 1,8,-1
 1402 1510 l 1,9,-1
 1402 1500 l 1,10,-1
 1355 1400 l 1,11,-1
 1157 1400 l 1,12,-1
 698 42 l 1,13,-1
 525 -40 l 1,0,-1
275 1042 m 1,14,-1
 382 1100 l 1,15,-1
 410 1100 l 1,16,-1
 410 983 l 2,17,18
 410 932 410 932 437 900 c 0,19,20
 470 861 470 861 526 861 c 0,21,22
 579 861 579 861 613 900 c 0,23,24
 640 931 640 931 640 1041 c 0,25,26
 640 1123 640 1123 619 1148 c 0,27,28
 590 1182 590 1182 522 1183 c 0,29,-1
 409 1183 l 1,30,-1
 562 1426 l 1,31,-1
 315 1426 l 1,32,-1
 315 1459 l 1,33,-1
 345 1510 l 1,34,-1
 755 1510 l 1,35,-1
 588 1252 l 1,36,37
 657 1245 657 1245 706 1202 c 0,38,39
 774 1141 774 1141 774 1038 c 0,40,41
 774 926 774 926 707 858 c 128,-1,42
 640 790 640 790 525 790 c 129,-1,43
 410 790 410 790 342 859 c 0,44,45
 275 927 275 927 275 1042 c 1,14,-1
EndSplineSet
Validated: 1
EndChar

StartChar: infinity
Encoding: 8734 8734 187
Width: 1761
GlyphClass: 2
Flags: W
HStem: 354 110<424.306 704.579 1056.42 1337.19> 1044 110<423.814 704.579 1056.42 1336.69>
VStem: 150 200<572.467 935.05> 780 201<537.38 970.62> 1411 200<572.709 935.533>
CounterMasks: 1 38
LayerCount: 2
Fore
SplineSet
1411 754 m 128,-1,1
 1411 937 1411 937 1348.5 990.5 c 128,-1,2
 1286 1044 1286 1044 1196 1044 c 128,-1,3
 1106 1044 1106 1044 1043.5 990.5 c 128,-1,4
 981 937 981 937 981 754 c 128,-1,5
 981 571 981 571 1043.5 517.5 c 128,-1,6
 1106 464 1106 464 1196 464 c 128,-1,7
 1286 464 1286 464 1348.5 517.5 c 128,-1,0
 1411 571 1411 571 1411 754 c 128,-1,1
780 754 m 128,-1,9
 780 937 780 937 717.5 990.5 c 128,-1,10
 655 1044 655 1044 565 1044 c 128,-1,11
 475 1044 475 1044 412.5 990.5 c 128,-1,12
 350 937 350 937 350 754 c 128,-1,13
 350 571 350 571 412.5 517.5 c 128,-1,14
 475 464 475 464 565 464 c 128,-1,15
 655 464 655 464 717.5 517.5 c 128,-1,8
 780 571 780 571 780 754 c 128,-1,9
150 754 m 0,16,17
 150 919 150 919 274 1041 c 0,18,19
 390 1154 390 1154 565 1154 c 0,20,21
 743 1154 743 1154 856 1041 c 0,22,23
 869 1028 869 1028 881 1015 c 1,24,25
 892 1028 892 1028 905 1041 c 0,26,27
 1018 1154 1018 1154 1196 1154 c 0,28,29
 1369 1154 1369 1154 1487 1041 c 0,30,31
 1611 921 1611 921 1611 754 c 0,32,33
 1611 588 1611 588 1487 467 c 0,34,35
 1371 354 1371 354 1196 354 c 0,36,37
 1018 354 1018 354 905 467 c 0,38,39
 893 479 893 479 880 493 c 1,40,41
 869 480 869 480 856 467 c 0,42,43
 743 354 743 354 565 354 c 0,44,45
 392 354 392 354 274 467 c 0,46,47
 150 587 150 587 150 754 c 0,16,17
EndSplineSet
Validated: 1
EndChar

StartChar: approxequal
Encoding: 8776 8776 188
Width: 1138
GlyphClass: 2
Flags: W
HStem: 397 144<680.182 854.594> 614 144<282.406 458.661> 748 144<680.182 854.594> 965 144<282.406 458.661>
VStem: 150 102<441 587.371 792 938.371> 884 104<567.629 714 918.629 1065>
LayerCount: 2
Fore
SplineSet
150 397 m 1,0,1
 150 758 150 758 387 758 c 0,2,3
 521 758 521 758 608 657 c 24,4,5
 708 541 708 541 766 541 c 0,6,7
 884 541 884 541 884 714 c 1,8,-1
 976 758 l 9,9,-1
 988 758 l 17,10,11
 988 397 988 397 751 397 c 0,12,13
 611 397 611 397 528 498 c 0,14,15
 433 614 433 614 370 614 c 0,16,17
 252 614 252 614 252 441 c 1,18,-1
 160 397 l 1,19,-1
 150 397 l 1,0,1
150 748 m 1,20,21
 150 1109 150 1109 387 1109 c 0,22,23
 521 1109 521 1109 608 1008 c 24,24,25
 708 892 708 892 766 892 c 0,26,27
 884 892 884 892 884 1065 c 1,28,-1
 976 1109 l 9,29,-1
 988 1109 l 17,30,31
 988 748 988 748 751 748 c 0,32,33
 611 748 611 748 528 849 c 0,34,35
 433 965 433 965 370 965 c 0,36,37
 252 965 252 965 252 792 c 1,38,-1
 160 748 l 1,39,-1
 150 748 l 1,20,21
EndSplineSet
Validated: 1
EndChar

StartChar: notequal
Encoding: 8800 8800 189
Width: 1214
GlyphClass: 2
Flags: W
HStem: 482 182<231 389 656 983> 846 182<231 558 825 983>
DStem2: 289 268 440 200 0.42198 0.906605<2.06988 236.212 513.882 637.53 915.201 1149.34>
LayerCount: 2
Fore
SplineSet
430 200 m 1,0,-1
 289 268 l 1,1,-1
 389 482 l 1,2,-1
 150 482 l 1,3,-1
 150 492 l 1,4,-1
 231 664 l 1,5,-1
 473 664 l 1,6,-1
 558 846 l 1,7,-1
 150 846 l 1,8,-1
 150 856 l 1,9,-1
 231 1028 l 1,10,-1
 643 1028 l 1,11,-1
 774 1310 l 1,12,-1
 784 1310 l 1,13,-1
 925 1242 l 1,14,-1
 825 1028 l 1,15,-1
 1064 1028 l 1,16,-1
 1064 1018 l 1,17,-1
 983 846 l 1,18,-1
 741 846 l 1,19,-1
 656 664 l 1,20,-1
 1064 664 l 1,21,-1
 1064 654 l 1,22,-1
 983 482 l 1,23,-1
 571 482 l 1,24,-1
 440 200 l 1,25,-1
 430 200 l 1,0,-1
EndSplineSet
Validated: 3073
EndChar

StartChar: equivalence
Encoding: 8801 8801 190
Width: 1214
GlyphClass: 2
Flags: W
HStem: 300 182<231 983> 664 182<231 983> 1028 182<231 983>
CounterMasks: 1 e0
LayerCount: 2
Fore
SplineSet
150 300 m 1,0,-1
 150 310 l 1,1,-1
 231 482 l 1,2,-1
 1064 482 l 1,3,-1
 1064 472 l 1,4,-1
 983 300 l 1,5,-1
 150 300 l 1,0,-1
150 1028 m 1,6,-1
 150 1038 l 1,7,-1
 231 1210 l 1,8,-1
 1064 1210 l 1,9,-1
 1064 1200 l 1,10,-1
 983 1028 l 1,11,-1
 150 1028 l 1,6,-1
150 664 m 1,12,-1
 150 674 l 1,13,-1
 231 846 l 1,14,-1
 1064 846 l 1,15,-1
 1064 836 l 1,16,-1
 983 664 l 1,17,-1
 150 664 l 1,12,-1
EndSplineSet
Validated: 3073
EndChar

StartChar: lessequal
Encoding: 8804 8804 191
Width: 1338
GlyphClass: 2
Flags: W
HStem: 191 182<231 1057>
DStem2: 369 924 150 801 0.919983 -0.391958<0 831.535>
LayerCount: 2
Fore
SplineSet
150 801 m 1,0,-1
 150 811 l 1,1,-1
 232 984 l 1,2,-1
 1089 1352 l 1,3,-1
 1138 1249 l 1,4,-1
 1138 1239 l 1,5,-1
 369 924 l 1,6,-1
 1138 598 l 1,7,-1
 1138 588 l 1,8,-1
 1056 415 l 1,9,-1
 150 801 l 1,0,-1
150 191 m 1,10,-1
 150 201 l 1,11,-1
 231 373 l 1,12,-1
 1138 373 l 1,13,-1
 1138 363 l 1,14,-1
 1057 191 l 1,15,-1
 150 191 l 1,10,-1
EndSplineSet
Validated: 1
EndChar

StartChar: greaterequal
Encoding: 8805 8805 192
Width: 1338
GlyphClass: 2
Flags: W
HStem: 191 182<281 1107>
DStem2: 282 1352 200 1169 0.919983 -0.391958<0 831.535> 200 528 249 415 0.918868 0.394566<0.438527 830.897>
LayerCount: 2
Fore
SplineSet
1188 966 m 1,0,-1
 1188 956 l 1,1,-1
 1106 783 l 1,2,-1
 249 415 l 1,3,-1
 200 518 l 1,4,-1
 200 528 l 1,5,-1
 969 843 l 1,6,-1
 200 1169 l 1,7,-1
 200 1179 l 1,8,-1
 282 1352 l 1,9,-1
 1188 966 l 1,0,-1
200 191 m 1,10,-1
 200 201 l 1,11,-1
 281 373 l 1,12,-1
 1188 373 l 1,13,-1
 1188 363 l 1,14,-1
 1107 191 l 1,15,-1
 200 191 l 1,10,-1
EndSplineSet
Validated: 1
EndChar

StartChar: lozenge
Encoding: 9674 9674 193
Width: 1174
GlyphClass: 2
Flags: W
HStem: 0 21G<574.344 599.605>
DStem2: 120 738 294 810 0.517589 0.855629<151.666 637.523> 294 810 120 738 0.534725 -0.845026<0 642.656> 587 1510 545 1226 0.519065 -0.854735<220.944 869.392> 633 264 587 0 0.533177 0.846004<0 477.931>
LayerCount: 2
Fore
SplineSet
633 264 m 1,0,-1
 882 672 l 1,1,-1
 545 1226 l 1,2,-1
 294 810 l 1,3,-1
 633 264 l 1,0,-1
587 0 m 1,4,-1
 120 738 l 1,5,-1
 587 1510 l 1,6,-1
 1054 741 l 1,7,-1
 587 0 l 1,4,-1
EndSplineSet
Validated: 1
EndChar

StartChar: Oslash
Encoding: 216 216 194
Width: 1410
Flags: W
HStem: -40 21G<352.4 413.157> -20 110<540.011 870.158> 1420 110<539.842 869.989> 1530 20G<996.843 1056.78>
VStem: 200 200<292.603 1249.13> 1010 200<260.871 1220.17>
DStem2: 290 10 404 -40 0.421596 0.906784<2.72271 94.0064 305.565 1395.47 1607.03 1698.31>
LayerCount: 2
Fore
SplineSet
394 -40 m 1,0,-1
 290 10 l 1,1,-1
 341 119 l 1,2,3
 200 263 200 263 200 480 c 2,4,-1
 200 1030 l 2,5,6
 200 1247 200 1247 335 1385 c 0,7,8
 477 1530 477 1530 705 1530 c 0,9,10
 855 1530 855 1530 968 1467 c 1,11,-1
 1006 1550 l 1,12,-1
 1016 1550 l 1,13,-1
 1120 1499 l 1,14,-1
 1070 1390 l 1,15,16
 1210 1253 1210 1253 1210 1030 c 2,17,-1
 1210 480 l 2,18,19
 1210 263 1210 263 1075 125 c 0,20,21
 933 -20 933 -20 705 -20 c 0,22,23
 555 -20 555 -20 442 43 c 1,24,-1
 404 -40 l 1,25,-1
 394 -40 l 1,0,-1
911 1345 m 1,26,27
 828 1420 828 1420 705 1420 c 0,28,29
 561 1420 561 1420 472 1317 c 0,30,31
 400 1234 400 1234 400 1100 c 2,32,-1
 400 410 l 2,33,34
 400 342 400 342 419 287 c 1,35,-1
 911 1345 l 1,26,27
991 1223 m 1,36,-1
 499 165 l 1,37,38
 582 90 582 90 705 90 c 0,39,40
 849 90 849 90 938 193 c 0,41,42
 1010 276 1010 276 1010 410 c 2,43,-1
 1010 1100 l 2,44,45
 1010 1168 1010 1168 991 1223 c 1,36,-1
EndSplineSet
Validated: 1
EndChar

StartChar: oslash
Encoding: 248 248 195
Width: 1130
Flags: W
HStem: -40 21G<307.4 368.123> -20 110<437.553 706.186> 1010 110<423.814 691.496> 1120 20G<760.714 821.176>
VStem: 150 200<251.079 900.778> 780 200<199.222 851.092>
DStem2: 245 10 359 -40 0.421347 0.906899<2.68859 68.195 262.612 986.502 1181.03 1246>
LayerCount: 2
Fore
SplineSet
349 -40 m 1,0,-1
 245 10 l 1,1,-1
 281 87 l 1,2,3
 150 213 150 213 150 380 c 2,4,-1
 150 720 l 2,5,6
 150 885 150 885 274 1007 c 0,7,8
 390 1120 390 1120 565 1120 c 0,9,10
 663 1120 663 1120 744 1084 c 1,11,-1
 770 1140 l 1,12,-1
 780 1140 l 1,13,-1
 885 1089 l 1,14,-1
 850 1013 l 1,15,16
 980 893 980 893 980 720 c 2,17,-1
 980 380 l 2,18,19
 980 215 980 215 856 93 c 0,20,21
 740 -20 740 -20 565 -20 c 0,22,23
 466 -20 466 -20 385 17 c 1,24,-1
 359 -40 l 1,25,-1
 349 -40 l 1,0,-1
693 975 m 1,26,27
 638 1010 638 1010 565 1010 c 0,28,29
 475 1010 475 1010 412.5 956.5 c 128,-1,30
 350 903 350 903 350 788 c 2,31,-1
 350 312 l 2,32,33
 350 277 350 277 356 248 c 1,34,-1
 693 975 l 1,26,27
774 852 m 1,35,-1
 436 126 l 1,36,37
 491 90 491 90 565 90 c 0,38,39
 655 90 655 90 717.5 143.5 c 128,-1,40
 780 197 780 197 780 312 c 2,41,-1
 780 788 l 2,42,43
 780 823 780 823 774 852 c 1,35,-1
EndSplineSet
Validated: 1
EndChar

StartChar: multiply
Encoding: 215 215 196
Width: 1075
Flags: W
HStem: 425 660
VStem: 409 257<626.5 883.5>
DStem2: 336 1085 150 1014 0.707107 -0.707107<0 284.257 466.69 751.654> 150 496 336 425 0.707107 0.707107<81.3173 365.574 548.008 832.972>
LayerCount: 2
Fore
SplineSet
150 1014 m 1,0,-1
 157 1021 l 1,1,-1
 336 1085 l 1,2,-1
 537 884 l 1,3,-1
 739 1085 l 1,4,-1
 918 1021 l 1,5,-1
 925 1014 l 1,6,-1
 666 755 l 1,7,-1
 925 496 l 1,8,-1
 918 489 l 1,9,-1
 739 425 l 1,10,-1
 537 626 l 1,11,-1
 336 425 l 1,12,-1
 157 489 l 1,13,-1
 150 496 l 1,14,-1
 409 755 l 1,15,-1
 150 1014 l 1,0,-1
EndSplineSet
Validated: 3073
EndChar

StartChar: divide
Encoding: 247 247 197
Width: 1214
Flags: W
HStem: 305 245<524.097 691.903> 664 182<231 983> 965 245<524.097 691.903>
VStem: 488 240<342.129 512.871 1002.13 1172.87>
LayerCount: 2
Fore
SplineSet
488 1087.5 m 128,-1,1
 488 1138 488 1138 523 1174 c 128,-1,2
 558 1210 558 1210 608 1210 c 128,-1,3
 658 1210 658 1210 693 1174 c 128,-1,4
 728 1138 728 1138 728 1087.5 c 128,-1,5
 728 1037 728 1037 693 1001 c 128,-1,6
 658 965 658 965 608 965 c 128,-1,7
 558 965 558 965 523 1001 c 128,-1,0
 488 1037 488 1037 488 1087.5 c 128,-1,1
488 427.5 m 128,-1,9
 488 478 488 478 523 514 c 128,-1,10
 558 550 558 550 608 550 c 128,-1,11
 658 550 658 550 693 514 c 128,-1,12
 728 478 728 478 728 427.5 c 128,-1,13
 728 377 728 377 693 341 c 128,-1,14
 658 305 658 305 608 305 c 128,-1,15
 558 305 558 305 523 341 c 128,-1,8
 488 377 488 377 488 427.5 c 128,-1,9
150 664 m 1,16,-1
 150 674 l 1,17,-1
 231 846 l 1,18,-1
 1064 846 l 1,19,-1
 1064 836 l 1,20,-1
 983 664 l 1,21,-1
 150 664 l 1,16,-1
EndSplineSet
Validated: 1
EndChar

StartChar: uni1E02
Encoding: 7682 7682 198
Width: 1370
Flags: W
HStem: 0 110<400 863.001> 779 110<400 823.5> 1400 110<400 826.453> 1680 245<510.097 677.903>
VStem: 200 200<110 779 889 1400> 474 240<1717.13 1887.87> 900 199<973.178 1315.35> 990 200<254.811 649.552>
LayerCount: 2
Fore
SplineSet
400 110 m 1,0,-1
 685 110 l 2,1,2
 836 110 836 110 925 205 c 0,3,4
 990 274 990 274 990 457 c 0,5,6
 990 605 990 605 921 687 c 0,7,8
 844 779 844 779 685 779 c 2,9,-1
 400 779 l 1,10,-1
 400 110 l 1,0,-1
400 889 m 1,11,-1
 685 889 l 2,12,13
 785 889 785 889 846 954 c 0,14,15
 900 1012 900 1012 900 1142 c 0,16,17
 900 1292 900 1292 835 1349 c 0,18,19
 777 1400 777 1400 685 1400 c 2,20,-1
 400 1400 l 1,21,-1
 400 889 l 1,11,-1
200 0 m 1,22,-1
 200 1460 l 1,23,-1
 306 1510 l 1,24,-1
 685 1510 l 2,25,26
 854 1510 854 1510 966 1418 c 0,27,28
 1099 1310 1099 1310 1099 1141 c 0,29,30
 1099 969 1099 969 947 855 c 1,31,32
 996 834 996 834 1044 792 c 0,33,34
 1190 659 1190 659 1190 462 c 0,35,36
 1190 264 1190 264 1062 137 c 0,37,38
 925 0 925 0 685 0 c 2,39,-1
 200 0 l 1,22,-1
474 1802.5 m 128,-1,41
 474 1853 474 1853 509 1889 c 128,-1,42
 544 1925 544 1925 594 1925 c 128,-1,43
 644 1925 644 1925 679 1889 c 128,-1,44
 714 1853 714 1853 714 1802.5 c 128,-1,45
 714 1752 714 1752 679 1716 c 128,-1,46
 644 1680 644 1680 594 1680 c 128,-1,47
 544 1680 544 1680 509 1716 c 128,-1,40
 474 1752 474 1752 474 1802.5 c 128,-1,41
EndSplineSet
Validated: 1
EndChar

StartChar: uni1E03
Encoding: 7683 7683 199
Width: 1180
Flags: W
HStem: -20 110<474.306 756.186> 1010 110<474.899 755.694> 1285 245<595.097 762.903> 1530 20G<347.778 400>
VStem: 200 200<198.257 938.28 1035 1460> 559 240<1322.13 1492.87> 830 200<199.222 901.743>
LayerCount: 2
Fore
SplineSet
400 312 m 2,0,1
 400 197 400 197 462.5 143.5 c 128,-1,2
 525 90 525 90 615 90 c 128,-1,3
 705 90 705 90 767.5 143.5 c 128,-1,4
 830 197 830 197 830 312 c 10,5,-1
 830 788 l 2,6,7
 830 903 830 903 767.5 956.5 c 128,-1,8
 705 1010 705 1010 615 1010 c 128,-1,9
 525 1010 525 1010 462.5 956.5 c 128,-1,10
 400 903 400 903 400 788 c 2,11,-1
 400 312 l 2,0,1
200 380 m 2,12,-1
 200 1460 l 1,13,-1
 390 1550 l 1,14,-1
 400 1550 l 1,15,-1
 400 1035 l 1,16,17
 476 1120 476 1120 615 1120 c 0,18,19
 788 1120 788 1120 906 1007 c 0,20,21
 1030 887 1030 887 1030 720 c 2,22,-1
 1030 380 l 2,23,24
 1030 215 1030 215 906 93 c 0,25,26
 790 -20 790 -20 615 -20 c 0,27,28
 442 -20 442 -20 324 93 c 0,29,30
 200 213 200 213 200 380 c 2,12,-1
559 1407.5 m 128,-1,32
 559 1458 559 1458 594 1494 c 128,-1,33
 629 1530 629 1530 679 1530 c 128,-1,34
 729 1530 729 1530 764 1494 c 128,-1,35
 799 1458 799 1458 799 1407.5 c 128,-1,36
 799 1357 799 1357 764 1321 c 128,-1,37
 729 1285 729 1285 679 1285 c 128,-1,38
 629 1285 629 1285 594 1321 c 128,-1,31
 559 1357 559 1357 559 1407.5 c 128,-1,32
EndSplineSet
Validated: 1
EndChar

StartChar: uni1E0A
Encoding: 7690 7690 200
Width: 1390
Flags: W
HStem: 0 110<400 843.906> 1400 110<400 850.002> 1680 245<531.097 698.903>
VStem: 200 200<110 1400> 495 240<1717.13 1887.87> 990 200<280.871 1229.62>
LayerCount: 2
Fore
SplineSet
200 0 m 1,0,-1
 200 1460 l 1,1,-1
 306 1510 l 1,2,-1
 685 1510 l 1,3,4
 913 1510 913 1510 1055 1365 c 0,5,6
 1190 1228 1190 1228 1190 1010 c 2,7,-1
 1190 500 l 2,8,9
 1190 283 1190 283 1055 145 c 0,10,11
 913 0 913 0 685 0 c 1,12,-1
 200 0 l 1,0,-1
400 110 m 1,13,-1
 685 110 l 1,14,15
 822 110 822 110 918 213 c 0,16,17
 990 290 990 290 990 430 c 2,18,-1
 990 1080 l 2,19,20
 990 1213 990 1213 918 1297 c 0,21,22
 829 1400 829 1400 685 1400 c 1,23,-1
 400 1400 l 1,24,-1
 400 110 l 1,13,-1
495 1802.5 m 128,-1,26
 495 1853 495 1853 530 1889 c 128,-1,27
 565 1925 565 1925 615 1925 c 128,-1,28
 665 1925 665 1925 700 1889 c 128,-1,29
 735 1853 735 1853 735 1802.5 c 128,-1,30
 735 1752 735 1752 700 1716 c 128,-1,31
 665 1680 665 1680 615 1680 c 128,-1,32
 565 1680 565 1680 530 1716 c 128,-1,25
 495 1752 495 1752 495 1802.5 c 128,-1,26
EndSplineSet
Validated: 1
EndChar

StartChar: uni1E0B
Encoding: 7691 7691 201
Width: 1180
Flags: W
HStem: -20 110<424.306 706.186> 1010 110<423.814 705.008> 1285 245<382.097 549.903> 1530 20G<927.778 980>
VStem: 150 200<198.257 900.778> 346 240<1322.13 1492.87> 780 200<199.222 938.28 1035 1460>
LayerCount: 2
Fore
SplineSet
350 312 m 2,0,1
 350 197 350 197 412.5 143.5 c 128,-1,2
 475 90 475 90 565 90 c 128,-1,3
 655 90 655 90 717.5 143.5 c 128,-1,4
 780 197 780 197 780 312 c 10,5,-1
 780 788 l 2,6,7
 780 903 780 903 717.5 956.5 c 128,-1,8
 655 1010 655 1010 565 1010 c 128,-1,9
 475 1010 475 1010 412.5 956.5 c 128,-1,10
 350 903 350 903 350 788 c 2,11,-1
 350 312 l 2,0,1
150 380 m 2,12,-1
 150 720 l 2,13,14
 150 885 150 885 274 1007 c 0,15,16
 390 1120 390 1120 565 1120 c 0,17,18
 697 1120 697 1120 780 1035 c 1,19,-1
 780 1460 l 1,20,-1
 970 1550 l 1,21,-1
 980 1550 l 1,22,-1
 980 380 l 2,23,24
 980 215 980 215 856 93 c 0,25,26
 740 -20 740 -20 565 -20 c 0,27,28
 392 -20 392 -20 274 93 c 0,29,30
 150 213 150 213 150 380 c 2,12,-1
346 1407.5 m 128,-1,32
 346 1458 346 1458 381 1494 c 128,-1,33
 416 1530 416 1530 466 1530 c 128,-1,34
 516 1530 516 1530 551 1494 c 128,-1,35
 586 1458 586 1458 586 1407.5 c 128,-1,36
 586 1357 586 1357 551 1321 c 128,-1,37
 516 1285 516 1285 466 1285 c 128,-1,38
 416 1285 416 1285 381 1321 c 128,-1,31
 346 1357 346 1357 346 1407.5 c 128,-1,32
EndSplineSet
Validated: 1
EndChar

StartChar: uni1E1E
Encoding: 7710 7710 202
Width: 1120
Flags: W
HStem: -40 21G<200 252.222> 700 110<400 893> 1400 110<400 893> 1680 245<506.097 673.903>
VStem: 200 200<50 700 810 1400> 470 240<1717.13 1887.87>
LayerCount: 2
Fore
SplineSet
200 -40 m 1,0,-1
 200 1460 l 1,1,-1
 306 1510 l 1,2,-1
 940 1510 l 1,3,-1
 940 1500 l 1,4,-1
 893 1400 l 1,5,-1
 400 1400 l 1,6,-1
 400 810 l 1,7,-1
 940 810 l 1,8,-1
 940 800 l 1,9,-1
 893 700 l 1,10,-1
 400 700 l 1,11,-1
 400 50 l 1,12,-1
 210 -40 l 1,13,-1
 200 -40 l 1,0,-1
470 1802.5 m 128,-1,15
 470 1853 470 1853 505 1889 c 128,-1,16
 540 1925 540 1925 590 1925 c 128,-1,17
 640 1925 640 1925 675 1889 c 128,-1,18
 710 1853 710 1853 710 1802.5 c 128,-1,19
 710 1752 710 1752 675 1716 c 128,-1,20
 640 1680 640 1680 590 1680 c 128,-1,21
 540 1680 540 1680 505 1716 c 128,-1,14
 470 1752 470 1752 470 1802.5 c 128,-1,15
EndSplineSet
Validated: 1
EndChar

StartChar: uni1E1F
Encoding: 7711 7711 203
Width: 850
Flags: W
HStem: -40 21G<200 252.222> 850 110<97 200 400 703> 1420 110<477.844 702> 1680 245<376.097 543.903>
VStem: 200 200<50 850 960 1310.78> 340 240<1717.13 1887.87>
LayerCount: 2
Fore
SplineSet
200 -40 m 1,0,-1
 200 850 l 1,1,-1
 50 850 l 1,2,-1
 50 860 l 1,3,-1
 97 960 l 1,4,-1
 200 960 l 1,5,-1
 200 1130 l 2,6,7
 200 1295 200 1295 324 1417 c 0,8,9
 440 1530 440 1530 615 1530 c 2,10,-1
 750 1530 l 1,11,-1
 750 1520 l 1,12,-1
 702 1420 l 1,13,-1
 615 1420 l 2,14,15
 526 1420 526 1420 462 1366 c 0,16,17
 400 1314 400 1314 400 1198 c 2,18,-1
 400 960 l 1,19,-1
 750 960 l 1,20,-1
 750 950 l 1,21,-1
 703 850 l 1,22,-1
 400 850 l 1,23,-1
 400 50 l 1,24,-1
 210 -40 l 1,25,-1
 200 -40 l 1,0,-1
340 1802.5 m 128,-1,27
 340 1853 340 1853 375 1889 c 128,-1,28
 410 1925 410 1925 460 1925 c 128,-1,29
 510 1925 510 1925 545 1889 c 128,-1,30
 580 1853 580 1853 580 1802.5 c 128,-1,31
 580 1752 580 1752 545 1716 c 128,-1,32
 510 1680 510 1680 460 1680 c 128,-1,33
 410 1680 410 1680 375 1716 c 128,-1,26
 340 1752 340 1752 340 1802.5 c 128,-1,27
EndSplineSet
Validated: 1
EndChar

StartChar: uni1E40
Encoding: 7744 7744 204
Width: 2220
Flags: W
HStem: -40 21G<200 252.222 1010 1062.22 1820 1872.22> 1420 110<539.842 869.135 1350.22 1679.21> 1680 245<1022.1 1189.9>
VStem: 200 200<50 1248.64> 986 240<1717.13 1887.87> 1010 200<50 1278.25> 1820 200<50 1251.1>
LayerCount: 2
Fore
SplineSet
200 -40 m 1,0,-1
 200 1030 l 2,1,2
 200 1246 200 1246 335 1385 c 0,3,4
 477 1530 477 1530 705 1530 c 0,5,6
 911 1530 911 1530 1056 1385 c 0,7,8
 1092 1349 1092 1349 1110 1315 c 1,9,10
 1133 1350 1133 1350 1166 1382 c 0,11,12
 1317 1530 1317 1530 1515 1530 c 0,13,14
 1739 1530 1739 1530 1885 1385 c 0,15,16
 2020 1251 2020 1251 2020 1030 c 2,17,-1
 2020 50 l 1,18,-1
 1830 -40 l 1,19,-1
 1820 -40 l 1,20,-1
 1820 1100 l 2,21,22
 1820 1234 1820 1234 1748 1317 c 0,23,24
 1659 1420 1659 1420 1515 1420 c 128,-1,25
 1371 1420 1371 1420 1282 1317 c 0,26,27
 1210 1234 1210 1234 1210 1100 c 2,28,-1
 1210 50 l 1,29,-1
 1020 -40 l 1,30,-1
 1010 -40 l 1,31,-1
 1010 1100 l 2,32,33
 1010 1234 1010 1234 938 1317 c 0,34,35
 849 1420 849 1420 705 1420 c 128,-1,36
 561 1420 561 1420 472 1317 c 0,37,38
 400 1234 400 1234 400 1100 c 2,39,-1
 400 50 l 1,40,-1
 210 -40 l 1,41,-1
 200 -40 l 1,0,-1
986 1802.5 m 128,-1,43
 986 1853 986 1853 1021 1889 c 128,-1,44
 1056 1925 1056 1925 1106 1925 c 128,-1,45
 1156 1925 1156 1925 1191 1889 c 128,-1,46
 1226 1853 1226 1853 1226 1802.5 c 128,-1,47
 1226 1752 1226 1752 1191 1716 c 128,-1,48
 1156 1680 1156 1680 1106 1680 c 128,-1,49
 1056 1680 1056 1680 1021 1716 c 128,-1,42
 986 1752 986 1752 986 1802.5 c 128,-1,43
EndSplineSet
Validated: 1
EndChar

StartChar: uni1E41
Encoding: 7745 7745 205
Width: 1760
Flags: W
HStem: -40 21G<150 202.222 780 832.222 1410 1462.22> 1010 110<423.814 705.077 1055.01 1335.69> 1285 245<806.097 973.903>
VStem: 150 200<50 900.778> 770 240<1322.13 1492.87> 780 200<50 938.28> 1410 200<50 901.743>
LayerCount: 2
Fore
SplineSet
150 -40 m 1,0,-1
 150 720 l 2,1,2
 150 885 150 885 274 1007 c 0,3,4
 390 1120 390 1120 565 1120 c 0,5,6
 724 1120 724 1120 840 1004 c 0,7,8
 862 982 862 982 880 952 c 1,9,10
 898 981 898 981 920 1003 c 0,11,12
 1045 1120 1045 1120 1195 1120 c 0,13,14
 1368 1120 1368 1120 1486 1007 c 0,15,16
 1610 887 1610 887 1610 720 c 2,17,-1
 1610 50 l 1,18,-1
 1420 -40 l 1,19,-1
 1410 -40 l 1,20,-1
 1410 788 l 2,21,22
 1410 903 1410 903 1347.5 956.5 c 128,-1,23
 1285 1010 1285 1010 1195 1010 c 128,-1,24
 1105 1010 1105 1010 1042.5 956.5 c 128,-1,25
 980 903 980 903 980 788 c 2,26,-1
 980 50 l 1,27,-1
 790 -40 l 1,28,-1
 780 -40 l 1,29,-1
 780 788 l 2,30,31
 780 903 780 903 717.5 956.5 c 128,-1,32
 655 1010 655 1010 565 1010 c 128,-1,33
 475 1010 475 1010 412.5 956.5 c 128,-1,34
 350 903 350 903 350 788 c 2,35,-1
 350 50 l 1,36,-1
 160 -40 l 1,37,-1
 150 -40 l 1,0,-1
770 1407.5 m 128,-1,39
 770 1458 770 1458 805 1494 c 128,-1,40
 840 1530 840 1530 890 1530 c 128,-1,41
 940 1530 940 1530 975 1494 c 128,-1,42
 1010 1458 1010 1458 1010 1407.5 c 128,-1,43
 1010 1357 1010 1357 975 1321 c 128,-1,44
 940 1285 940 1285 890 1285 c 128,-1,45
 840 1285 840 1285 805 1321 c 128,-1,38
 770 1357 770 1357 770 1407.5 c 128,-1,39
EndSplineSet
Validated: 1
EndChar

StartChar: uni1E56
Encoding: 7766 7766 206
Width: 1340
Flags: W
HStem: -40 21G<200 252.222> 510 110<400 843.438> 1400 110<400 850.002> 1680 245<531.097 698.903>
VStem: 200 200<50 510 620 1400> 495 240<1717.13 1887.87> 990 200<788.233 1231.22>
LayerCount: 2
Fore
SplineSet
400 620 m 1,0,-1
 685 620 l 2,1,2
 816 620 816 620 918 723 c 0,3,4
 990 796 990 796 990 1010 c 0,5,6
 990 1214 990 1214 918 1297 c 0,7,8
 829 1400 829 1400 685 1400 c 2,9,-1
 400 1400 l 1,10,-1
 400 620 l 1,0,-1
200 -40 m 1,11,-1
 200 1460 l 1,12,-1
 306 1510 l 1,13,-1
 685 1510 l 2,14,15
 913 1510 913 1510 1055 1365 c 0,16,17
 1190 1227 1190 1227 1190 1010 c 0,18,19
 1190 792 1190 792 1055 655 c 0,20,21
 912 510 912 510 685 510 c 2,22,-1
 400 510 l 1,23,-1
 400 50 l 1,24,-1
 210 -40 l 1,25,-1
 200 -40 l 1,11,-1
495 1802.5 m 128,-1,27
 495 1853 495 1853 530 1889 c 128,-1,28
 565 1925 565 1925 615 1925 c 128,-1,29
 665 1925 665 1925 700 1889 c 128,-1,30
 735 1853 735 1853 735 1802.5 c 128,-1,31
 735 1752 735 1752 700 1716 c 128,-1,32
 665 1680 665 1680 615 1680 c 128,-1,33
 565 1680 565 1680 530 1716 c 128,-1,26
 495 1752 495 1752 495 1802.5 c 128,-1,27
EndSplineSet
Validated: 1
EndChar

StartChar: uni1E57
Encoding: 7767 7767 207
Width: 1180
Flags: W
HStem: -450 21G<200 252.222> -20 110<474.992 756.186> 1010 110<473.814 755.694> 1285 245<536.097 703.903>
VStem: 200 200<-360 65 161.72 900.778> 500 240<1322.13 1492.87> 830 200<199.222 901.743>
LayerCount: 2
Fore
SplineSet
400 312 m 2,0,1
 400 197 400 197 462.5 143.5 c 128,-1,2
 525 90 525 90 615 90 c 128,-1,3
 705 90 705 90 767.5 143.5 c 128,-1,4
 830 197 830 197 830 312 c 10,5,-1
 830 788 l 2,6,7
 830 903 830 903 767.5 956.5 c 128,-1,8
 705 1010 705 1010 615 1010 c 128,-1,9
 525 1010 525 1010 462.5 956.5 c 128,-1,10
 400 903 400 903 400 788 c 2,11,-1
 400 312 l 2,0,1
1030 720 m 2,12,-1
 1030 380 l 2,13,14
 1030 215 1030 215 906 93 c 0,15,16
 790 -20 790 -20 615 -20 c 0,17,18
 483 -20 483 -20 400 65 c 1,19,-1
 400 -360 l 1,20,-1
 210 -450 l 1,21,-1
 200 -450 l 1,22,-1
 200 720 l 2,23,24
 200 885 200 885 324 1007 c 0,25,26
 440 1120 440 1120 615 1120 c 0,27,28
 788 1120 788 1120 906 1007 c 0,29,30
 1030 887 1030 887 1030 720 c 2,12,-1
500 1407.5 m 128,-1,32
 500 1458 500 1458 535 1494 c 128,-1,33
 570 1530 570 1530 620 1530 c 128,-1,34
 670 1530 670 1530 705 1494 c 128,-1,35
 740 1458 740 1458 740 1407.5 c 128,-1,36
 740 1357 740 1357 705 1321 c 128,-1,37
 670 1285 670 1285 620 1285 c 128,-1,38
 570 1285 570 1285 535 1321 c 128,-1,31
 500 1357 500 1357 500 1407.5 c 128,-1,32
EndSplineSet
Validated: 1
EndChar

StartChar: uni1E6A
Encoding: 7786 7786 208
Width: 1066
Flags: W
HStem: -40 21G<433 485.222> 1400 110<52 433 633 1014> 1680 245<442.097 609.903>
VStem: 406 240<1717.13 1887.87> 433 200<50 1400>
LayerCount: 2
Fore
SplineSet
433 -40 m 1,0,-1
 433 1400 l 1,1,-1
 5 1400 l 1,2,-1
 5 1410 l 1,3,-1
 52 1510 l 1,4,-1
 1061 1510 l 1,5,-1
 1061 1500 l 1,6,-1
 1014 1400 l 1,7,-1
 633 1400 l 1,8,-1
 633 50 l 1,9,-1
 443 -40 l 1,10,-1
 433 -40 l 1,0,-1
406 1802.5 m 128,-1,12
 406 1853 406 1853 441 1889 c 128,-1,13
 476 1925 476 1925 526 1925 c 128,-1,14
 576 1925 576 1925 611 1889 c 128,-1,15
 646 1853 646 1853 646 1802.5 c 128,-1,16
 646 1752 646 1752 611 1716 c 128,-1,17
 576 1680 576 1680 526 1680 c 128,-1,18
 476 1680 476 1680 441 1716 c 128,-1,11
 406 1752 406 1752 406 1802.5 c 128,-1,12
EndSplineSet
Validated: 1
EndChar

StartChar: uni1E6B
Encoding: 7787 7787 209
Width: 764
Flags: W
HStem: -40 21G<282 334.222> 990 110<72 282 482 692> 1530 20G<429.778 482> 1680 245<298.097 465.903>
VStem: 262 240<1717.13 1887.87> 282 200<50 990 1100 1460>
LayerCount: 2
Fore
SplineSet
282 -40 m 1,0,-1
 282 990 l 1,1,-1
 25 990 l 1,2,-1
 25 1000 l 1,3,-1
 72 1100 l 1,4,-1
 282 1100 l 1,5,-1
 282 1460 l 1,6,-1
 472 1550 l 1,7,-1
 482 1550 l 1,8,-1
 482 1100 l 1,9,-1
 739 1100 l 1,10,-1
 739 1090 l 1,11,-1
 692 990 l 1,12,-1
 482 990 l 1,13,-1
 482 50 l 1,14,-1
 292 -40 l 1,15,-1
 282 -40 l 1,0,-1
262 1802.5 m 128,-1,17
 262 1853 262 1853 297 1889 c 128,-1,18
 332 1925 332 1925 382 1925 c 128,-1,19
 432 1925 432 1925 467 1889 c 128,-1,20
 502 1853 502 1853 502 1802.5 c 128,-1,21
 502 1752 502 1752 467 1716 c 128,-1,22
 432 1680 432 1680 382 1680 c 128,-1,23
 332 1680 332 1680 297 1716 c 128,-1,16
 262 1752 262 1752 262 1802.5 c 128,-1,17
EndSplineSet
Validated: 1
EndChar

StartChar: uni1E60
Encoding: 7776 7776 210
Width: 1329
Flags: W
HStem: -20 110<501.718 828.056> 786 110<519.423 848.46> 1420 110<527.583 801.056> 1680 245<582.097 749.903>
VStem: 160 200<259.504 460> 250 200<963.815 1339.07> 546 240<1717.13 1887.87> 880 200<1157 1339.56> 969 200<257.525 670.388>
LayerCount: 2
Fore
SplineSet
160 460 m 1,0,-1
 350 550 l 1,1,-1
 360 550 l 9,2,-1
 360 398 l 18,3,4
 360 276 360 276 432 193 c 0,5,6
 521 90 521 90 665 90 c 0,7,8
 808 90 808 90 898 193 c 0,9,10
 969 274 969 274 969 470 c 0,11,12
 969 624 969 624 911 692 c 0,13,14
 831 786 831 786 665 786 c 0,15,16
 471 786 471 786 350 894 c 0,17,18
 250 984 250 984 250 1148 c 0,19,20
 250 1333 250 1333 374 1434 c 0,21,22
 492 1530 492 1530 665 1530 c 152,-1,23
 838 1530 838 1530 956 1434 c 0,24,25
 1080 1333 1080 1333 1080 1157 c 1,26,-1
 890 1067 l 1,27,-1
 880 1067 l 9,28,-1
 880 1195 l 18,29,30
 880 1309 880 1309 815 1365 c 0,31,32
 752 1420 752 1420 665 1420 c 0,33,34
 568 1420 568 1420 509 1359 c 128,-1,35
 450 1298 450 1298 450 1147 c 0,36,37
 450 1013 450 1013 495 963 c 0,38,39
 555 896 555 896 665 896 c 0,40,41
 917 896 917 896 1040 783 c 0,42,43
 1169 664 1169 664 1169 472 c 0,44,45
 1169 268 1169 268 1035 125 c 0,46,47
 898 -20 898 -20 665 -20 c 128,-1,48
 432 -20 432 -20 295 125 c 0,49,50
 160 268 160 268 160 460 c 1,0,-1
546 1802.5 m 128,-1,52
 546 1853 546 1853 581 1889 c 128,-1,53
 616 1925 616 1925 666 1925 c 128,-1,54
 716 1925 716 1925 751 1889 c 128,-1,55
 786 1853 786 1853 786 1802.5 c 128,-1,56
 786 1752 786 1752 751 1716 c 128,-1,57
 716 1680 716 1680 666 1680 c 128,-1,58
 616 1680 616 1680 581 1716 c 128,-1,51
 546 1752 546 1752 546 1802.5 c 128,-1,52
EndSplineSet
Validated: 1
EndChar

StartChar: uni1E61
Encoding: 7777 7777 211
Width: 1070
Flags: W
HStem: -20 110<398.847 672.392> 556 110<383.883 688.756> 1010 110<396.79 632.282> 1285 245<450.097 617.903>
VStem: 120 200<170.44 353> 162 190<695.501 964.129> 414 240<1322.13 1492.87> 679 200<865.209 962.479> 754 196<182.193 494.356>
LayerCount: 2
Fore
SplineSet
120 353 m 1,0,-1
 310 443 l 1,1,-1
 320 443 l 9,2,-1
 320 315 l 18,3,4
 320 203 320 203 385 145 c 0,5,6
 447 90 447 90 535 90 c 0,7,8
 637 90 637 90 694 155 c 0,9,10
 754 222 754 222 754 348 c 0,11,12
 754 463 754 463 690 513 c 0,13,14
 635 556 635 556 534 556 c 0,15,16
 341 556 341 556 246 633 c 0,17,18
 162 701 162 701 162 819 c 0,19,20
 162 958 162 958 289 1049 c 0,21,22
 388 1120 388 1120 535 1120 c 0,23,24
 676 1120 676 1120 780 1032 c 0,25,26
 860 963 860 963 879 872 c 1,27,-1
 689 782 l 1,28,-1
 679 782 l 9,29,-1
 679 859 l 2,30,31
 679 909 679 909 649 948 c 0,32,33
 601 1010 601 1010 512 1010 c 0,34,35
 441 1010 441 1010 396 966 c 0,36,37
 352 921 352 921 352 825 c 0,38,39
 352 724 352 724 406 687 c 0,40,41
 436 666 436 666 534 666 c 24,42,43
 746 666 746 666 852 577 c 0,44,45
 950 495 950 495 950 340 c 0,46,47
 950 210 950 210 835 92 c 0,48,49
 726 -20 726 -20 535 -20 c 0,50,51
 362 -20 362 -20 244 76 c 0,52,53
 120 177 120 177 120 353 c 1,0,-1
414 1407.5 m 128,-1,55
 414 1458 414 1458 449 1494 c 128,-1,56
 484 1530 484 1530 534 1530 c 128,-1,57
 584 1530 584 1530 619 1494 c 128,-1,58
 654 1458 654 1458 654 1407.5 c 128,-1,59
 654 1357 654 1357 619 1321 c 128,-1,60
 584 1285 584 1285 534 1285 c 128,-1,61
 484 1285 484 1285 449 1321 c 128,-1,54
 414 1357 414 1357 414 1407.5 c 128,-1,55
EndSplineSet
Validated: 1
EndChar

StartChar: Wgrave
Encoding: 7808 7808 212
Width: 2220
Flags: W
HStem: -20 110<540.794 869.784 1350.87 1680.16> 1530 20G<347.778 400 1157.78 1210 1967.78 2020>
VStem: 200 200<258.902 1460> 1010 200<231.753 1460> 1820 200<261.363 1460>
CounterMasks: 1 38
LayerCount: 2
Fore
SplineSet
200 1460 m 1,0,-1
 390 1550 l 1,1,-1
 400 1550 l 1,2,-1
 400 410 l 2,3,4
 400 276 400 276 472 193 c 0,5,6
 561 90 561 90 705 90 c 128,-1,7
 849 90 849 90 938 193 c 0,8,9
 1010 276 1010 276 1010 410 c 2,10,-1
 1010 1460 l 1,11,-1
 1200 1550 l 1,12,-1
 1210 1550 l 1,13,-1
 1210 410 l 2,14,15
 1210 276 1210 276 1282 193 c 0,16,17
 1371 90 1371 90 1515 90 c 128,-1,18
 1659 90 1659 90 1748 193 c 0,19,20
 1820 276 1820 276 1820 410 c 2,21,-1
 1820 1460 l 1,22,-1
 2010 1550 l 1,23,-1
 2020 1550 l 1,24,-1
 2020 480 l 2,25,26
 2020 264 2020 264 1885 125 c 0,27,28
 1743 -20 1743 -20 1515 -20 c 0,29,30
 1309 -20 1309 -20 1164 125 c 0,31,32
 1128 161 1128 161 1110 195 c 1,33,34
 1087 160 1087 160 1054 128 c 0,35,36
 903 -20 903 -20 705 -20 c 0,37,38
 481 -20 481 -20 335 125 c 0,39,40
 200 259 200 259 200 480 c 2,41,-1
 200 1460 l 1,0,-1
1051 1966 m 1,42,-1
 1061 1966 l 1,43,-1
 1223 1621 l 1,44,-1
 1106 1566 l 1,45,-1
 1096 1566 l 1,46,-1
 875 1882 l 1,47,-1
 1051 1966 l 1,42,-1
EndSplineSet
Validated: 1
EndChar

StartChar: wgrave
Encoding: 7809 7809 213
Width: 1760
Flags: W
HStem: -20 110<424.306 704.993 1054.92 1336.19> 1120 20G<297.778 350 927.778 980 1557.78 1610>
VStem: 150 200<198.257 1050> 780 200<161.72 1050> 1410 200<199.222 1050>
CounterMasks: 1 38
LayerCount: 2
Fore
SplineSet
150 1050 m 1,0,-1
 340 1140 l 1,1,-1
 350 1140 l 1,2,-1
 350 312 l 2,3,4
 350 197 350 197 412.5 143.5 c 128,-1,5
 475 90 475 90 565 90 c 128,-1,6
 655 90 655 90 717.5 143.5 c 128,-1,7
 780 197 780 197 780 312 c 2,8,-1
 780 1050 l 1,9,-1
 970 1140 l 1,10,-1
 980 1140 l 1,11,-1
 980 312 l 2,12,13
 980 197 980 197 1042.5 143.5 c 128,-1,14
 1105 90 1105 90 1195 90 c 128,-1,15
 1285 90 1285 90 1347.5 143.5 c 128,-1,16
 1410 197 1410 197 1410 312 c 2,17,-1
 1410 1050 l 1,18,-1
 1600 1140 l 1,19,-1
 1610 1140 l 1,20,-1
 1610 380 l 2,21,22
 1610 215 1610 215 1486 93 c 0,23,24
 1370 -20 1370 -20 1195 -20 c 0,25,26
 1036 -20 1036 -20 920 96 c 0,27,28
 898 118 898 118 880 148 c 1,29,30
 862 119 862 119 840 97 c 0,31,32
 715 -20 715 -20 565 -20 c 0,33,34
 392 -20 392 -20 274 93 c 0,35,36
 150 213 150 213 150 380 c 2,37,-1
 150 1050 l 1,0,-1
829 1566 m 1,38,-1
 839 1566 l 1,39,-1
 1001 1221 l 1,40,-1
 884 1166 l 1,41,-1
 874 1166 l 1,42,-1
 653 1482 l 1,43,-1
 829 1566 l 1,38,-1
EndSplineSet
Validated: 1
EndChar

StartChar: Wacute
Encoding: 7810 7810 214
Width: 2220
Flags: W
HStem: -20 110<540.794 869.784 1350.87 1680.16> 1530 20G<347.778 400 1157.78 1210 1967.78 2020>
VStem: 200 200<258.902 1460> 1010 200<231.753 1460> 1820 200<261.363 1460>
CounterMasks: 1 38
LayerCount: 2
Fore
SplineSet
200 1460 m 1,0,-1
 390 1550 l 1,1,-1
 400 1550 l 1,2,-1
 400 410 l 2,3,4
 400 276 400 276 472 193 c 0,5,6
 561 90 561 90 705 90 c 128,-1,7
 849 90 849 90 938 193 c 0,8,9
 1010 276 1010 276 1010 410 c 2,10,-1
 1010 1460 l 1,11,-1
 1200 1550 l 1,12,-1
 1210 1550 l 1,13,-1
 1210 410 l 2,14,15
 1210 276 1210 276 1282 193 c 0,16,17
 1371 90 1371 90 1515 90 c 128,-1,18
 1659 90 1659 90 1748 193 c 0,19,20
 1820 276 1820 276 1820 410 c 2,21,-1
 1820 1460 l 1,22,-1
 2010 1550 l 1,23,-1
 2020 1550 l 1,24,-1
 2020 480 l 2,25,26
 2020 264 2020 264 1885 125 c 0,27,28
 1743 -20 1743 -20 1515 -20 c 0,29,30
 1309 -20 1309 -20 1164 125 c 0,31,32
 1128 161 1128 161 1110 195 c 1,33,34
 1087 160 1087 160 1054 128 c 0,35,36
 903 -20 903 -20 705 -20 c 0,37,38
 481 -20 481 -20 335 125 c 0,39,40
 200 259 200 259 200 480 c 2,41,-1
 200 1460 l 1,0,-1
1153 1966 m 1,42,-1
 1163 1966 l 1,43,-1
 1339 1882 l 1,44,-1
 1118 1566 l 1,45,-1
 1108 1566 l 1,46,-1
 991 1621 l 1,47,-1
 1153 1966 l 1,42,-1
EndSplineSet
Validated: 1
EndChar

StartChar: wacute
Encoding: 7811 7811 215
Width: 1760
Flags: W
HStem: -20 110<424.306 704.993 1054.92 1336.19> 1120 20G<297.778 350 927.778 980 1557.78 1610>
VStem: 150 200<198.257 1050> 780 200<161.72 1050> 1410 200<199.222 1050>
CounterMasks: 1 38
LayerCount: 2
Fore
SplineSet
150 1050 m 1,0,-1
 340 1140 l 1,1,-1
 350 1140 l 1,2,-1
 350 312 l 2,3,4
 350 197 350 197 412.5 143.5 c 128,-1,5
 475 90 475 90 565 90 c 128,-1,6
 655 90 655 90 717.5 143.5 c 128,-1,7
 780 197 780 197 780 312 c 2,8,-1
 780 1050 l 1,9,-1
 970 1140 l 1,10,-1
 980 1140 l 1,11,-1
 980 312 l 2,12,13
 980 197 980 197 1042.5 143.5 c 128,-1,14
 1105 90 1105 90 1195 90 c 128,-1,15
 1285 90 1285 90 1347.5 143.5 c 128,-1,16
 1410 197 1410 197 1410 312 c 2,17,-1
 1410 1050 l 1,18,-1
 1600 1140 l 1,19,-1
 1610 1140 l 1,20,-1
 1610 380 l 2,21,22
 1610 215 1610 215 1486 93 c 0,23,24
 1370 -20 1370 -20 1195 -20 c 0,25,26
 1036 -20 1036 -20 920 96 c 0,27,28
 898 118 898 118 880 148 c 1,29,30
 862 119 862 119 840 97 c 0,31,32
 715 -20 715 -20 565 -20 c 0,33,34
 392 -20 392 -20 274 93 c 0,35,36
 150 213 150 213 150 380 c 2,37,-1
 150 1050 l 1,0,-1
917 1566 m 1,38,-1
 927 1566 l 1,39,-1
 1103 1482 l 1,40,-1
 882 1166 l 1,41,-1
 872 1166 l 1,42,-1
 755 1221 l 1,43,-1
 917 1566 l 1,38,-1
EndSplineSet
Validated: 1
EndChar

StartChar: Wdieresis
Encoding: 7812 7812 216
Width: 2220
Flags: W
HStem: -20 110<540.794 869.784 1350.87 1680.16> 1530 20G<347.778 400 1157.78 1210 1967.78 2020> 1680 245<864.097 1031.9 1164.1 1331.9>
VStem: 200 200<258.902 1460> 828 240<1717.13 1887.87> 1010 200<231.753 1460> 1128 240<1717.13 1887.87> 1820 200<261.363 1460>
LayerCount: 2
Fore
SplineSet
200 1460 m 1,0,-1
 390 1550 l 1,1,-1
 400 1550 l 1,2,-1
 400 410 l 2,3,4
 400 276 400 276 472 193 c 0,5,6
 561 90 561 90 705 90 c 128,-1,7
 849 90 849 90 938 193 c 0,8,9
 1010 276 1010 276 1010 410 c 2,10,-1
 1010 1460 l 1,11,-1
 1200 1550 l 1,12,-1
 1210 1550 l 1,13,-1
 1210 410 l 2,14,15
 1210 276 1210 276 1282 193 c 0,16,17
 1371 90 1371 90 1515 90 c 128,-1,18
 1659 90 1659 90 1748 193 c 0,19,20
 1820 276 1820 276 1820 410 c 2,21,-1
 1820 1460 l 1,22,-1
 2010 1550 l 1,23,-1
 2020 1550 l 1,24,-1
 2020 480 l 2,25,26
 2020 264 2020 264 1885 125 c 0,27,28
 1743 -20 1743 -20 1515 -20 c 0,29,30
 1309 -20 1309 -20 1164 125 c 0,31,32
 1128 161 1128 161 1110 195 c 1,33,34
 1087 160 1087 160 1054 128 c 0,35,36
 903 -20 903 -20 705 -20 c 0,37,38
 481 -20 481 -20 335 125 c 0,39,40
 200 259 200 259 200 480 c 2,41,-1
 200 1460 l 1,0,-1
1128 1802.5 m 128,-1,43
 1128 1853 1128 1853 1163 1889 c 128,-1,44
 1198 1925 1198 1925 1248 1925 c 128,-1,45
 1298 1925 1298 1925 1333 1889 c 128,-1,46
 1368 1853 1368 1853 1368 1802.5 c 128,-1,47
 1368 1752 1368 1752 1333 1716 c 128,-1,48
 1298 1680 1298 1680 1248 1680 c 128,-1,49
 1198 1680 1198 1680 1163 1716 c 128,-1,42
 1128 1752 1128 1752 1128 1802.5 c 128,-1,43
828 1802.5 m 128,-1,51
 828 1853 828 1853 863 1889 c 128,-1,52
 898 1925 898 1925 948 1925 c 128,-1,53
 998 1925 998 1925 1033 1889 c 128,-1,54
 1068 1853 1068 1853 1068 1802.5 c 128,-1,55
 1068 1752 1068 1752 1033 1716 c 128,-1,56
 998 1680 998 1680 948 1680 c 128,-1,57
 898 1680 898 1680 863 1716 c 128,-1,50
 828 1752 828 1752 828 1802.5 c 128,-1,51
EndSplineSet
Validated: 1
EndChar

StartChar: wdieresis
Encoding: 7813 7813 217
Width: 1760
Flags: W
HStem: -20 110<424.306 704.993 1054.92 1336.19> 1120 20G<297.778 350 927.778 980 1557.78 1610> 1285 245<638.097 805.903 938.097 1105.9>
VStem: 150 200<198.257 1050> 602 240<1322.13 1492.87> 780 200<161.72 1050> 902 240<1322.13 1492.87> 1410 200<199.222 1050>
LayerCount: 2
Fore
SplineSet
150 1050 m 1,0,-1
 340 1140 l 1,1,-1
 350 1140 l 1,2,-1
 350 312 l 2,3,4
 350 197 350 197 412.5 143.5 c 128,-1,5
 475 90 475 90 565 90 c 128,-1,6
 655 90 655 90 717.5 143.5 c 128,-1,7
 780 197 780 197 780 312 c 2,8,-1
 780 1050 l 1,9,-1
 970 1140 l 1,10,-1
 980 1140 l 1,11,-1
 980 312 l 2,12,13
 980 197 980 197 1042.5 143.5 c 128,-1,14
 1105 90 1105 90 1195 90 c 128,-1,15
 1285 90 1285 90 1347.5 143.5 c 128,-1,16
 1410 197 1410 197 1410 312 c 2,17,-1
 1410 1050 l 1,18,-1
 1600 1140 l 1,19,-1
 1610 1140 l 1,20,-1
 1610 380 l 2,21,22
 1610 215 1610 215 1486 93 c 0,23,24
 1370 -20 1370 -20 1195 -20 c 0,25,26
 1036 -20 1036 -20 920 96 c 0,27,28
 898 118 898 118 880 148 c 1,29,30
 862 119 862 119 840 97 c 0,31,32
 715 -20 715 -20 565 -20 c 0,33,34
 392 -20 392 -20 274 93 c 0,35,36
 150 213 150 213 150 380 c 2,37,-1
 150 1050 l 1,0,-1
902 1407.5 m 128,-1,39
 902 1458 902 1458 937 1494 c 128,-1,40
 972 1530 972 1530 1022 1530 c 128,-1,41
 1072 1530 1072 1530 1107 1494 c 128,-1,42
 1142 1458 1142 1458 1142 1407.5 c 128,-1,43
 1142 1357 1142 1357 1107 1321 c 128,-1,44
 1072 1285 1072 1285 1022 1285 c 128,-1,45
 972 1285 972 1285 937 1321 c 128,-1,38
 902 1357 902 1357 902 1407.5 c 128,-1,39
602 1407.5 m 128,-1,47
 602 1458 602 1458 637 1494 c 128,-1,48
 672 1530 672 1530 722 1530 c 128,-1,49
 772 1530 772 1530 807 1494 c 128,-1,50
 842 1458 842 1458 842 1407.5 c 128,-1,51
 842 1357 842 1357 807 1321 c 128,-1,52
 772 1285 772 1285 722 1285 c 128,-1,53
 672 1285 672 1285 637 1321 c 128,-1,46
 602 1357 602 1357 602 1407.5 c 128,-1,47
EndSplineSet
Validated: 1
EndChar

StartChar: Ygrave
Encoding: 7922 7922 218
Width: 1310
Flags: W
HStem: -40 21G<555 607.222> 484 110<493.034 555 755 822.949> 1530 20G<297.778 350 1107.78 1160>
VStem: 150 200<754.41 1460> 555 200<50 491.828> 960 200<757.363 1460>
CounterMasks: 1 1c
LayerCount: 2
Fore
SplineSet
555 -40 m 1,0,-1
 555 484 l 1,1,2
 398 510 398 510 285 621 c 0,3,4
 150 754 150 754 150 976 c 2,5,-1
 150 1460 l 1,6,-1
 340 1550 l 1,7,-1
 350 1550 l 1,8,-1
 350 914 l 2,9,10
 350 780 350 780 422 697 c 0,11,12
 511 594 511 594 655 594 c 0,13,14
 807 594 807 594 888 697 c 0,15,16
 960 789 960 789 960 914 c 2,17,-1
 960 1460 l 1,18,-1
 1150 1550 l 1,19,-1
 1160 1550 l 1,20,-1
 1160 976 l 2,21,22
 1160 760 1160 760 1025 621 c 0,23,24
 916 509 916 509 755 484 c 1,25,-1
 755 50 l 1,26,-1
 565 -40 l 1,27,-1
 555 -40 l 1,0,-1
596 1966 m 1,28,-1
 606 1966 l 1,29,-1
 768 1621 l 1,30,-1
 651 1566 l 1,31,-1
 641 1566 l 1,32,-1
 420 1882 l 1,33,-1
 596 1966 l 1,28,-1
EndSplineSet
Validated: 1
EndChar

StartChar: ygrave
Encoding: 7923 7923 219
Width: 1180
Flags: W
HStem: -430 110<305 705.95> -20 110<424.799 705.589> 1120 20G<297.778 350 927.778 980>
VStem: 150 200<197.292 1050> 780 200<-210.778 65 161.72 1050>
LayerCount: 2
Fore
SplineSet
150 380 m 2,0,-1
 150 1050 l 1,1,-1
 340 1140 l 1,2,-1
 350 1140 l 1,3,-1
 350 312 l 2,4,5
 350 197 350 197 412.5 143.5 c 128,-1,6
 475 90 475 90 565 90 c 128,-1,7
 655 90 655 90 717.5 143.5 c 128,-1,8
 780 197 780 197 780 312 c 2,9,-1
 780 1050 l 1,10,-1
 970 1140 l 1,11,-1
 980 1140 l 1,12,-1
 980 -30 l 2,13,14
 980 -195 980 -195 856 -317 c 0,15,16
 740 -430 740 -430 565 -430 c 2,17,-1
 257 -430 l 1,18,-1
 257 -420 l 1,19,-1
 305 -320 l 1,20,-1
 565 -320 l 2,21,22
 655 -320 655 -320 718 -266 c 0,23,24
 780 -213 780 -213 780 -98 c 2,25,-1
 780 65 l 1,26,27
 706 -20 706 -20 565 -20 c 0,28,29
 394 -20 394 -20 274 93 c 0,30,31
 150 211 150 211 150 380 c 2,0,-1
473 1566 m 1,32,-1
 483 1566 l 1,33,-1
 645 1221 l 1,34,-1
 528 1166 l 1,35,-1
 518 1166 l 1,36,-1
 297 1482 l 1,37,-1
 473 1566 l 1,32,-1
EndSplineSet
Validated: 1
EndChar

StartChar: Agrave
Encoding: 192 192 220
Width: 1410
Flags: W
HStem: -40 21G<200 252.222 1010 1062.22> 700 110<400 1010> 1420 110<539.842 868.98>
VStem: 200 200<50 700 810 1248.64> 1010 200<50 700 810 1251.1>
LayerCount: 2
Fore
SplineSet
200 -40 m 1,0,-1
 200 1030 l 2,1,2
 200 1246 200 1246 335 1385 c 0,3,4
 477 1530 477 1530 705 1530 c 0,5,6
 929 1530 929 1530 1075 1385 c 0,7,8
 1210 1251 1210 1251 1210 1030 c 2,9,-1
 1210 50 l 1,10,-1
 1020 -40 l 1,11,-1
 1010 -40 l 1,12,-1
 1010 700 l 1,13,-1
 400 700 l 1,14,-1
 400 50 l 1,15,-1
 210 -40 l 1,16,-1
 200 -40 l 1,0,-1
400 810 m 1,17,-1
 1010 810 l 1,18,-1
 1010 1100 l 2,19,20
 1010 1234 1010 1234 938 1317 c 0,21,22
 848 1420 848 1420 705 1420 c 0,23,24
 561 1420 561 1420 472 1317 c 0,25,26
 400 1233 400 1233 400 1100 c 2,27,-1
 400 810 l 1,17,-1
596 1966 m 1,28,-1
 606 1966 l 1,29,-1
 768 1621 l 1,30,-1
 651 1566 l 1,31,-1
 641 1566 l 1,32,-1
 420 1882 l 1,33,-1
 596 1966 l 1,28,-1
EndSplineSet
Validated: 1
EndChar

StartChar: Aacute
Encoding: 193 193 221
Width: 1410
Flags: W
HStem: -40 21G<200 252.222 1010 1062.22> 700 110<400 1010> 1420 110<539.842 868.98>
VStem: 200 200<50 700 810 1248.64> 1010 200<50 700 810 1251.1>
LayerCount: 2
Fore
SplineSet
200 -40 m 1,0,-1
 200 1030 l 2,1,2
 200 1246 200 1246 335 1385 c 0,3,4
 477 1530 477 1530 705 1530 c 0,5,6
 929 1530 929 1530 1075 1385 c 0,7,8
 1210 1251 1210 1251 1210 1030 c 2,9,-1
 1210 50 l 1,10,-1
 1020 -40 l 1,11,-1
 1010 -40 l 1,12,-1
 1010 700 l 1,13,-1
 400 700 l 1,14,-1
 400 50 l 1,15,-1
 210 -40 l 1,16,-1
 200 -40 l 1,0,-1
400 810 m 1,17,-1
 1010 810 l 1,18,-1
 1010 1100 l 2,19,20
 1010 1234 1010 1234 938 1317 c 0,21,22
 848 1420 848 1420 705 1420 c 0,23,24
 561 1420 561 1420 472 1317 c 0,25,26
 400 1233 400 1233 400 1100 c 2,27,-1
 400 810 l 1,17,-1
817 1966 m 1,28,-1
 827 1966 l 1,29,-1
 1003 1882 l 1,30,-1
 782 1566 l 1,31,-1
 772 1566 l 1,32,-1
 655 1621 l 1,33,-1
 817 1966 l 1,28,-1
EndSplineSet
Validated: 1
EndChar

StartChar: Acircumflex
Encoding: 194 194 222
Width: 1410
Flags: W
HStem: -40 21G<200 252.222 1010 1062.22> 700 110<400 1010> 1420 110<539.842 868.98>
VStem: 200 200<50 700 810 1248.64> 1010 200<50 700 810 1251.1>
LayerCount: 2
Fore
SplineSet
200 -40 m 1,0,-1
 200 1030 l 2,1,2
 200 1246 200 1246 335 1385 c 0,3,4
 477 1530 477 1530 705 1530 c 0,5,6
 929 1530 929 1530 1075 1385 c 0,7,8
 1210 1251 1210 1251 1210 1030 c 2,9,-1
 1210 50 l 1,10,-1
 1020 -40 l 1,11,-1
 1010 -40 l 1,12,-1
 1010 700 l 1,13,-1
 400 700 l 1,14,-1
 400 50 l 1,15,-1
 210 -40 l 1,16,-1
 200 -40 l 1,0,-1
400 810 m 1,17,-1
 1010 810 l 1,18,-1
 1010 1100 l 2,19,20
 1010 1234 1010 1234 938 1317 c 0,21,22
 848 1420 848 1420 705 1420 c 0,23,24
 561 1420 561 1420 472 1317 c 0,25,26
 400 1233 400 1233 400 1100 c 2,27,-1
 400 810 l 1,17,-1
434 1621 m 1,28,-1
 587 1882 l 1,29,-1
 763 1966 l 1,30,-1
 773 1966 l 1,31,-1
 986 1621 l 1,32,-1
 870 1566 l 1,33,-1
 860 1566 l 1,34,-1
 710 1774 l 1,35,-1
 562 1566 l 1,36,-1
 552 1566 l 1,37,-1
 434 1621 l 1,28,-1
EndSplineSet
Validated: 1
EndChar

StartChar: Atilde
Encoding: 195 195 223
Width: 1410
Flags: W
HStem: -40 21G<200 252.222 1010 1062.22> 700 110<400 1010> 1420 110<539.842 868.98> 1638 167<753.775 855.272> 1757 167<589.728 691.225>
VStem: 200 200<50 700 810 1248.64> 471 116<1685 1756.35> 858 116<1805.65 1877> 1010 200<50 700 810 1251.1>
LayerCount: 2
Fore
SplineSet
200 -40 m 1,0,-1
 200 1030 l 2,1,2
 200 1246 200 1246 335 1385 c 0,3,4
 477 1530 477 1530 705 1530 c 0,5,6
 929 1530 929 1530 1075 1385 c 0,7,8
 1210 1251 1210 1251 1210 1030 c 2,9,-1
 1210 50 l 1,10,-1
 1020 -40 l 1,11,-1
 1010 -40 l 1,12,-1
 1010 700 l 1,13,-1
 400 700 l 1,14,-1
 400 50 l 1,15,-1
 210 -40 l 1,16,-1
 200 -40 l 1,0,-1
400 810 m 1,17,-1
 1010 810 l 1,18,-1
 1010 1100 l 2,19,20
 1010 1234 1010 1234 938 1317 c 0,21,22
 848 1420 848 1420 705 1420 c 0,23,24
 561 1420 561 1420 472 1317 c 0,25,26
 400 1233 400 1233 400 1100 c 2,27,-1
 400 810 l 1,17,-1
471 1638 m 1,28,29
 471 1924 471 1924 612 1924 c 0,30,31
 676 1924 676 1924 749 1854 c 0,32,33
 800 1805 800 1805 824 1805 c 0,34,35
 858 1805 858 1805 858 1877 c 1,36,-1
 968 1924 l 1,37,-1
 974 1924 l 1,38,39
 974 1638 974 1638 833 1638 c 0,40,41
 769 1638 769 1638 696 1708 c 0,42,43
 645 1757 645 1757 621 1757 c 0,44,45
 587 1757 587 1757 587 1685 c 1,46,-1
 477 1638 l 1,47,-1
 471 1638 l 1,28,29
EndSplineSet
Validated: 1
EndChar

StartChar: Adieresis
Encoding: 196 196 224
Width: 1410
Flags: W
HStem: -40 21G<200 252.222 1010 1062.22> 700 110<400 1010> 1420 110<539.842 868.98> 1680 245<478.097 645.903 778.097 945.903>
VStem: 200 200<50 700 810 1248.64> 442 240<1717.13 1887.87> 742 240<1717.13 1887.87> 1010 200<50 700 810 1251.1>
LayerCount: 2
Fore
SplineSet
200 -40 m 1,0,-1
 200 1030 l 2,1,2
 200 1246 200 1246 335 1385 c 0,3,4
 477 1530 477 1530 705 1530 c 0,5,6
 929 1530 929 1530 1075 1385 c 0,7,8
 1210 1251 1210 1251 1210 1030 c 2,9,-1
 1210 50 l 1,10,-1
 1020 -40 l 1,11,-1
 1010 -40 l 1,12,-1
 1010 700 l 1,13,-1
 400 700 l 1,14,-1
 400 50 l 1,15,-1
 210 -40 l 1,16,-1
 200 -40 l 1,0,-1
400 810 m 1,17,-1
 1010 810 l 1,18,-1
 1010 1100 l 2,19,20
 1010 1234 1010 1234 938 1317 c 0,21,22
 848 1420 848 1420 705 1420 c 0,23,24
 561 1420 561 1420 472 1317 c 0,25,26
 400 1233 400 1233 400 1100 c 2,27,-1
 400 810 l 1,17,-1
742 1802.5 m 128,-1,29
 742 1853 742 1853 777 1889 c 128,-1,30
 812 1925 812 1925 862 1925 c 128,-1,31
 912 1925 912 1925 947 1889 c 128,-1,32
 982 1853 982 1853 982 1802.5 c 128,-1,33
 982 1752 982 1752 947 1716 c 128,-1,34
 912 1680 912 1680 862 1680 c 128,-1,35
 812 1680 812 1680 777 1716 c 128,-1,28
 742 1752 742 1752 742 1802.5 c 128,-1,29
442 1802.5 m 128,-1,37
 442 1853 442 1853 477 1889 c 128,-1,38
 512 1925 512 1925 562 1925 c 128,-1,39
 612 1925 612 1925 647 1889 c 128,-1,40
 682 1853 682 1853 682 1802.5 c 128,-1,41
 682 1752 682 1752 647 1716 c 128,-1,42
 612 1680 612 1680 562 1680 c 128,-1,43
 512 1680 512 1680 477 1716 c 128,-1,36
 442 1752 442 1752 442 1802.5 c 128,-1,37
EndSplineSet
Validated: 1
EndChar

StartChar: Aring
Encoding: 197 197 225
Width: 1410
Flags: W
HStem: -40 21G<200 252.222 1010 1062.22> 700 110<400 1010> 1420 110<539.842 868.98> 1588 104<645.161 763.263> 1862 104<645.215 762.294>
VStem: 200 200<50 700 810 1248.64> 508 123<1704.96 1848.01> 777 125<1705.96 1849.51> 1010 200<50 700 810 1251.1>
LayerCount: 2
Fore
SplineSet
200 -40 m 1,0,-1
 200 1030 l 2,1,2
 200 1246 200 1246 335 1385 c 0,3,4
 477 1530 477 1530 705 1530 c 0,5,6
 929 1530 929 1530 1075 1385 c 0,7,8
 1210 1251 1210 1251 1210 1030 c 2,9,-1
 1210 50 l 1,10,-1
 1020 -40 l 1,11,-1
 1010 -40 l 1,12,-1
 1010 700 l 1,13,-1
 400 700 l 1,14,-1
 400 50 l 1,15,-1
 210 -40 l 1,16,-1
 200 -40 l 1,0,-1
400 810 m 1,17,-1
 1010 810 l 1,18,-1
 1010 1100 l 2,19,20
 1010 1234 1010 1234 938 1317 c 0,21,22
 848 1420 848 1420 705 1420 c 0,23,24
 561 1420 561 1420 472 1317 c 0,25,26
 400 1233 400 1233 400 1100 c 2,27,-1
 400 810 l 1,17,-1
705 1588 m 128,-1,29
 625 1588 625 1588 570 1637 c 0,30,31
 508 1692 508 1692 508 1777 c 0,32,33
 508 1860 508 1860 570 1917 c 0,34,35
 623 1966 623 1966 705 1966 c 0,36,37
 785 1966 785 1966 840 1917 c 0,38,39
 902 1862 902 1862 902 1777 c 128,-1,40
 902 1692 902 1692 840 1637 c 0,41,28
 785 1588 785 1588 705 1588 c 128,-1,29
705 1862 m 0,42,43
 671 1862 671 1862 651 1841 c 128,-1,44
 631 1820 631 1820 631 1777 c 0,45,46
 631 1731 631 1731 652 1712 c 0,47,48
 674 1692 674 1692 704 1692 c 0,49,50
 735 1692 735 1692 757 1714 c 0,51,52
 777 1733 777 1733 777 1777 c 0,53,54
 777 1822 777 1822 755 1843 c 0,55,56
 735 1862 735 1862 705 1862 c 0,42,43
EndSplineSet
Validated: 1
EndChar

StartChar: AE
Encoding: 198 198 226
Width: 1967
Flags: W
HStem: -40 21G<200 252.222> 0 110<1210 1870> 700 110<400 1010 1210 1703> 1400 110<1210 1703> 1420 110<539.842 869.806>
VStem: 200 200<50 700 810 1248.64> 1010 200<110 700 810 1278.25>
LayerCount: 2
Fore
SplineSet
200 -40 m 1,0,-1
 200 1030 l 2,1,2
 200 1246 200 1246 335 1385 c 0,3,4
 477 1530 477 1530 705 1530 c 0,5,6
 882 1530 882 1530 1010 1440 c 1,7,-1
 1010 1460 l 1,8,-1
 1116 1510 l 1,9,-1
 1750 1510 l 1,10,-1
 1750 1500 l 1,11,-1
 1703 1400 l 1,12,-1
 1210 1400 l 1,13,-1
 1210 810 l 1,14,-1
 1750 810 l 1,15,-1
 1750 800 l 1,16,-1
 1703 700 l 1,17,-1
 1210 700 l 1,18,-1
 1210 110 l 1,19,-1
 1917 110 l 1,20,-1
 1917 100 l 1,21,-1
 1870 0 l 1,22,-1
 1010 0 l 1,23,-1
 1010 700 l 1,24,-1
 400 700 l 1,25,-1
 400 50 l 1,26,-1
 210 -40 l 1,27,-1
 200 -40 l 1,0,-1
400 810 m 1,28,-1
 1010 810 l 1,29,-1
 1010 1100 l 2,30,31
 1010 1234 1010 1234 938 1317 c 0,32,33
 848 1420 848 1420 705 1420 c 0,34,35
 561 1420 561 1420 472 1317 c 0,36,37
 400 1233 400 1233 400 1100 c 2,38,-1
 400 810 l 1,28,-1
EndSplineSet
Validated: 1
EndChar

StartChar: Amacron
Encoding: 256 256 227
Width: 1410
Flags: W
HStem: -40 21G<200 252.222 1010 1062.22> 700 110<400 1010> 1420 110<539.842 868.98> 1638 182<548 925>
VStem: 200 200<50 700 810 1248.64> 1010 200<50 700 810 1251.1>
LayerCount: 2
Fore
SplineSet
200 -40 m 1,0,-1
 200 1030 l 2,1,2
 200 1246 200 1246 335 1385 c 0,3,4
 477 1530 477 1530 705 1530 c 0,5,6
 929 1530 929 1530 1075 1385 c 0,7,8
 1210 1251 1210 1251 1210 1030 c 2,9,-1
 1210 50 l 1,10,-1
 1020 -40 l 1,11,-1
 1010 -40 l 1,12,-1
 1010 700 l 1,13,-1
 400 700 l 1,14,-1
 400 50 l 1,15,-1
 210 -40 l 1,16,-1
 200 -40 l 1,0,-1
400 810 m 1,17,-1
 1010 810 l 1,18,-1
 1010 1100 l 2,19,20
 1010 1234 1010 1234 938 1317 c 0,21,22
 848 1420 848 1420 705 1420 c 0,23,24
 561 1420 561 1420 472 1317 c 0,25,26
 400 1233 400 1233 400 1100 c 2,27,-1
 400 810 l 1,17,-1
467 1638 m 1,28,-1
 467 1648 l 1,29,-1
 548 1820 l 1,30,-1
 1006 1820 l 1,31,-1
 1006 1810 l 1,32,-1
 925 1638 l 1,33,-1
 467 1638 l 1,28,-1
EndSplineSet
Validated: 1
EndChar

StartChar: Abreve
Encoding: 258 258 228
Width: 1410
Flags: W
HStem: -40 21G<200 252.222 1010 1062.22> 700 110<400 1010> 1420 110<539.842 868.98> 1638 175<608.656 818.399>
VStem: 200 200<50 700 810 1248.64> 1010 200<50 700 810 1251.1>
LayerCount: 2
Fore
SplineSet
200 -40 m 1,0,-1
 200 1030 l 2,1,2
 200 1246 200 1246 335 1385 c 0,3,4
 477 1530 477 1530 705 1530 c 0,5,6
 929 1530 929 1530 1075 1385 c 0,7,8
 1210 1251 1210 1251 1210 1030 c 2,9,-1
 1210 50 l 1,10,-1
 1020 -40 l 1,11,-1
 1010 -40 l 1,12,-1
 1010 700 l 1,13,-1
 400 700 l 1,14,-1
 400 50 l 1,15,-1
 210 -40 l 1,16,-1
 200 -40 l 1,0,-1
400 810 m 1,17,-1
 1010 810 l 1,18,-1
 1010 1100 l 2,19,20
 1010 1234 1010 1234 938 1317 c 0,21,22
 848 1420 848 1420 705 1420 c 0,23,24
 561 1420 561 1420 472 1317 c 0,25,26
 400 1233 400 1233 400 1100 c 2,27,-1
 400 810 l 1,17,-1
468 1788 m 1,28,-1
 468 1798 l 1,29,-1
 542 1947 l 1,30,31
 614 1813 614 1813 714 1813 c 128,-1,32
 814 1813 814 1813 886 1947 c 1,33,-1
 962 1798 l 1,34,-1
 962 1788 l 1,35,36
 860 1638 860 1638 712 1638 c 0,37,38
 558 1638 558 1638 468 1788 c 1,28,-1
EndSplineSet
Validated: 1
EndChar

StartChar: Aogonek
Encoding: 260 260 229
Width: 1410
Flags: W
HStem: -450 21G<875.5 982.222> -40 21G<200 252.222> 700 110<400 1010> 1420 110<539.842 868.98>
VStem: 200 200<50 700 810 1248.64> 821 175<-280.616 -54.0942> 1010 200<51.25 700 810 1251.1>
LayerCount: 2
Fore
SplineSet
400 810 m 1,0,-1
 1010 810 l 1,1,-1
 1010 1100 l 2,2,3
 1010 1234 1010 1234 938 1317 c 0,4,5
 848 1420 848 1420 705 1420 c 0,6,7
 561 1420 561 1420 472 1317 c 0,8,9
 400 1233 400 1233 400 1100 c 2,10,-1
 400 810 l 1,0,-1
200 -40 m 1,11,-1
 200 1030 l 2,12,13
 200 1246 200 1246 335 1385 c 0,14,15
 477 1530 477 1530 705 1530 c 0,16,17
 929 1530 929 1530 1075 1385 c 0,18,19
 1210 1251 1210 1251 1210 1030 c 2,20,-1
 1210 50 l 1,21,-1
 1031 -35 l 1,22,23
 996 -95 996 -95 996 -152 c 0,24,25
 996 -273 996 -273 1130 -360 c 1,26,-1
 940 -450 l 1,27,-1
 930 -450 l 1,28,29
 821 -343 821 -343 821 -206 c 0,30,31
 821 -38 821 -38 1010 82 c 1,32,-1
 1010 700 l 1,33,-1
 400 700 l 1,34,-1
 400 50 l 1,35,-1
 210 -40 l 1,36,-1
 200 -40 l 1,11,-1
EndSplineSet
Validated: 1
EndChar

StartChar: Ccedilla
Encoding: 199 199 230
Width: 1410
Flags: W
HStem: -450 21G<687.778 794.5> 1420 110<539.842 869.02>
VStem: 200 200<260.379 1249.13> 674 175<-280.616 -54.7163> 1010 200<260.871 460 1050 1253.91>
LayerCount: 2
Fore
SplineSet
1210 550 m 1,0,-1
 1210 480 l 2,1,2
 1210 263 1210 263 1075 125 c 0,3,4
 956 3 956 3 776 -16 c 1,5,6
 849 -102 849 -102 849 -206 c 0,7,8
 849 -343 849 -343 740 -450 c 1,9,-1
 730 -450 l 1,10,-1
 540 -360 l 1,11,12
 674 -273 674 -273 674 -152 c 0,13,14
 674 -87 674 -87 627 -15 c 1,15,16
 452 6 452 6 335 125 c 0,17,18
 200 262 200 262 200 480 c 2,19,-1
 200 1030 l 2,20,21
 200 1247 200 1247 335 1385 c 0,22,23
 477 1530 477 1530 705 1530 c 0,24,25
 941 1530 941 1530 1075.5 1385 c 128,-1,26
 1210 1240 1210 1240 1210 1050 c 1,27,-1
 1020 960 l 1,28,-1
 1010 960 l 1,29,-1
 1010 1100 l 2,30,31
 1010 1234 1010 1234 938 1317 c 0,32,33
 849 1420 849 1420 705 1420 c 128,-1,34
 561 1420 561 1420 472 1317 c 0,35,36
 400 1234 400 1234 400 1100 c 2,37,-1
 400 410 l 2,38,39
 400 276 400 276 472 193 c 0,40,41
 561 90 561 90 705 90 c 128,-1,42
 849 90 849 90 938 193 c 0,43,44
 1010 276 1010 276 1010 460 c 1,45,-1
 1200 550 l 1,46,-1
 1210 550 l 1,0,-1
EndSplineSet
Validated: 1
EndChar

StartChar: Cacute
Encoding: 262 262 231
Width: 1410
Flags: W
HStem: -20 110<539.842 870.158> 1420 110<539.842 869.02>
VStem: 200 200<260.871 1249.13> 1010 200<260.871 460 1050 1253.91>
LayerCount: 2
Fore
SplineSet
1210 550 m 1,0,-1
 1210 480 l 2,1,2
 1210 263 1210 263 1075 125 c 0,3,4
 933 -20 933 -20 705 -20 c 128,-1,5
 477 -20 477 -20 335 125 c 0,6,7
 200 263 200 263 200 480 c 2,8,-1
 200 1030 l 2,9,10
 200 1247 200 1247 335 1385 c 0,11,12
 477 1530 477 1530 705 1530 c 0,13,14
 941 1530 941 1530 1075.5 1385 c 128,-1,15
 1210 1240 1210 1240 1210 1050 c 1,16,-1
 1020 960 l 1,17,-1
 1010 960 l 1,18,-1
 1010 1100 l 18,19,20
 1010 1234 1010 1234 938 1317 c 0,21,22
 849 1420 849 1420 705 1420 c 128,-1,23
 561 1420 561 1420 472 1317 c 0,24,25
 400 1234 400 1234 400 1100 c 2,26,-1
 400 410 l 2,27,28
 400 276 400 276 472 193 c 0,29,30
 561 90 561 90 705 90 c 128,-1,31
 849 90 849 90 938 193 c 0,32,33
 1010 276 1010 276 1010 460 c 1,34,-1
 1200 550 l 1,35,-1
 1210 550 l 1,0,-1
817 1966 m 1,36,-1
 827 1966 l 1,37,-1
 1003 1882 l 1,38,-1
 782 1566 l 1,39,-1
 772 1566 l 1,40,-1
 655 1621 l 1,41,-1
 817 1966 l 1,36,-1
EndSplineSet
Validated: 1
EndChar

StartChar: Ccircumflex
Encoding: 264 264 232
Width: 1410
Flags: W
HStem: -20 110<539.842 870.158> 1420 110<539.842 869.02>
VStem: 200 200<260.871 1249.13> 1010 200<260.871 460 1050 1253.91>
LayerCount: 2
Fore
SplineSet
1210 550 m 1,0,-1
 1210 480 l 2,1,2
 1210 263 1210 263 1075 125 c 0,3,4
 933 -20 933 -20 705 -20 c 128,-1,5
 477 -20 477 -20 335 125 c 0,6,7
 200 263 200 263 200 480 c 2,8,-1
 200 1030 l 2,9,10
 200 1247 200 1247 335 1385 c 0,11,12
 477 1530 477 1530 705 1530 c 0,13,14
 941 1530 941 1530 1075.5 1385 c 128,-1,15
 1210 1240 1210 1240 1210 1050 c 1,16,-1
 1020 960 l 1,17,-1
 1010 960 l 1,18,-1
 1010 1100 l 18,19,20
 1010 1234 1010 1234 938 1317 c 0,21,22
 849 1420 849 1420 705 1420 c 128,-1,23
 561 1420 561 1420 472 1317 c 0,24,25
 400 1234 400 1234 400 1100 c 2,26,-1
 400 410 l 2,27,28
 400 276 400 276 472 193 c 0,29,30
 561 90 561 90 705 90 c 128,-1,31
 849 90 849 90 938 193 c 0,32,33
 1010 276 1010 276 1010 460 c 1,34,-1
 1200 550 l 1,35,-1
 1210 550 l 1,0,-1
434 1621 m 1,36,-1
 587 1882 l 1,37,-1
 763 1966 l 1,38,-1
 773 1966 l 1,39,-1
 986 1621 l 1,40,-1
 870 1566 l 1,41,-1
 860 1566 l 1,42,-1
 710 1774 l 1,43,-1
 562 1566 l 1,44,-1
 552 1566 l 1,45,-1
 434 1621 l 1,36,-1
EndSplineSet
Validated: 1
EndChar

